<?xml version="1.0" encoding="UTF-8"?>
<svg version="1.1" xmlns="http://www.w3.org/2000/svg" width="3456" height="2592">
<path d="M0 0 C19.15449393 15.91219678 30.91656003 38.58185745 33.59765625 63.328125 C35.66132858 88.15534083 29.5146719 112.80746086 14.1875 132.7421875 C12.81646518 134.34704221 11.41934049 135.92989185 10 137.4921875 C8.80117187 138.83023438 8.80117187 138.83023438 7.578125 140.1953125 C0.42373907 147.77303487 -9.5025253 157.26159908 -20 159.4921875 C-19.97679687 160.56726563 -19.95359375 161.64234375 -19.9296875 162.75 C-19.67487074 181.36157757 -20.9193191 199.92085876 -22 218.4921875 C-21.44691162 218.52658936 -20.89382324 218.56099121 -20.32397461 218.59643555 C63.50693801 224.04768453 148.11600739 243.88073346 235 280.4921875 C235.66801636 280.78395874 236.33603271 281.07572998 237.02429199 281.37634277 C265.09111179 293.67138541 292.50320564 307.07112484 319 322.4921875 C320.51158552 323.36351243 322.02329691 324.23461903 323.53515625 325.10546875 C371.33695071 352.78393231 415.9898702 386.21093058 456.32568359 423.93115234 C458.07142315 425.55877829 459.8259519 427.17650785 461.58203125 428.79296875 C468.34166499 435.0317403 474.98280247 441.37507658 481.5 447.8671875 C482.14622314 448.50881836 482.79244629 449.15044922 483.45825195 449.81152344 C487.2342301 453.59972475 490.81206782 457.50700246 494.30761719 461.5546875 C496.91925045 464.54457809 499.65135214 467.41724567 502.375 470.3046875 C507.02962895 475.27883644 511.45820303 480.36086152 515.71484375 485.68359375 C517.34479801 487.68690505 518.98874861 489.64307664 520.69140625 491.58203125 C528.67933041 500.6811542 535.95296863 510.22333287 543.1328125 519.96923828 C544.8962932 522.35205857 546.67861711 524.71919888 548.46875 527.08203125 C603 599.42578125 603 599.42578125 603 616.4921875 C604.43666016 615.62207031 604.43666016 615.62207031 605.90234375 614.734375 C607.24694273 613.94454064 608.59202217 613.15552381 609.9375 612.3671875 C610.55818359 611.98820312 611.17886719 611.60921875 611.81835938 611.21875 C615.51804072 609.07400719 618.89992815 607.45418969 623.07861328 606.51220703 C631.11800263 604.67147832 631.11800263 604.67147832 637.43771362 599.71734619 C640.52185017 594.37098265 642.21521671 588.49205481 644 582.6171875 C644.60360937 580.80197151 645.21368298 578.98889276 645.83007812 577.17797852 C647.03995722 573.60328649 648.21768335 570.02053267 649.37109375 566.42724609 C651.77619802 559.01832311 654.7047346 551.81971996 657.65234375 544.61181641 C660.10863215 538.26919231 660.33668677 534.08874039 657.9140625 527.5703125 C657.48867187 526.63703125 657.06328125 525.70375 656.625 524.7421875 C647.84884698 504.45050423 647.76078976 482.45492076 655.25 461.7421875 C663.82237687 441.17355542 678.28427447 426.14627649 699 417.4921875 C717.45015868 411.32607703 737.35284719 411.54929853 754.96801758 420.17700195 C775.31950754 430.87775337 788.20299746 447.76237635 795 469.4921875 C795.2371875 470.25015625 795.474375 471.008125 795.71875 471.7890625 C801.027881 491.93253013 797.39213875 514.22529356 787.82421875 532.4453125 C777.88265898 549.050059 763.84612072 561.38807164 745.4375 567.8984375 C742.86688203 568.52461367 740.63497386 568.5338385 738 568.4921875 C737.73735603 569.40573502 737.73735603 569.40573502 737.46940613 570.33773804 C735.69321443 576.40078917 733.66790482 582.31378705 731.42578125 588.21875 C730.9327375 589.52928848 730.9327375 589.52928848 730.42973328 590.86630249 C729.39377637 593.61778603 728.353227 596.36750516 727.3125 599.1171875 C726.60320925 600.99858244 725.89422215 602.88009189 725.18554688 604.76171875 C723.4605337 609.33987101 721.73140369 613.91644845 720 618.4921875 C722.98490593 621.51156187 725.90772105 624.27075787 729.3125 626.8046875 C742.84026391 637.55442846 754.06281859 650.4215916 764 664.4921875 C764.51546387 665.22195801 765.03092773 665.95172852 765.56201172 666.70361328 C809.39183519 729.39412497 828.95052505 807.96171786 834 883.4921875 C834.1118435 884.95573954 834.2238175 886.41928162 834.3359375 887.8828125 C838.20973869 943.02385422 832.85557137 999.81499379 816 1052.4921875 C815.73106934 1053.34538574 815.46213867 1054.19858398 815.18505859 1055.07763672 C805.54560069 1085.31664563 790.90734752 1113.35571487 769 1136.4921875 C767.73542969 1137.8534375 767.73542969 1137.8534375 766.4453125 1139.2421875 C748.51057808 1157.95669299 723.9101234 1170.12584675 697.84082031 1170.77783203 C675.97876855 1171.00444584 658.22587848 1164.27194199 639 1154.4921875 C638.70456299 1155.28463867 638.40912598 1156.07708984 638.10473633 1156.89355469 C630.87455897 1176.18327399 623.00845058 1194.94941233 614 1213.4921875 C613.39668038 1214.74131115 612.79349251 1215.99049844 612.19042969 1217.23974609 C604.32778098 1233.49033801 595.96212324 1249.29924261 586.63476562 1264.76953125 C585.06458739 1267.38461902 583.52054798 1270.01326329 581.984375 1272.6484375 C559.53888591 1310.95979196 531.84561713 1346.66742528 502 1379.4921875 C501.34128906 1380.23210937 500.68257812 1380.97203125 500.00390625 1381.734375 C487.30875422 1395.98942283 474.36128 1410.47646067 459.828125 1422.8828125 C457.97062012 1424.51805184 456.23393991 1426.22700543 454.5 1427.9921875 C450.83717092 1431.70418207 446.95893845 1435.10065391 443 1438.4921875 C442.00226563 1439.35585937 441.00453125 1440.21953125 439.9765625 1441.109375 C424.4397762 1454.53589011 408.53998575 1467.31886466 392 1479.4921875 C391.27264648 1480.03166016 390.54529297 1480.57113281 389.79589844 1481.12695312 C360.62415174 1502.74662326 329.81022792 1522.14114572 297.69433594 1539.06933594 C295.17740439 1540.39850204 292.66949928 1541.7430739 290.1640625 1543.09375 C216.39335914 1582.69303498 135.09611029 1608.80344659 -34 1632.4921875 C-34.72845123 1632.53455536 -35.45690247 1632.57692322 -36.20742798 1632.62057495 C-52.49088212 1633.5405939 -68.75593002 1633.6935533 -85.0625 1633.6796875 C-87.04097427 1633.67878113 -87.04097427 1633.67878113 -89.05941772 1633.67785645 C-110.43048245 1633.65735352 -131.69877942 1633.27321017 -153 1631.4921875 C-153.76070801 1631.42902344 -154.52141602 1631.36585937 -155.30517578 1631.30078125 C-219.4986974 1625.89724157 -282.89714576 1613.54071605 -344.03881836 1593.14459229 C-345.95575123 1592.50690725 -347.87531143 1591.87713747 -349.79492188 1591.24755859 C-399.48055428 1574.92021274 -447.93478579 1553.03409913 -493 1526.4921875 C-493.99225586 1525.91291504 -494.98451172 1525.33364258 -496.00683594 1524.73681641 C-511.72249676 1515.54673217 -526.98343652 1505.78289348 -542 1495.4921875 C-543.16668213 1494.69433838 -543.16668213 1494.69433838 -544.35693359 1493.88037109 C-560.06482637 1483.09150125 -575.16698856 1471.44818429 -590 1459.4921875 C-590.95390625 1458.72390625 -591.9078125 1457.955625 -592.890625 1457.1640625 C-604.2776333 1447.88855243 -615.34194757 1438.31508764 -626.06665039 1428.28198242 C-627.57567499 1426.88500562 -629.09526267 1425.4994366 -630.61889648 1424.1184082 C-637.66460327 1417.73077915 -644.49068516 1411.15846062 -651.2019043 1404.4206543 C-652.82552229 1402.79162178 -654.45449603 1401.16808022 -656.08398438 1399.54492188 C-661.06411464 1394.56795735 -665.95873879 1389.55896626 -670.53491211 1384.20239258 C-672.74243708 1381.62553665 -675.06230182 1379.16253915 -677.375 1376.6796875 C-681.67195948 1372.02833201 -685.74190142 1367.24143909 -689.7109375 1362.3046875 C-691.69362868 1359.86861643 -693.72451378 1357.4850551 -695.78125 1355.11157227 C-703.05138714 1346.68830472 -709.65683342 1337.78511316 -716.26318359 1328.83740234 C-717.75413367 1326.82417963 -719.25739847 1324.82153382 -720.76953125 1322.82421875 C-755.94712151 1276.08405924 -783.54804807 1223.93342949 -805.61035156 1169.88916016 C-807.71432475 1164.74603245 -809.85635647 1159.61888148 -812 1154.4921875 C-813.03898437 1155.02328125 -814.07796875 1155.554375 -815.1484375 1156.1015625 C-841.22612067 1169.35030374 -867.6902518 1175.27980233 -896.3515625 1166.4609375 C-909.71614363 1161.6483876 -921.40408056 1154.94700792 -932 1145.4921875 C-932.81726563 1144.80640625 -933.63453125 1144.120625 -934.4765625 1143.4140625 C-985.5106763 1099.67053639 -1000.98644008 1021.51771953 -1006.29443359 957.96704102 C-1007.17311989 945.75614106 -1007.24332253 933.54313234 -1007.25 921.3046875 C-1007.25067474 920.18546906 -1007.25134949 919.06625061 -1007.25204468 917.91311646 C-1007.23277105 897.64212104 -1006.36321067 877.62563461 -1004 857.4921875 C-1003.9175 856.78545898 -1003.835 856.07873047 -1003.75 855.35058594 C-994.94488446 781.01509127 -971.496326 704.00316249 -922 646.4921875 C-921.1646875 645.51507812 -920.329375 644.53796875 -919.46875 643.53125 C-914.97399829 638.40538589 -910.25470923 633.82732261 -905 629.4921875 C-904.05125 628.69039062 -903.1025 627.88859375 -902.125 627.0625 C-894.26518692 620.4921875 -894.26518692 620.4921875 -892 620.4921875 C-894.22084797 614.35304468 -896.44490246 608.21507036 -898.67114258 602.07788086 C-899.42740785 599.99188286 -900.18295082 597.90562285 -900.93774414 595.8190918 C-902.02558599 592.81228831 -903.11606025 589.80645057 -904.20703125 586.80078125 C-904.54152786 585.87446396 -904.87602448 584.94814667 -905.22065735 583.99375916 C-906.13201128 581.48726704 -907.05975117 578.98796726 -908 576.4921875 C-908.2613121 575.78534821 -908.52262421 575.07850891 -908.79185486 574.35025024 C-910.38447561 570.24222731 -910.38447561 570.24222731 -914.15234375 567.9609375 C-915.40144531 567.64125 -916.65054688 567.3215625 -917.9375 566.9921875 C-935.95287259 561.78789121 -950.82335756 549.02318159 -960.01220703 532.69335938 C-970.60173837 512.69264928 -972.95455163 490.27771576 -967 468.4921875 C-960.60233389 448.08058609 -947.73046016 430.7847769 -928.62109375 420.7109375 C-910.10513471 412.27014276 -890.23007695 410.70163736 -871 417.4921875 C-851.0629147 425.6406378 -836.56323162 440.89302779 -828 460.4921875 C-821.18840662 478.9976724 -819.48716378 501.92442712 -827 520.4921875 C-828.63502268 523.7809402 -830.27431144 527.02412433 -832.12109375 530.19921875 C-834.30865079 538.39526579 -827.97201898 549.20989946 -825.11328125 556.8671875 C-824.64638104 558.12592346 -824.17985032 559.38479652 -823.71366882 560.64379883 C-822.00014471 565.26906832 -820.28004989 569.89188735 -818.55993652 574.51470947 C-817.09670327 578.44787571 -815.63607212 582.3819884 -814.17900658 586.31744385 C-813.4969002 588.15645021 -812.81089061 589.99400731 -812.12483215 591.83154297 C-811.71407944 592.94029785 -811.30332672 594.04905273 -810.88012695 595.19140625 C-810.51611282 596.16940186 -810.15209869 597.14739746 -809.77705383 598.1550293 C-809 600.4921875 -809 600.4921875 -809 602.4921875 C-808.0925 602.5540625 -807.185 602.6159375 -806.25 602.6796875 C-797.31557131 603.9766207 -789.01255324 608.85067405 -781.27734375 613.2578125 C-778.94621403 614.6068147 -778.94621403 614.6068147 -776 615.4921875 C-775.67950684 614.88560303 -775.35901367 614.27901855 -775.02880859 613.65405273 C-755.03442669 575.94621859 -731.78364512 539.76413642 -705 506.4921875 C-704.48969238 505.85571289 -703.97938477 505.21923828 -703.45361328 504.56347656 C-693.29448024 491.90548714 -682.89608641 479.4886901 -671.8581543 467.58569336 C-670.07462213 465.66034765 -668.30539421 463.72487596 -666.54394531 461.77905273 C-659.91589264 454.46297798 -653.06672326 447.40320715 -646.07397461 440.43579102 C-644.30008997 438.66731531 -642.53168223 436.89348706 -640.76367188 435.11914062 C-635.53577704 429.88818541 -630.30768085 424.72204323 -624.67504883 419.92211914 C-622.10692444 417.72979958 -619.6582399 415.41860397 -617.1875 413.1171875 C-612.54442811 408.82788047 -607.76558383 404.76540131 -602.83984375 400.80078125 C-600.2818121 398.72128097 -597.76857206 396.60166468 -595.26489258 394.45776367 C-588.36317253 388.55271899 -581.2720284 382.93439435 -574 377.4921875 C-573.30664551 376.97285645 -572.61329102 376.45352539 -571.89892578 375.91845703 C-538.79454462 351.1894482 -504.21045632 329.37875611 -468 309.4921875 C-467.17177734 309.03602051 -466.34355469 308.57985352 -465.49023438 308.10986328 C-390.40132391 266.97543697 -305.4245178 240.13456629 -105 216.4921875 C-105.00523682 215.86578369 -105.01047363 215.23937988 -105.01586914 214.59399414 C-105.10381113 202.32107752 -105.04346644 190.06978803 -104.5625 177.8046875 C-104.50364624 176.23956421 -104.50364624 176.23956421 -104.44360352 174.64282227 C-104.23870082 169.85061625 -103.95578788 165.20687225 -103 160.4921875 C-103.86109375 160.24597656 -104.7221875 159.99976563 -105.609375 159.74609375 C-115.56548388 156.06416869 -124.52697927 147.83636304 -132 140.4921875 C-132.68578125 139.81929687 -133.3715625 139.14640625 -134.078125 138.453125 C-144.27411326 127.73529482 -150.64250011 114.48702466 -155 100.4921875 C-155.3403125 99.42226563 -155.680625 98.35234375 -156.03125 97.25 C-162.64104324 72.21846818 -157.21842511 45.78324601 -144.890625 23.56640625 C-141.99013176 18.85010835 -138.59703205 14.68747852 -135 10.4921875 C-134.55527344 9.90308594 -134.11054687 9.31398438 -133.65234375 8.70703125 C-124.85881872 -2.66807911 -111.9077572 -9.82839933 -99 -15.5078125 C-97.61941406 -16.13816406 -97.61941406 -16.13816406 -96.2109375 -16.78125 C-63.98977302 -30.04878832 -26.35934251 -21.21374631 0 0 Z M-165 266.4921875 C-165.80995422 266.57704407 -166.61990845 266.66190063 -167.45440674 266.74932861 C-242.84947141 274.65502657 -315.96876114 293.58907729 -386 322.4921875 C-383.97098518 329.54604237 -381.64754693 336.444933 -379.11328125 343.33203125 C-378.55275055 344.86560524 -378.55275055 344.86560524 -377.980896 346.43016052 C-376.76112011 349.76445215 -375.53696966 353.09711702 -374.3125 356.4296875 C-373.4516247 358.77876578 -372.59086781 361.12788746 -371.73022461 363.47705078 C-364.92887045 382.02598208 -358.0487666 400.54514134 -351.14308167 419.05541992 C-346.82641806 430.63147169 -342.53907842 442.21839368 -338.25 453.8046875 C-337.40332074 456.09163427 -336.55664105 458.37858089 -335.70996094 460.66552734 C-334.42865794 464.12654319 -333.14739957 467.58757554 -331.86624146 471.04864502 C-328.87169418 479.13835508 -325.87571071 487.2275321 -322.87890625 495.31640625 C-322.03230523 497.60164287 -321.18570691 499.8868805 -320.33911133 502.17211914 C-319.0754404 505.5831796 -317.81174314 508.99423029 -316.54794312 512.40524292 C-311.90986541 524.92393032 -307.27661659 537.44435147 -302.66001892 549.97097778 C-300.94803544 554.61513122 -299.2332855 559.25822487 -297.51196289 563.89892578 C-296.99846535 565.28339401 -296.99846535 565.28339401 -296.47459412 566.6958313 C-295.77220077 568.58948825 -295.06969529 570.4831036 -294.36708069 572.37667847 C-291.91905947 578.98396708 -289.50079219 585.6016878 -287.09263611 592.22360229 C-285.27146394 597.22029438 -283.43467335 602.21116887 -281.59542847 607.20123291 C-280.71769665 609.59283163 -279.84624039 611.98674562 -278.98196411 614.38323975 C-273.3463722 629.99691305 -266.72059637 644.4800969 -258.47738647 658.89382935 C-256.58012353 662.23064658 -254.74534338 665.5995791 -252.91665649 668.97433472 C-229.79050851 711.45121701 -195.09475873 742.82418596 -148.4921875 757.26953125 C-142.71756676 758.96525321 -136.90059925 760.31457806 -131 761.4921875 C-129.80238037 761.73775391 -129.80238037 761.73775391 -128.58056641 761.98828125 C-78.60816598 771.68426915 -21.0143454 764.38720835 21.8203125 736.015625 C28.20200026 731.63516929 34.10609821 726.85495148 39.76953125 721.5703125 C41.81782622 719.66191859 43.92035597 717.85594024 46.0625 716.0546875 C60.32511539 703.49676718 70.91095239 687.40544423 79.39453125 670.5546875 C82.74855385 663.92272103 86.50569684 657.5155688 90.27148438 651.1105957 C98.24768432 637.27891186 103.65341176 622.40187657 109.07537842 607.43643188 C110.62801525 603.15144907 112.19236937 598.87076919 113.75585938 594.58973694 C114.58225907 592.32670447 115.40809911 590.06346756 116.23339844 587.80003357 C120.7374044 575.45223412 125.3042312 563.12789463 129.875 550.8046875 C130.71514311 548.53826916 131.55523073 546.27183026 132.39526367 544.00537109 C134.08581636 539.44439339 135.77668783 534.88353405 137.46777344 530.32275391 C141.23191352 520.17022994 144.99181126 510.01613478 148.75201416 499.8621521 C150.83450091 494.23876568 152.91726452 488.6154818 155 482.9921875 C155.83333466 480.74218799 156.66666799 478.49218799 157.5 476.2421875 C159.16666667 471.7421875 160.83333333 467.2421875 162.5 462.7421875 C162.91246979 461.62851807 163.32493958 460.51484863 163.74990845 459.36743164 C164.58354431 457.11661686 165.41718282 454.86580306 166.25082397 452.61499023 C168.32955037 447.00246446 170.40823123 441.38992183 172.48681641 435.77734375 C176.2916434 425.50372293 180.09685583 415.23024551 183.90368652 404.95736694 C193.96284812 377.81223705 204.00735984 350.66188366 214 323.4921875 C208.68122924 319.94634033 202.49428279 317.95477047 196.5625 315.6171875 C195.83737213 315.33106598 195.11224426 315.04494446 194.36514282 314.75015259 C128.62485883 288.91730795 59.26041575 272.94387579 -11 266.2421875 C-11.87070129 266.15901276 -12.74140259 266.07583801 -13.63848877 265.99014282 C-19.42219895 265.4447025 -25.20863029 264.94888433 -31 264.4921875 C-31.67490479 264.43703979 -32.34980957 264.38189209 -33.04516602 264.32507324 C-50.14463194 262.97781027 -67.35924142 263.24639725 -84.5 263.2421875 C-85.32383934 263.24174564 -86.14767868 263.24130379 -86.99648285 263.24084854 C-113.10977448 263.23351159 -139.01346967 263.69062548 -165 266.4921875 Z M-623.3515625 484.7109375 C-624.03863281 485.39671875 -624.72570313 486.0825 -625.43359375 486.7890625 C-626.15675781 487.51609375 -626.87992188 488.243125 -627.625 488.9921875 C-628.32496094 489.68828125 -629.02492188 490.384375 -629.74609375 491.1015625 C-634.37073371 495.7347825 -638.73821141 500.52537478 -643 505.4921875 C-644.0222362 506.65990689 -645.04564172 507.82660386 -646.0703125 508.9921875 C-678.32310117 545.87418765 -706.3722071 586.09593873 -729.73388672 629.16992188 C-731.10049413 631.67651071 -732.49010971 634.16970776 -733.87890625 636.6640625 C-734.81617038 638.37702121 -735.75239546 640.09054892 -736.6875 641.8046875 C-737.13432129 642.5994751 -737.58114258 643.3942627 -738.04150391 644.21313477 C-740.36319735 648.46010859 -740.36319735 648.46010859 -740.9921875 653.16796875 C-739.73370166 656.11599661 -738.18574266 658.67810975 -736.4375 661.3671875 C-725.46865965 678.76126932 -718.148726 697.26697291 -711 716.4921875 C-710.08863281 715.99589844 -709.17726563 715.49960938 -708.23828125 714.98828125 C-693.97888346 707.43192321 -678.20335344 700.9444727 -662 699.4921875 C-661.36626465 699.42805664 -660.7325293 699.36392578 -660.07958984 699.29785156 C-638.88626895 697.2371844 -619.05654622 700.61565737 -599 707.4921875 C-598.62676942 697.0570505 -599.75786979 686.74237337 -600.72827148 676.3684082 C-600.91426478 674.34042193 -601.09982018 672.31239545 -601.28497314 670.28433228 C-601.78669061 664.80279198 -602.29459838 659.32184137 -602.80372119 653.84098458 C-603.33654792 648.09419182 -603.86387189 642.34689402 -604.39186096 636.59965515 C-605.27882886 626.95341611 -606.16950296 617.3075253 -607.06274414 607.66186523 C-608.20835162 595.29087501 -609.3481439 582.91935643 -610.48599148 570.54765034 C-611.46579689 559.8944773 -612.4479313 549.24151918 -613.43061566 538.58861136 C-613.74576389 535.17154535 -614.0606593 531.7544561 -614.37554741 528.3373661 C-614.87078671 522.96509376 -615.36747045 517.59295673 -615.86526489 512.22092056 C-616.0475098 510.25215521 -616.22932098 508.28334965 -616.4106617 506.31450081 C-616.65870184 503.62246084 -616.908359 500.93057553 -617.15843201 498.23872375 C-617.22944718 497.46410351 -617.30046236 496.68948326 -617.37362951 495.89138967 C-617.82307539 491.07751251 -618.37879955 486.28701915 -619 481.4921875 C-620.87644057 481.4921875 -622.10097603 483.46262424 -623.3515625 484.7109375 Z M451 485.4921875 C448.27772847 511.48628361 445.74179045 537.49295543 443.36355877 563.52068973 C443.01622904 567.31954926 442.66764181 571.11829307 442.31911874 574.91704327 C441.49819247 583.86549409 440.67952316 592.81414932 439.86230469 601.76293945 C439.02279159 610.9553313 438.17894438 620.14731856 437.33315253 629.33913463 C436.60011209 637.30747056 435.86987234 645.27605987 435.14184594 653.24485546 C434.70983811 657.97309233 434.2767555 662.7012243 433.84087372 667.42910576 C433.4337738 671.84595199 433.03017372 676.26310433 432.62924957 680.68051529 C432.48215783 682.29469895 432.333838 683.90877127 432.18417358 685.52271843 C431.97957863 687.7311569 431.77950169 689.93996153 431.58050537 692.14891052 C431.46771114 693.38139243 431.35491692 694.61387434 431.23870468 695.88370419 C430.9814201 699.77305868 430.96007554 703.59560175 431 707.4921875 C434.73250706 706.84082842 438.30256721 705.83549034 441.92358398 704.72753906 C473.03267648 695.21920382 504.35912503 697.23012624 533.875 711.0390625 C536.93299246 712.53277584 536.93299246 712.53277584 540 713.4921875 C540.36609375 712.41066406 540.7321875 711.32914063 541.109375 710.21484375 C547.38071663 692.20539873 554.97954472 673.94861043 566.22973633 658.43676758 C567.6131142 656.52558812 567.6131142 656.52558812 569 653.4921875 C557.2975576 607.88587441 515.79574301 558.872352 485.61328125 523.57421875 C483.20918687 520.75583721 480.88232006 517.88046797 478.5625 514.9921875 C473.79000291 509.12883393 468.66273944 503.63052822 463.50195312 498.11181641 C462.00235334 496.49472522 460.52146215 494.86256693 459.046875 493.22265625 C458.58531006 492.70960938 458.12374512 492.1965625 457.64819336 491.66796875 C456.38501975 490.26049181 455.12408176 488.85100938 453.86328125 487.44140625 C453.24839844 486.79816406 452.63351562 486.15492188 452 485.4921875 C451.67 485.4921875 451.34 485.4921875 451 485.4921875 Z M-704 736.4921875 C-703.33840893 743.5079609 -702.09731302 750.28002762 -700.6875 757.1796875 C-683.99694147 842.12606961 -690.67317837 932.38105165 -732.25073242 1050.56811523 C-734.12462779 1055.38016131 -734.12982251 1058.10406376 -732.0625 1062.86328125 C-731.35565063 1064.51976685 -731.35565063 1064.51976685 -730.63452148 1066.2097168 C-730.08977849 1067.44974987 -729.5449339 1068.68973831 -729 1069.9296875 C-728.42844167 1071.25699763 -727.85826246 1072.58490229 -727.28930664 1073.91333008 C-725.97525483 1076.97682536 -724.6537774 1080.03699908 -723.32861328 1083.09570312 C-720.67034214 1089.24260412 -718.05176648 1095.40624865 -715.43359375 1101.5703125 C-705.66505918 1124.56245302 -695.86625242 1147.54178662 -686 1170.4921875 C-681.26636613 1170.4921875 -678.72987159 1168.83947694 -674.8125 1166.4921875 C-639.33525338 1146.05136109 -601.40905776 1138.76264039 -560.921875 1136.73828125 C-558.06574645 1136.67946438 -558.06574645 1136.67946438 -556 1135.4921875 C-556.13364484 1134.82091871 -556.26728967 1134.14964991 -556.40498435 1133.45803964 C-560.14900143 1114.36056854 -562.46581382 1095.37682791 -564.19552693 1076.00914237 C-564.55345526 1072.03183994 -564.9254629 1068.05584897 -565.29568672 1064.07967567 C-565.98631192 1056.64122722 -566.66526469 1049.20176716 -567.33941821 1041.76180971 C-568.03201113 1034.12435798 -568.73755807 1026.48813228 -569.44544835 1018.85208549 C-570.95261227 1002.5898345 -572.4380298 986.32563188 -573.9186778 970.06094851 C-574.64660205 962.06586872 -575.37687353 954.07100368 -576.10727002 946.07614942 C-577.40891271 931.82821364 -578.70938998 917.58017181 -580.00878906 903.33203125 C-580.08531484 902.49291768 -580.16184062 901.6538041 -580.24068536 900.78926285 C-580.94326349 893.08528596 -581.64575698 885.38130137 -582.34822845 877.67731476 C-582.82327638 872.46749171 -583.29834567 867.25767061 -583.7734375 862.04785156 C-583.85168191 861.1898245 -583.92992633 860.33179745 -584.01054178 859.44776957 C-585.31466354 845.14726184 -586.62017778 830.84688158 -587.92671406 816.54659426 C-588.7262253 807.79506823 -589.52450207 799.04343133 -590.32113488 790.2916428 C-590.8628097 784.34170309 -591.40574328 778.39187911 -591.94967537 772.44214533 C-592.26265563 769.01815288 -592.57504631 765.59410927 -592.88586617 762.16991997 C-593.22287686 758.46048911 -593.56207758 754.7512648 -593.90182495 751.04208374 C-593.99919288 749.96443862 -594.0965608 748.88679351 -594.19687927 747.77649248 C-594.45119867 745.01353729 -594.72253407 742.25289571 -595 739.4921875 C-595.06095486 738.77402587 -595.12190972 738.05586424 -595.18471169 737.31594014 C-595.5977663 733.35105299 -595.79422109 732.66795698 -599 729.9296875 C-633.09758189 711.57876865 -671.96676266 716.77000314 -704 736.4921875 Z M428 733.4921875 C427.62251932 736.60884128 427.30676947 739.71313015 427.02636719 742.83911133 C426.93270654 743.84335742 426.83904589 744.84760351 426.74254704 745.8822813 C426.42299853 749.32087472 426.10999795 752.76003464 425.796875 756.19921875 C425.56480623 758.71231526 425.33234672 761.22537571 425.09953308 763.73840332 C424.58626313 769.28830575 424.07584112 774.83845979 423.56759644 780.38882446 C422.8119041 788.64024398 422.04938989 796.89102384 421.28565252 805.14170206 C418.06180224 839.97754341 414.87644963 874.81687933 411.7067852 909.65768909 C409.830247 930.28323207 407.9474659 950.90820091 406.06160164 971.53289318 C404.76420199 985.72614184 403.47328606 999.91995393 402.19018906 1014.11450279 C401.2960431 1024.0009343 400.39500048 1033.8867228 399.48890525 1043.77206624 C398.95977991 1049.54746141 398.43378612 1055.32309783 397.91612816 1061.09953308 C397.43538685 1066.46337232 396.9456609 1071.82631919 396.44937754 1077.18874204 C396.2718446 1079.12352235 396.09741232 1081.05859066 395.92665815 1082.993981 C394.33546388 1100.99156345 391.94472823 1119.07325851 387 1136.4921875 C387.98991943 1136.55688232 388.97983887 1136.62157715 389.99975586 1136.68823242 C409.95305955 1138.02068203 429.54563215 1139.58028462 449 1144.4921875 C449.86254395 1144.70713867 450.72508789 1144.92208984 451.61376953 1145.14355469 C471.06913434 1150.13517082 489.2486522 1158.50317022 506.578125 1168.55859375 C509.83740598 1170.5443226 509.83740598 1170.5443226 513 1171.4921875 C519.64701589 1156.74259157 526.12693662 1141.94209706 532.34155273 1127.00439453 C536.1471559 1117.86765915 540.01228099 1108.75736285 543.90234375 1099.65625 C544.42769846 1098.42652732 544.95303308 1097.19679605 545.47834778 1095.96705627 C547.59582555 1091.01095371 549.71342629 1086.05491064 551.83755493 1081.10165405 C553.33696456 1077.6040117 554.83281507 1074.10486534 556.328125 1070.60546875 C556.78481064 1069.54329132 557.24149628 1068.48111389 557.71202087 1067.38674927 C558.13093094 1066.4048764 558.549841 1065.42300354 558.98144531 1064.41137695 C559.34860657 1063.55445755 559.71576782 1062.69753815 560.09405518 1061.81465149 C561.79447587 1057.72667761 561.79447587 1057.72667761 561.38598633 1053.49804688 C560.86427856 1052.42780273 560.86427856 1052.42780273 560.33203125 1051.3359375 C559.93927002 1050.49708008 559.54650879 1049.65822266 559.1418457 1048.79394531 C558.70316162 1047.86936523 558.26447754 1046.94478516 557.8125 1045.9921875 C537.30631526 1000.75698106 527.01338424 950.69786746 522 901.4921875 C521.88285645 900.39261719 521.76571289 899.29304688 521.64501953 898.16015625 C516.33824069 846.49594382 519.20837479 792.42505393 531.73338318 741.9445343 C532.44615909 739.04409115 533 736.49250169 533 733.4921875 C504.8779088 718.42143916 454.34749704 707.14469046 428 733.4921875 Z M574 1081.4921875 C570.58317193 1089.51295209 567.1665525 1097.53380553 563.75 1105.5546875 C563.23467712 1106.76446259 562.71935425 1107.97423767 562.18841553 1109.22067261 C556.56843862 1122.41428759 550.94953197 1135.60835526 545.3359375 1148.8046875 C544.89149292 1149.84942734 544.44704834 1150.89416718 543.98913574 1151.9705658 C541.90480237 1156.87026693 539.82079253 1161.77010528 537.73730469 1166.67016602 C532.51320075 1178.95348843 527.26453994 1191.2261419 522 1203.4921875 C517.6905066 1201.87782466 514.70896003 1199.84336493 511.125 1196.9296875 C472.38736582 1166.32011357 425.83383225 1158.90488736 378 1156.4921875 C377.47792969 1157.53375 376.95585937 1158.5753125 376.41796875 1159.6484375 C358.44462791 1194.89044483 332.48593939 1221.46912694 298 1240.4921875 C300.97475043 1245.15713704 304.05484027 1249.64751267 307.5625 1253.9296875 C342.46451455 1297.13236843 368.98026793 1347.09283732 393.57324219 1396.62255859 C396.03983185 1401.58359469 398.52030778 1406.53769076 401 1411.4921875 C403.69436979 1409.52675298 406.34974938 1407.51674657 409 1405.4921875 C409.77472656 1404.93917969 410.54945312 1404.38617187 411.34765625 1403.81640625 C412.07855469 1403.25566406 412.80945312 1402.69492188 413.5625 1402.1171875 C414.58537109 1401.36308594 414.58537109 1401.36308594 415.62890625 1400.59375 C417.42218546 1397.84507702 417.07641635 1395.89156351 416.51831055 1392.73632812 C411.89289117 1372.70954767 402.94113271 1352.74653387 391.16796875 1335.91796875 C390 1333.4921875 390 1333.4921875 390.484375 1331.5390625 C392.56268647 1328.73227072 394.7720833 1326.06323779 397.0625 1323.4296875 C398.06719094 1322.259788 399.07108682 1321.08920529 400.07421875 1319.91796875 C400.82131104 1319.04712646 400.82131104 1319.04712646 401.58349609 1318.15869141 C403.55239713 1315.84229732 405.46426906 1313.48167273 407.375 1311.1171875 C411.54156423 1305.99485226 415.86201281 1301.01801372 420.20043945 1296.04174805 C424.12489097 1291.53003387 427.93426783 1286.93893195 431.69921875 1282.29296875 C435.38006413 1277.8122113 439.17513193 1273.43059564 442.95703125 1269.03515625 C445.84230575 1265.68076122 448.70679062 1262.30926761 451.5625 1258.9296875 C452.01222168 1258.39746582 452.46194336 1257.86524414 452.92529297 1257.31689453 C453.83068442 1256.2450541 454.73595817 1255.17311424 455.64111328 1254.10107422 C457.46765588 1251.93849504 459.29621019 1249.77762226 461.125 1247.61694336 C462.03541838 1246.54115602 462.9455783 1245.46514991 463.85546875 1244.38891602 C466.25425757 1241.55198635 468.65733503 1238.7188305 471.06640625 1235.890625 C471.56785156 1235.30087891 472.06929687 1234.71113281 472.5859375 1234.10351562 C473.54688659 1232.97351068 474.50906304 1231.84454794 475.47265625 1230.71679688 C477.46585779 1228.37063256 479.28942243 1226.05805385 481 1223.4921875 C485.73281305 1224.88875529 490.44980212 1226.29546999 495.12109375 1227.88671875 C512.37205206 1233.6885688 529.79447061 1236.97053909 548 1237.4921875 C566.48466444 1205.24127942 582.26522166 1172.14271783 595.375 1137.3671875 C595.66834229 1136.59794952 595.96168457 1135.82871155 596.26391602 1135.03616333 C597.0917689 1132.85655081 597.90390764 1130.67176996 598.7109375 1128.484375 C598.95915253 1127.83471268 599.20736755 1127.18505035 599.46310425 1126.51570129 C600.67493414 1123.16790763 601.47351773 1120.83338543 600 1117.4921875 C598.58318016 1115.50863972 597.09251586 1113.57728908 595.5625 1111.6796875 C588.73633101 1103.05604757 582.69574595 1093.92011051 576.9375 1084.5546875 C576.298125 1083.5440625 575.65875 1082.5334375 575 1081.4921875 C574.67 1081.4921875 574.34 1081.4921875 574 1081.4921875 Z M-748 1082.4921875 C-749.37160508 1084.20186224 -749.37160508 1084.20186224 -750.72265625 1086.4453125 C-751.52437256 1087.70794922 -751.52437256 1087.70794922 -752.34228516 1088.99609375 C-752.90995605 1089.90230469 -753.47762695 1090.80851562 -754.0625 1091.7421875 C-765.72615806 1110.05183224 -765.72615806 1110.05183224 -771.8046875 1116.3671875 C-773.61604588 1119.58738018 -772.67761646 1121.91967748 -772 1125.4921875 C-771.2972809 1127.75789989 -770.52625052 1130.0032125 -769.69921875 1132.2265625 C-769.46718246 1132.85324326 -769.23514618 1133.47992401 -768.99607849 1134.12559509 C-768.23553143 1136.16796023 -767.46280588 1138.20538258 -766.6875 1140.2421875 C-766.42056335 1140.94848297 -766.15362671 1141.65477844 -765.87860107 1142.38247681 C-760.46689263 1156.67079274 -754.46343849 1170.64649812 -748 1184.4921875 C-747.44554199 1185.68473145 -746.89108398 1186.87727539 -746.31982422 1188.10595703 C-735.61230766 1214.51112239 -735.61230766 1214.51112239 -720 1237.4921875 C-697.41766572 1237.94642986 -675.08422394 1230.76793963 -654 1223.4921875 C-648.27778279 1229.66835932 -642.76996701 1235.92320183 -637.48046875 1242.4765625 C-634.55031511 1246.03889102 -631.53234033 1249.51686711 -628.5 1252.9921875 C-624.00234349 1258.15054226 -619.61003945 1263.37376587 -615.30078125 1268.69140625 C-612.11964796 1272.56385543 -608.85246445 1276.35947533 -605.58398438 1280.15820312 C-600.81293833 1285.70325917 -596.08651595 1291.28502429 -591.36767578 1296.87451172 C-589.97540583 1298.52127729 -588.57994527 1300.16528817 -587.18359375 1301.80859375 C-582.84615897 1306.91654338 -578.53680082 1312.03970382 -574.3125 1317.2421875 C-570.34525848 1322.11888692 -566.22094569 1326.83419566 -562 1331.4921875 C-563.52321749 1335.75719648 -565.73237681 1339.42632247 -568.125 1343.2421875 C-575.15947216 1354.78600968 -580.58798361 1366.69218212 -584.9375 1379.4921875 C-585.23221191 1380.35215332 -585.52692383 1381.21211914 -585.83056641 1382.09814453 C-588.58878165 1390.13103233 -588.58878165 1390.13103233 -589 1398.4921875 C-587.52623557 1401.02684426 -585.60411368 1402.63682136 -583.3125 1404.4296875 C-582.76916016 1404.89697266 -582.22582031 1405.36425781 -581.66601562 1405.84570312 C-578.92365103 1408.1569826 -576.22858502 1409.96262846 -573 1411.4921875 C-572.60055176 1410.62400391 -572.20110352 1409.75582031 -571.78955078 1408.86132812 C-566.99304573 1398.48368067 -561.98367571 1388.21938321 -556.875 1377.9921875 C-556.46025421 1377.16135651 -556.04550842 1376.33052551 -555.61819458 1375.47451782 C-549.23469108 1362.71195135 -542.61359973 1350.15281491 -535.38183594 1337.84570312 C-534.06638247 1335.60524882 -532.76897486 1333.35536618 -531.4765625 1331.1015625 C-515.80134667 1303.90805931 -498.42433802 1276.83421733 -478.7109375 1252.37109375 C-478.19112305 1251.72527344 -477.67130859 1251.07945312 -477.13574219 1250.4140625 C-476.15451288 1249.20639566 -475.16345639 1248.00662371 -474.16113281 1246.81640625 C-472.69808753 1245.07513747 -472.69808753 1245.07513747 -471 1242.4921875 C-471.66652636 1239.47467048 -471.66652636 1239.47467048 -473.63549805 1238.39233398 C-474.33715088 1238.05274658 -475.03880371 1237.71315918 -475.76171875 1237.36328125 C-476.54409912 1236.97342041 -477.32647949 1236.58355957 -478.13256836 1236.18188477 C-478.9756958 1235.76865967 -479.81882324 1235.35543457 -480.6875 1234.9296875 C-512.93541751 1218.50230063 -537.11425269 1190.69767585 -549 1156.4921875 C-599.99076299 1158.97943288 -645.61943034 1167.62670681 -686.86157227 1199.64550781 C-687.49119873 1200.13245117 -688.1208252 1200.61939453 -688.76953125 1201.12109375 C-689.59868042 1201.7718689 -689.59868042 1201.7718689 -690.44458008 1202.43579102 C-692 1203.4921875 -692 1203.4921875 -695 1204.4921875 C-695.17106262 1203.95262421 -695.34212524 1203.41306091 -695.51837158 1202.85714722 C-697.38212997 1197.10856387 -699.55258106 1191.55699801 -701.921875 1186 C-702.29856827 1185.10906647 -702.67526154 1184.21813293 -703.06336975 1183.30020142 C-704.2888535 1180.40441235 -705.51931391 1177.51076899 -706.75 1174.6171875 C-707.60918981 1172.59026324 -708.46815537 1170.5632439 -709.3269043 1168.53613281 C-715.05432143 1155.02668658 -720.82011034 1141.53368539 -726.61254883 1128.05200195 C-733.1272734 1112.88757025 -739.5666666 1097.6912939 -746 1082.4921875 C-746.66 1082.4921875 -747.32 1082.4921875 -748 1082.4921875 Z M-450 1247.4921875 C-451.6431561 1249.26488562 -451.6431561 1249.26488562 -453.25 1251.7421875 C-456.48394457 1256.36803129 -459.79982888 1260.90581884 -463.21044922 1265.40332031 C-487.86328618 1297.9342508 -509.93871332 1332.39601979 -529 1368.4921875 C-529.49306641 1369.41805664 -529.98613281 1370.34392578 -530.49414062 1371.29785156 C-537.62274097 1384.69028622 -544.43364593 1398.21994348 -550.828125 1411.97949219 C-551.61413042 1413.6648188 -552.41648055 1415.34261179 -553.234375 1417.01269531 C-553.61078125 1417.80256836 -553.9871875 1418.59244141 -554.375 1419.40625 C-554.71273438 1420.09928223 -555.05046875 1420.79231445 -555.3984375 1421.50634766 C-556.13464319 1423.93666303 -555.93016932 1425.14691489 -555 1427.4921875 C-552.66691775 1429.70711476 -552.66691775 1429.70711476 -549.625 1431.8671875 C-549.05048096 1432.29435059 -548.47596191 1432.72151367 -547.8840332 1433.16162109 C-546.61068056 1434.10629639 -545.3338781 1435.04633409 -544.05419922 1435.98242188 C-541.94048102 1437.5359319 -539.84624586 1439.11314943 -537.75390625 1440.6953125 C-470.5275225 1491.25417928 -394.47760853 1527.71812361 -314.6328125 1553.32519531 C-312.3937431 1554.04446626 -310.15841407 1554.77566062 -307.9296875 1555.52636719 C-306.61871094 1555.9541748 -306.61871094 1555.9541748 -305.28125 1556.390625 C-304.56001953 1556.63216309 -303.83878906 1556.87370117 -303.09570312 1557.12255859 C-300.51029216 1557.57855955 -298.54457821 1557.05405455 -296 1556.4921875 C-294.74082235 1552.65366652 -293.48172828 1548.81511813 -292.22265625 1544.9765625 C-291.82431076 1543.76215485 -291.42596527 1542.54774719 -291.01554871 1541.29653931 C-288.79216206 1534.51787115 -286.56968511 1527.73890605 -284.34863281 1520.95947266 C-283.42645844 1518.1448482 -282.50424993 1515.33023494 -281.58203125 1512.515625 C-281.35025555 1511.80820286 -281.11847984 1511.10078072 -280.87968063 1510.37192154 C-277.96718409 1501.48317026 -275.04828705 1492.59656646 -272.12034607 1483.71289062 C-270.53519872 1478.90186342 -268.95334774 1474.08975615 -267.37203979 1469.27746582 C-266.62469877 1467.00603042 -265.87577959 1464.73511365 -265.12527466 1462.46472168 C-264.08472157 1459.31632349 -263.04955398 1456.16620358 -262.015625 1453.015625 C-261.7072319 1452.08722809 -261.39883881 1451.15883118 -261.08110046 1450.20230103 C-260.66632195 1448.9330629 -260.66632195 1448.9330629 -260.24316406 1447.63818359 C-260.00148499 1446.90505951 -259.75980591 1446.17193542 -259.51080322 1445.41659546 C-258.87172494 1443.34076311 -258.87172494 1443.34076311 -259 1440.4921875 C-147.79 1440.8221875 -36.58 1441.1521875 78 1441.4921875 C86.66189182 1467.47786296 95.29016238 1493.45700232 103.74609375 1519.5078125 C108.08792148 1532.86134491 112.52907594 1546.18138377 117 1559.4921875 C122.39441895 1558.93700038 127.35359353 1557.97113328 132.5234375 1556.3046875 C133.56531975 1555.97762314 133.56531975 1555.97762314 134.62825012 1555.64395142 C136.87969601 1554.9344073 139.12749743 1554.21411708 141.375 1553.4921875 C142.9548163 1552.98871404 144.53465049 1552.48529672 146.11450195 1551.98193359 C150.74801117 1550.50065337 155.37506191 1548.99998854 160 1547.4921875 C161.20736816 1547.0993457 162.41473633 1546.70650391 163.65869141 1546.30175781 C189.46952211 1537.82678779 214.61644169 1527.4426015 239.16748047 1515.83056641 C242.0452905 1514.47078752 244.93040475 1513.12744883 247.81640625 1511.78515625 C261.17346911 1505.53324804 274.17131214 1498.76439567 287 1491.4921875 C288.63533691 1490.56841309 288.63533691 1490.56841309 290.30371094 1489.62597656 C304.49674393 1481.56874393 318.36814452 1473.12671194 331.9375 1464.0546875 C332.8500354 1463.44475952 332.8500354 1463.44475952 333.78100586 1462.82250977 C346.80164569 1454.09427181 359.49581258 1444.94417169 372 1435.4921875 C374.24859333 1433.80280955 376.499277 1432.11622659 378.75 1430.4296875 C379.75546875 1429.67558594 380.7609375 1428.92148438 381.796875 1428.14453125 C382.88742187 1427.32662109 382.88742187 1427.32662109 384 1426.4921875 C381.4858664 1417.97415275 377.65160969 1410.18605267 373.75 1402.2421875 C373.22128296 1401.16055328 373.22128296 1401.16055328 372.68188477 1400.05706787 C370.14054661 1394.85914881 367.57747799 1389.67227374 365 1384.4921875 C364.50608765 1383.49922668 364.50608765 1383.49922668 364.00219727 1382.48620605 C341.14535097 1336.62446938 313.14744377 1293.52554393 281.41943359 1253.31298828 C279.92109621 1251.39097242 278.45658072 1249.44597941 277 1247.4921875 C275.824375 1247.7603125 274.64875 1248.0284375 273.4375 1248.3046875 C185.45184187 1267.75961578 93.90843184 1276.45311412 4 1280.4921875 C3.11217583 1280.5325305 2.22435165 1280.5728735 1.30962372 1280.61443901 C-15.63803248 1281.36921239 -32.55620378 1281.66897536 -49.51953125 1281.6953125 C-50.78758795 1281.69813988 -52.05564465 1281.70096725 -53.3621273 1281.70388031 C-59.41860166 1281.71723502 -65.4750577 1281.72716976 -71.53154546 1281.7310822 C-77.6370679 1281.73505749 -83.74243132 1281.74708743 -89.84790039 1281.7734375 C-178.73455686 1282.14218684 -267.30804352 1275.65131619 -444.24975586 1248.00341797 C-447.02535329 1247.40081005 -447.02535329 1247.40081005 -450 1247.4921875 Z " fill="#000000" transform="translate(1850,482.5078125)"/>
<path d="M0 0 C35.49287862 16.19781135 69.17713423 36.46073911 101 59 C101.72670898 59.5141748 102.45341797 60.02834961 103.20214844 60.55810547 C113.35829944 67.76702374 123.29648434 75.19343228 133 83 C133.63115723 83.50499023 134.26231445 84.00998047 134.91259766 84.53027344 C142.47993576 90.58936406 149.95949801 96.74453785 157.3125 103.0625 C158.2550061 103.8666333 158.2550061 103.8666333 159.21655273 104.68701172 C159.80122314 105.19377441 160.38589355 105.70053711 160.98828125 106.22265625 C161.49915283 106.66359619 162.01002441 107.10453613 162.53637695 107.55883789 C166.92652304 111.88161226 166.92652304 111.88161226 167.1733551 115.6386261 C167.07820114 116.64773544 166.98304718 117.65684479 166.88500977 118.6965332 C166.78378311 119.85683548 166.68255646 121.01713776 166.57826233 122.21260071 C166.45059982 123.47920029 166.32293732 124.74579987 166.19140625 126.05078125 C166.06774019 127.39551459 165.94553665 128.74038312 165.82469177 130.08537292 C165.49276897 133.73269774 165.14022513 137.37777049 164.78405762 141.02279663 C164.41095497 144.87865319 164.05718427 148.7362849 163.70117188 152.59375 C162.96416656 160.54285254 162.20497874 168.48971369 161.43927002 176.43609619 C161.02642679 180.7206008 160.61756928 185.0054755 160.21044922 189.29052734 C160.08629639 190.5969519 159.96214355 191.90337646 159.83422852 193.24938965 C159.65138306 195.17361755 159.65138306 195.17361755 159.46484375 197.13671875 C158.7320555 204.8377939 157.9968274 212.53861775 157.25439453 220.23876953 C155.31112219 240.43754208 153.51085274 260.64690551 151.74785233 280.86206436 C150.06572546 300.14621365 148.32110689 319.42173848 146.4375 338.6875 C144.68893732 356.57498544 143.05405199 374.46955944 141.5 392.375 C138.20514408 430.29774104 134.63936029 468.19424917 131.08253098 506.09311676 C130.59664803 511.27040749 130.11080668 516.44770212 129.625 521.625 C129.52790741 522.65972694 129.43081482 523.69445389 129.33078003 524.76053619 C126.62004557 553.65126976 123.91539198 582.54254315 121.25 611.4375 C121.14213984 612.60632532 121.14213984 612.60632532 121.03210068 613.79876328 C119.21323162 633.51467991 117.44406112 653.23401433 115.7388916 672.96014404 C114.84199918 683.30819022 113.92362982 693.65431111 113 704 C112.88440735 705.30094604 112.7688147 706.60189209 112.64971924 707.94226074 C111.97333465 715.544201 111.28339036 723.14469009 110.56786633 730.74305439 C110.25583371 734.05799935 109.95007494 737.3731673 109.65475464 740.68966675 C106.69199133 773.84409204 98.40213682 802.34349111 78 829 C77.28070312 829.94488281 76.56140625 830.88976563 75.8203125 831.86328125 C55.71739222 857.30488915 30.47038347 871.57859528 -1.5 876.875 C-3.00214915 877.13026704 -4.50418102 877.38622501 -6.00610352 877.64282227 C-9.1283634 878.17457433 -12.25154601 878.70039468 -15.37548828 879.22216797 C-19.03805356 879.83534985 -22.69701009 880.46703409 -26.35473633 881.10838318 C-92.83647734 892.75781509 -160.35997524 900.27063553 -227.76513672 903.7734375 C-230.66885053 903.92532329 -233.57102355 904.09370773 -236.47314453 904.2734375 C-299.48371991 908.13500845 -363.50534171 907.61682921 -426.52502441 904.13604736 C-428.91066021 904.00491093 -431.29653432 903.88002657 -433.68261719 903.75732422 C-442.43531928 903.30332926 -451.17882002 902.75733669 -459.92199707 902.1439209 C-462.11927882 901.99173884 -464.31689637 901.84542122 -466.51464844 901.70019531 C-491.99836706 900.00884262 -517.35362903 897.50757771 -542.72607422 894.60107422 C-546.72598609 894.14321108 -550.72712158 893.69859972 -554.72949219 893.26281738 C-587.21808298 889.71864203 -619.51168453 884.63834094 -651.75 879.3125 C-653.01481201 879.10504654 -653.01481201 879.10504654 -654.30517578 878.8934021 C-663.28688392 877.41468738 -672.23365776 875.81126566 -681.1484375 873.96875 C-681.90614441 873.81436966 -682.66385132 873.65998932 -683.44451904 873.50093079 C-709.68502504 867.94556549 -734.67462371 853.13358209 -749.87329102 830.63769531 C-751.6821286 827.80783456 -753.35372609 824.92859884 -755 822 C-755.56203125 821.00355469 -756.1240625 820.00710938 -756.703125 818.98046875 C-760.76602321 811.31636532 -763.54971003 803.29418312 -766 795 C-766.21543457 794.27393555 -766.43086914 793.54787109 -766.65283203 792.79980469 C-773.04953506 770.85614793 -774.8351141 748.42485146 -776.7477417 725.73974991 C-777.07097092 721.92461976 -777.40188652 718.11015724 -777.73242188 714.2956543 C-778.12872852 709.71809944 -778.52467509 705.14051681 -778.91757202 700.56266785 C-779.91199095 688.97621135 -780.93983975 677.39312587 -782 665.8125 C-782.1535691 664.12955772 -782.3071335 662.446615 -782.46069336 660.76367188 C-784.15682559 642.20395092 -785.87707294 623.64642008 -787.59268188 605.08849049 C-789.0743666 589.0601257 -790.54803272 573.03108862 -792 557 C-793.59031551 539.45706028 -795.19624523 521.91556814 -796.8125 504.375 C-796.8753783 503.69235329 -796.93825661 503.00970657 -797.00304031 502.3063736 C-798.54327036 485.58737685 -800.10147746 468.87022671 -801.6953125 452.15625 C-801.83928448 450.64582367 -801.98325114 449.13539683 -802.12721252 447.62496948 C-802.19881057 446.87382433 -802.27040861 446.12267918 -802.34417629 445.34877205 C-802.708718 441.52419093 -803.07319448 437.69960362 -803.4375 433.875 C-803.51004879 433.11339821 -803.58259758 432.35179642 -803.65734482 431.56711578 C-806.31820332 403.61982677 -808.83017981 375.66071409 -811.28949165 347.69503689 C-811.64984664 343.59745674 -812.01037387 339.49989179 -812.37109375 335.40234375 C-812.44103168 334.60776575 -812.51096962 333.81318775 -812.58302689 332.99453163 C-814.37910989 312.60255685 -816.27432823 292.22000074 -818.17793274 271.83781433 C-819.11537369 261.7892963 -820.02803785 251.73858251 -820.9375 241.6875 C-822.4106585 225.41523118 -823.90652279 209.145107 -825.41118908 192.8757267 C-825.86642661 187.95117777 -826.31930383 183.02641536 -826.77124023 178.1015625 C-827.02440494 175.34503627 -827.27775886 172.58852748 -827.53125 169.83203125 C-827.59334719 169.15658894 -827.65544437 168.48114662 -827.71942329 167.78523636 C-828.4655019 159.6787321 -829.22956228 151.57423777 -830.0234375 143.47225952 C-830.42890894 139.32904142 -830.82647438 135.18508442 -831.22314453 131.04101562 C-831.40603439 129.15599214 -831.59313042 127.27137146 -831.78466797 125.38720703 C-832.04391696 122.83584577 -832.28919146 120.28350894 -832.53125 117.73046875 C-832.61000366 116.99519455 -832.68875732 116.25992035 -832.76989746 115.50236511 C-833.11086372 111.7449091 -833.20883431 109.14760057 -831 106 C-791.81397146 65.89375161 -738.39103395 34.67452237 -689 9 C-688.13197754 8.5467334 -687.26395508 8.0934668 -686.36962891 7.62646484 C-684.10566281 6.44902154 -681.83649478 5.2829351 -679.5625 4.125 C-678.9240918 3.79685303 -678.28568359 3.46870605 -677.62792969 3.13061523 C-674.86162168 1.75016421 -673.14116433 1 -670 1 C-664.74967994 13.88659471 -659.78330413 26.84718359 -655.07333374 39.94064331 C-653.33505712 44.77174347 -651.58481144 49.59850949 -649.8359375 54.42578125 C-649.49731186 55.36124283 -649.15868622 56.29670441 -648.80979919 57.26051331 C-644.09246936 70.28242502 -639.20063291 83.23647354 -634.26171875 96.17578125 C-633.29882323 98.70027123 -632.33664306 101.22503267 -631.375 103.75 C-631.02001938 104.6817807 -631.02001938 104.6817807 -630.65786743 105.63238525 C-627.49274318 113.95007852 -624.44842555 122.29625725 -621.54882812 130.7097168 C-618.71092902 138.91374923 -615.64320241 147.0271289 -612.578125 155.1484375 C-610.67670023 160.18945891 -608.79399425 165.2371094 -606.921875 170.2890625 C-606.65429382 171.0111087 -606.38671265 171.73315491 -606.11102295 172.4770813 C-605.56066486 173.96246713 -605.01035204 175.44786974 -604.46008301 176.93328857 C-600.06816172 188.78877966 -595.63350275 200.62585115 -591.125 212.4375 C-587.80197212 221.15014469 -584.58865055 229.88503097 -581.55224609 238.70141602 C-579.03852867 245.97276359 -576.34076422 253.16958663 -573.61889648 260.36523438 C-571.46311072 266.0729252 -569.33926827 271.79070879 -567.26171875 277.52734375 C-559.3669116 299.32389145 -550.89775719 319.88496347 -539.57666016 340.16845703 C-538.13391979 342.75949183 -536.70930723 345.35931042 -535.29296875 347.96484375 C-527.56100946 362.14485211 -519.60658023 375.7523365 -509 388 C-508.07334176 389.11929327 -507.14897952 390.24049019 -506.2265625 391.36328125 C-472.02347601 432.67660525 -420.98277064 457.18162417 -368.04785156 462.74316406 C-361.1178452 463.32714089 -354.16507988 463.53993654 -347.21411133 463.70996094 C-346.15732178 463.73606445 -345.10053223 463.76216797 -344.01171875 463.7890625 C-343.06772217 463.80662598 -342.12372559 463.82418945 -341.15112305 463.84228516 C-339 464 -339 464 -338 465 C-336.43102305 464.76894449 -334.86259345 464.53381004 -333.29638672 464.28466797 C-328.4149999 463.67955453 -323.47497694 463.70221979 -318.5625 463.5625 C-302.25737907 462.99810937 -286.84263836 460.84812388 -271 457 C-270.04996094 456.77570313 -269.09992187 456.55140625 -268.12109375 456.3203125 C-252.67308665 452.40391633 -237.98487764 446.58597079 -224 439 C-223.33516602 438.64679688 -222.67033203 438.29359375 -221.98535156 437.9296875 C-195.29359149 423.72134035 -171.72355294 403.55817165 -154 379 C-153.21882813 377.93652344 -152.43765625 376.87304688 -151.6328125 375.77734375 C-145.10469944 366.59147132 -139.92002151 356.6475047 -134.68652344 346.69116211 C-131.2772435 340.21078427 -127.77116677 333.81760832 -124.03051758 327.52026367 C-118.50425298 318.19463708 -114.3945393 309.01687933 -110.94433594 298.75830078 C-109.0774508 293.30533587 -107.05508823 287.9079904 -105.0625 282.5 C-104.60123821 281.24243933 -104.14022421 279.98478775 -103.67944336 278.72705078 C-99.48572656 267.28505668 -95.2479074 255.8594709 -91 244.4375 C-90.65688782 243.51484344 -90.31377563 242.59218689 -89.96026611 241.64157104 C-85.66521068 230.09745503 -81.32926737 218.57014052 -76.9375 207.0625 C-73.67512128 198.51224535 -70.52923849 189.93739628 -67.54711914 181.28564453 C-64.71103268 173.08581895 -61.64453643 164.97676646 -58.58203125 156.859375 C-55.54716266 148.81261038 -52.55471061 140.75019801 -49.5625 132.6875 C-49.283992 131.93725555 -49.00548401 131.18701111 -48.71853638 130.41403198 C-44.27005986 118.4305288 -39.82760772 106.44479494 -35.390625 94.45703125 C-33.77779168 90.09960964 -32.16307171 85.74289395 -30.546875 81.38671875 C-29.71866268 79.15367822 -28.89053811 76.92060514 -28.0625 74.6875 C-27.65161133 73.57938965 -27.24072266 72.4712793 -26.81738281 71.32958984 C-24.17376924 64.1918332 -21.5522133 57.04627677 -18.94067383 49.89672852 C-14.65122964 38.15566834 -10.30705075 26.43794626 -5.875 14.75 C-5.63476105 14.11564026 -5.39452209 13.48128052 -5.14700317 12.82769775 C-1.17920819 2.35841639 -1.17920819 2.35841639 0 0 Z " fill="#003D8B" transform="translate(2099,821)"/>
<path d="M0 0 C35.49287862 16.19781135 69.17713423 36.46073911 101 59 C101.72670898 59.5141748 102.45341797 60.02834961 103.20214844 60.55810547 C113.35829944 67.76702374 123.29648434 75.19343228 133 83 C133.63115723 83.50499023 134.26231445 84.00998047 134.91259766 84.53027344 C142.47993576 90.58936406 149.95949801 96.74453785 157.3125 103.0625 C158.2550061 103.8666333 158.2550061 103.8666333 159.21655273 104.68701172 C159.80122314 105.19377441 160.38589355 105.70053711 160.98828125 106.22265625 C161.49915283 106.66359619 162.01002441 107.10453613 162.53637695 107.55883789 C166.92652304 111.88161226 166.92652304 111.88161226 167.1733551 115.6386261 C167.07820114 116.64773544 166.98304718 117.65684479 166.88500977 118.6965332 C166.78378311 119.85683548 166.68255646 121.01713776 166.57826233 122.21260071 C166.45059982 123.47920029 166.32293732 124.74579987 166.19140625 126.05078125 C166.06774019 127.39551459 165.94553665 128.74038312 165.82469177 130.08537292 C165.49276897 133.73269774 165.14022513 137.37777049 164.78405762 141.02279663 C164.41095497 144.87865319 164.05718427 148.7362849 163.70117188 152.59375 C162.96416656 160.54285254 162.20497874 168.48971369 161.43927002 176.43609619 C161.02642679 180.7206008 160.61756928 185.0054755 160.21044922 189.29052734 C160.08629639 190.5969519 159.96214355 191.90337646 159.83422852 193.24938965 C159.65138306 195.17361755 159.65138306 195.17361755 159.46484375 197.13671875 C158.7320555 204.8377939 157.9968274 212.53861775 157.25439453 220.23876953 C155.31112219 240.43754208 153.51085274 260.64690551 151.74785233 280.86206436 C150.06572546 300.14621365 148.32110689 319.42173848 146.4375 338.6875 C144.68893732 356.57498544 143.05405199 374.46955944 141.5 392.375 C138.20514408 430.29774104 134.63936029 468.19424917 131.08253098 506.09311676 C130.59664803 511.27040749 130.11080668 516.44770212 129.625 521.625 C129.52790741 522.65972694 129.43081482 523.69445389 129.33078003 524.76053619 C126.62004557 553.65126976 123.91539198 582.54254315 121.25 611.4375 C121.14213984 612.60632532 121.14213984 612.60632532 121.03210068 613.79876328 C119.21323162 633.51467991 117.44406112 653.23401433 115.7388916 672.96014404 C114.84199918 683.30819022 113.92362982 693.65431111 113 704 C112.88440735 705.30094604 112.7688147 706.60189209 112.64971924 707.94226074 C111.97333465 715.544201 111.28339036 723.14469009 110.56786633 730.74305439 C110.25583371 734.05799935 109.95007494 737.3731673 109.65475464 740.68966675 C106.69199133 773.84409204 98.40213682 802.34349111 78 829 C77.28070312 829.94488281 76.56140625 830.88976563 75.8203125 831.86328125 C55.71739222 857.30488915 30.47038347 871.57859528 -1.5 876.875 C-3.00214915 877.13026704 -4.50418102 877.38622501 -6.00610352 877.64282227 C-9.1283634 878.17457433 -12.25154601 878.70039468 -15.37548828 879.22216797 C-19.03805356 879.83534985 -22.69701009 880.46703409 -26.35473633 881.10838318 C-92.83647734 892.75781509 -160.35997524 900.27063553 -227.76513672 903.7734375 C-230.66885053 903.92532329 -233.57102355 904.09370773 -236.47314453 904.2734375 C-299.48371991 908.13500845 -363.50534171 907.61682921 -426.52502441 904.13604736 C-428.91066021 904.00491093 -431.29653432 903.88002657 -433.68261719 903.75732422 C-442.43531928 903.30332926 -451.17882002 902.75733669 -459.92199707 902.1439209 C-462.11927882 901.99173884 -464.31689637 901.84542122 -466.51464844 901.70019531 C-491.99836706 900.00884262 -517.35362903 897.50757771 -542.72607422 894.60107422 C-546.72598609 894.14321108 -550.72712158 893.69859972 -554.72949219 893.26281738 C-587.21808298 889.71864203 -619.51168453 884.63834094 -651.75 879.3125 C-653.01481201 879.10504654 -653.01481201 879.10504654 -654.30517578 878.8934021 C-663.28688392 877.41468738 -672.23365776 875.81126566 -681.1484375 873.96875 C-681.90614441 873.81436966 -682.66385132 873.65998932 -683.44451904 873.50093079 C-709.68502504 867.94556549 -734.67462371 853.13358209 -749.87329102 830.63769531 C-751.6821286 827.80783456 -753.35372609 824.92859884 -755 822 C-755.56203125 821.00355469 -756.1240625 820.00710938 -756.703125 818.98046875 C-760.76602321 811.31636532 -763.54971003 803.29418312 -766 795 C-766.21543457 794.27393555 -766.43086914 793.54787109 -766.65283203 792.79980469 C-773.04953506 770.85614793 -774.8351141 748.42485146 -776.7477417 725.73974991 C-777.07097092 721.92461976 -777.40188652 718.11015724 -777.73242188 714.2956543 C-778.12872852 709.71809944 -778.52467509 705.14051681 -778.91757202 700.56266785 C-779.91199095 688.97621135 -780.93983975 677.39312587 -782 665.8125 C-782.1535691 664.12955772 -782.3071335 662.446615 -782.46069336 660.76367188 C-784.15682559 642.20395092 -785.87707294 623.64642008 -787.59268188 605.08849049 C-789.0743666 589.0601257 -790.54803272 573.03108862 -792 557 C-793.59031551 539.45706028 -795.19624523 521.91556814 -796.8125 504.375 C-796.8753783 503.69235329 -796.93825661 503.00970657 -797.00304031 502.3063736 C-798.54327036 485.58737685 -800.10147746 468.87022671 -801.6953125 452.15625 C-801.83928448 450.64582367 -801.98325114 449.13539683 -802.12721252 447.62496948 C-802.19881057 446.87382433 -802.27040861 446.12267918 -802.34417629 445.34877205 C-802.708718 441.52419093 -803.07319448 437.69960362 -803.4375 433.875 C-803.51004879 433.11339821 -803.58259758 432.35179642 -803.65734482 431.56711578 C-806.31820332 403.61982677 -808.83017981 375.66071409 -811.28949165 347.69503689 C-811.64984664 343.59745674 -812.01037387 339.49989179 -812.37109375 335.40234375 C-812.44103168 334.60776575 -812.51096962 333.81318775 -812.58302689 332.99453163 C-814.37910989 312.60255685 -816.27432823 292.22000074 -818.17793274 271.83781433 C-819.11537369 261.7892963 -820.02803785 251.73858251 -820.9375 241.6875 C-822.4106585 225.41523118 -823.90652279 209.145107 -825.41118908 192.8757267 C-825.86642661 187.95117777 -826.31930383 183.02641536 -826.77124023 178.1015625 C-827.02440494 175.34503627 -827.27775886 172.58852748 -827.53125 169.83203125 C-827.59334719 169.15658894 -827.65544437 168.48114662 -827.71942329 167.78523636 C-828.4655019 159.6787321 -829.22956228 151.57423777 -830.0234375 143.47225952 C-830.42890894 139.32904142 -830.82647438 135.18508442 -831.22314453 131.04101562 C-831.40603439 129.15599214 -831.59313042 127.27137146 -831.78466797 125.38720703 C-832.04391696 122.83584577 -832.28919146 120.28350894 -832.53125 117.73046875 C-832.61000366 116.99519455 -832.68875732 116.25992035 -832.76989746 115.50236511 C-833.11086372 111.7449091 -833.20883431 109.14760057 -831 106 C-791.81397146 65.89375161 -738.39103395 34.67452237 -689 9 C-688.13197754 8.5467334 -687.26395508 8.0934668 -686.36962891 7.62646484 C-684.10566281 6.44902154 -681.83649478 5.2829351 -679.5625 4.125 C-678.9240918 3.79685303 -678.28568359 3.46870605 -677.62792969 3.13061523 C-674.86162168 1.75016421 -673.14116433 1 -670 1 C-664.74967994 13.88659471 -659.78330413 26.84718359 -655.07333374 39.94064331 C-653.33505712 44.77174347 -651.58481144 49.59850949 -649.8359375 54.42578125 C-649.49731186 55.36124283 -649.15868622 56.29670441 -648.80979919 57.26051331 C-644.09246936 70.28242502 -639.20063291 83.23647354 -634.26171875 96.17578125 C-633.29882323 98.70027123 -632.33664306 101.22503267 -631.375 103.75 C-631.02001938 104.6817807 -631.02001938 104.6817807 -630.65786743 105.63238525 C-627.49274318 113.95007852 -624.44842555 122.29625725 -621.54882812 130.7097168 C-618.71092902 138.91374923 -615.64320241 147.0271289 -612.578125 155.1484375 C-610.67670023 160.18945891 -608.79399425 165.2371094 -606.921875 170.2890625 C-606.65429382 171.0111087 -606.38671265 171.73315491 -606.11102295 172.4770813 C-605.56066486 173.96246713 -605.01035204 175.44786974 -604.46008301 176.93328857 C-600.06816172 188.78877966 -595.63350275 200.62585115 -591.125 212.4375 C-587.80197212 221.15014469 -584.58865055 229.88503097 -581.55224609 238.70141602 C-579.03852867 245.97276359 -576.34076422 253.16958663 -573.61889648 260.36523438 C-571.46311072 266.0729252 -569.33926827 271.79070879 -567.26171875 277.52734375 C-559.3669116 299.32389145 -550.89775719 319.88496347 -539.57666016 340.16845703 C-538.13391979 342.75949183 -536.70930723 345.35931042 -535.29296875 347.96484375 C-527.56100946 362.14485211 -519.60658023 375.7523365 -509 388 C-508.07334176 389.11929327 -507.14897952 390.24049019 -506.2265625 391.36328125 C-472.02347601 432.67660525 -420.98277064 457.18162417 -368.04785156 462.74316406 C-361.1178452 463.32714089 -354.16507988 463.53993654 -347.21411133 463.70996094 C-346.15732178 463.73606445 -345.10053223 463.76216797 -344.01171875 463.7890625 C-343.06772217 463.80662598 -342.12372559 463.82418945 -341.15112305 463.84228516 C-339 464 -339 464 -338 465 C-336.43102305 464.76894449 -334.86259345 464.53381004 -333.29638672 464.28466797 C-328.4149999 463.67955453 -323.47497694 463.70221979 -318.5625 463.5625 C-302.25737907 462.99810937 -286.84263836 460.84812388 -271 457 C-270.04996094 456.77570313 -269.09992187 456.55140625 -268.12109375 456.3203125 C-252.67308665 452.40391633 -237.98487764 446.58597079 -224 439 C-223.33516602 438.64679688 -222.67033203 438.29359375 -221.98535156 437.9296875 C-195.29359149 423.72134035 -171.72355294 403.55817165 -154 379 C-153.21882813 377.93652344 -152.43765625 376.87304688 -151.6328125 375.77734375 C-145.10469944 366.59147132 -139.92002151 356.6475047 -134.68652344 346.69116211 C-131.2772435 340.21078427 -127.77116677 333.81760832 -124.03051758 327.52026367 C-118.50425298 318.19463708 -114.3945393 309.01687933 -110.94433594 298.75830078 C-109.0774508 293.30533587 -107.05508823 287.9079904 -105.0625 282.5 C-104.60123821 281.24243933 -104.14022421 279.98478775 -103.67944336 278.72705078 C-99.48572656 267.28505668 -95.2479074 255.8594709 -91 244.4375 C-90.65688782 243.51484344 -90.31377563 242.59218689 -89.96026611 241.64157104 C-85.66521068 230.09745503 -81.32926737 218.57014052 -76.9375 207.0625 C-73.67512128 198.51224535 -70.52923849 189.93739628 -67.54711914 181.28564453 C-64.71103268 173.08581895 -61.64453643 164.97676646 -58.58203125 156.859375 C-55.54716266 148.81261038 -52.55471061 140.75019801 -49.5625 132.6875 C-49.283992 131.93725555 -49.00548401 131.18701111 -48.71853638 130.41403198 C-44.27005986 118.4305288 -39.82760772 106.44479494 -35.390625 94.45703125 C-33.77779168 90.09960964 -32.16307171 85.74289395 -30.546875 81.38671875 C-29.71866268 79.15367822 -28.89053811 76.92060514 -28.0625 74.6875 C-27.65161133 73.57938965 -27.24072266 72.4712793 -26.81738281 71.32958984 C-24.17376924 64.1918332 -21.5522133 57.04627677 -18.94067383 49.89672852 C-14.65122964 38.15566834 -10.30705075 26.43794626 -5.875 14.75 C-5.63476105 14.11564026 -5.39452209 13.48128052 -5.14700317 12.82769775 C-1.17920819 2.35841639 -1.17920819 2.35841639 0 0 Z M2.375 180.5 C-0.44879276 183.92401911 -2.1767218 187.34279685 -3.890625 191.42944336 C-4.27708694 192.34998835 -4.27708694 192.34998835 -4.6713562 193.28913021 C-7.32588961 199.67184405 -9.7455744 206.13929632 -12.125 212.62890625 C-12.59380576 213.89890795 -13.06297248 215.16877646 -13.5324707 216.43852234 C-14.51822298 219.10621018 -15.5019297 221.77463844 -16.48388672 224.44372559 C-18.78807283 230.70605912 -21.10387693 236.9640997 -23.41882324 243.2224617 C-24.18474899 245.29334317 -24.95029188 247.36436592 -25.71582031 249.43539429 C-29.76659801 260.39026241 -33.86009718 271.32849511 -38 282.25 C-38.26474121 282.94948761 -38.52948242 283.64897522 -38.80224609 284.36965942 C-41.41042269 291.25788103 -44.04835444 298.13330303 -46.7310791 304.99285889 C-49.45260673 311.95431756 -52.10372689 318.91847649 -54.5 326 C-56.92622802 333.0419455 -59.49099439 340.00785113 -62.2409668 346.9296875 C-63.93383858 351.2044564 -65.54827952 355.49622369 -67.08984375 359.828125 C-77.70502785 389.48117989 -95.21166488 417.52984506 -116.76953125 440.59375 C-118.63270086 442.60375435 -120.42635682 444.64701752 -122.21484375 446.72265625 C-132.12768102 458.08450657 -143.00099664 468.8579022 -155 478 C-156.2602104 478.99861869 -157.51923081 479.99874011 -158.77734375 481 C-212.94238122 523.7393504 -281.29571348 545.59923427 -350.203125 538.23828125 C-356.84833434 537.39413289 -363.4264016 536.28242993 -370 535 C-370.80260254 534.85046875 -371.60520508 534.7009375 -372.43212891 534.546875 C-392.76830653 530.66904285 -412.47011971 523.09245939 -431 514 C-431.86222168 513.57847656 -432.72444336 513.15695312 -433.61279297 512.72265625 C-454.24521005 502.52932723 -472.88688397 489.77902456 -490.5390625 475.03515625 C-491.98395258 473.84025509 -493.45020058 472.66907567 -494.9609375 471.55859375 C-501.0177742 466.96800485 -504.28018932 460.48656641 -508 454 C-509.10489273 452.09471792 -510.21041381 450.18980016 -511.31640625 448.28515625 C-514.22478823 443.26595178 -517.11946373 438.23901177 -520.00796509 433.20834351 C-523.49620294 427.13363458 -526.99784514 421.06669236 -530.5 415 C-534.26376716 408.47774118 -538.02644628 401.95486227 -541.78515625 395.4296875 C-547.83055159 384.93767906 -553.89110219 374.45518324 -560 364 C-566.74701194 352.45270484 -573.43339318 340.87097973 -580.10888672 329.28222656 C-583.23680148 323.85340058 -586.36858448 318.42680719 -589.5 313 C-590.75001879 310.83334417 -592.00001878 308.6666775 -593.25 306.5 C-593.86875 305.4275 -594.4875 304.355 -595.125 303.25 C-600.75 293.5 -600.75 293.5 -602.62524414 290.24951172 C-603.87435518 288.08442929 -605.12354129 285.91939018 -606.37280273 283.75439453 C-609.51202309 278.31384294 -612.64990563 272.87252784 -615.78515625 267.4296875 C-622.49030382 255.79260445 -629.20610621 244.16215607 -636.00097656 232.57714844 C-638.71196332 227.95070664 -641.39605837 223.31438286 -644.00390625 218.62890625 C-651.7404216 204.78349948 -659.16839806 194.00567774 -674.25 187.625 C-687.24603686 185.45899386 -697.82648154 187.54690151 -709.3125 193.5 C-710.17480225 193.93924805 -711.03710449 194.37849609 -711.92553711 194.83105469 C-714.62272784 196.20995143 -717.31242603 197.60246154 -720 199 C-720.85787109 199.44537109 -721.71574219 199.89074219 -722.59960938 200.34960938 C-727.40227248 202.84876612 -732.19000717 205.37455948 -736.96728516 207.921875 C-738.76741882 208.87664203 -740.57645074 209.81459046 -742.38671875 210.75 C-753.54054023 216.59320252 -760.92877196 223.64544641 -765.35345459 235.70922852 C-766.48179301 239.70703817 -766.44044689 243.60911073 -766.375 247.73828125 C-766.36629883 248.68810379 -766.35759766 249.63792633 -766.34863281 250.61653137 C-766.1266696 261.90817076 -764.80843159 273.08254049 -763.46685791 284.2862854 C-762.98187805 288.3389328 -762.51157643 292.39304355 -762.04638672 296.44799805 C-761.9657366 297.15063561 -761.88508648 297.85327318 -761.80199242 298.5772028 C-761.63669984 300.0173645 -761.47145202 301.45753134 -761.30624771 302.89770317 C-761.05289388 305.10153961 -760.7979612 307.30518874 -760.54269409 309.50880432 C-758.80350885 324.54908332 -757.20482049 339.603599 -755.61618042 354.66040039 C-754.78388343 362.54752682 -753.94529304 370.43398446 -753.10546875 378.3203125 C-753.02055994 379.11780663 -752.93565113 379.91530075 -752.84816933 380.73696136 C-750.75418281 400.39183495 -748.59868054 420.03991969 -746.4375 439.6875 C-746.24580369 441.43088728 -746.05411261 443.17427514 -745.86242676 444.91766357 C-744.4130684 458.09807506 -742.96164549 471.27825924 -741.50848389 484.45825195 C-740.46185578 493.95110091 -739.41682583 503.44412262 -738.375 512.9375 C-738.23407928 514.22142639 -738.09315857 515.50535278 -737.94796753 516.82818604 C-735.65291097 537.76713515 -733.4545169 558.71529466 -731.28173828 579.66717529 C-729.12779399 600.43209168 -726.90824465 621.18857037 -724.59772491 641.93667221 C-724.37607451 643.92784723 -724.15492446 645.91907792 -723.93377686 647.91030884 C-722.49357155 660.86863016 -721.03233115 673.82360606 -719.484375 686.76953125 C-719.02924998 690.59611963 -718.57623263 694.42295075 -718.125 698.25 C-717.96618851 699.59198959 -717.96618851 699.59198959 -717.8041687 700.96109009 C-716.41832026 712.78653334 -715.61787421 724.44539282 -715.37036133 736.35571289 C-714.70180429 761.40953648 -704.55435021 784.60610748 -689 804 C-688.45988281 804.70640625 -687.91976563 805.4128125 -687.36328125 806.140625 C-662.28185013 837.22390991 -619.55949661 842.51065116 -582.70391846 847.27656555 C-580.46677815 847.56681017 -578.23015502 847.86076833 -575.99365234 848.15588379 C-555.71573668 850.83060503 -535.43266218 853.38139435 -515.06916809 855.31871033 C-509.85622266 855.81472932 -504.64726174 856.34290612 -499.43894958 856.88539124 C-475.63099856 859.36377191 -451.81521114 861.50131634 -427.9375 863.1875 C-426.29193619 863.30544922 -426.29193619 863.30544922 -424.61312866 863.42578125 C-417.09865953 863.95944501 -409.5819203 864.43975474 -402.06135178 864.87917709 C-400.64425788 864.96223783 -399.22721998 865.04625762 -397.81023026 865.13107681 C-368.21554196 866.89947759 -338.6814135 867.3654192 -309.0374794 867.31785583 C-305.50605411 867.312413 -301.97463553 867.3100474 -298.44320679 867.3079834 C-263.91237864 867.27655321 -229.53267351 866.80461842 -195.08483887 864.22784424 C-191.93774447 863.99540185 -188.78993227 863.7770182 -185.64160156 863.56201172 C-149.22619066 861.05434171 -112.60807913 857.30500518 -77 849 C-75.93394531 848.75169434 -74.86789062 848.50338867 -73.76953125 848.24755859 C-38.70602268 839.92455678 -3.44039588 828.23360405 24 804 C24.97453125 803.15824219 25.9490625 802.31648438 26.953125 801.44921875 C67.76536029 765.62864387 82.47761365 712.52839262 85.90895081 660.17961121 C86.14221912 656.55022805 86.37123375 652.92061604 86.59728038 649.2907759 C86.97608447 643.21939527 87.36758541 637.14884069 87.75945077 631.07829105 C87.85062134 629.66565695 87.94166154 628.25301444 88.03257378 626.84036369 C89.02914439 611.3621668 90.10862573 595.8902397 91.21069336 580.41918945 C91.30615837 579.0775384 91.40161736 577.73588692 91.49707043 576.39423501 C92.03817688 568.79212193 92.5816403 561.19017869 93.12621149 553.58831309 C93.49431004 548.44941369 93.86162025 543.3104584 94.2284565 538.17146873 C94.30873897 537.04679791 94.30873897 537.04679791 94.39064332 535.89940646 C94.49959053 534.37311845 94.60853573 532.8468303 94.71747894 531.320542 C95.66749683 518.01184594 96.61926223 504.70327546 97.57202148 491.39477539 C98.48210941 478.68232134 99.39065973 465.96975855 100.29760742 453.25708008 C101.30113255 439.19069822 102.30561927 425.12438557 103.31157976 411.05817765 C103.42029635 409.53798851 103.52901235 408.01779932 103.63772774 406.49761009 C103.69112643 405.75094047 103.74452513 405.00427084 103.79954196 404.23497486 C104.16341441 399.14620514 104.52668206 394.05739247 104.88969231 388.96856117 C107.64658962 350.32791057 110.50995276 311.69641422 113.46054268 273.07008934 C114.1859383 263.57065589 114.90522523 254.07075978 115.62266243 244.57072222 C115.75113105 242.87333507 115.88019517 241.17599289 116.00980389 239.47869241 C116.07228845 238.65930991 116.13477301 237.83992741 116.19915104 236.99571514 C116.25430852 236.27490188 116.309466 235.55408862 116.36629492 234.81143254 C116.88202941 227.78141571 117.11652896 220.77156672 117.14453125 213.72265625 C117.14951126 212.93302994 117.15449127 212.14340363 117.15962219 211.32984924 C117.12021719 200.21651239 113.50235314 192.0482215 106.03125 183.8359375 C95.0944205 173.25574375 81.83966747 171.80728924 67.37524414 170.05932617 C64.33367865 169.69007115 61.29704305 169.29152837 58.25976562 168.88867188 C36.86817933 166.13638374 18.56263054 163.92273284 2.375 180.5 Z " fill="#1B5C98" transform="translate(2099,821)"/>
<path d="M0 0 C1.02867187 0.32871094 2.05734375 0.65742187 3.1171875 0.99609375 C29.31324829 10.07362561 47.96856527 31.77010727 60 56 C62.51841732 61.25930098 64.7998913 66.60078311 67 72 C67.37769531 72.90621094 67.75539063 73.81242187 68.14453125 74.74609375 C86.87200246 122.5720262 82.36416632 181.28304339 62.70410156 228.08496094 C47.8006107 261.84109873 25.73007275 291.27131168 -9 306 C-29.21184701 313.46349953 -50.42898236 313.35965226 -70.07495117 304.36547852 C-99.28727749 290.25157976 -117.2509076 263.14759479 -128.07446289 233.40209961 C-146.8945669 178.74359967 -141.95112768 119.10732416 -117.07519531 67.15039062 C-109.81804751 52.63609502 -100.11654733 39.77847834 -89 28 C-87.97326172 26.87658203 -87.97326172 26.87658203 -86.92578125 25.73046875 C-73.59317312 11.6585293 -56.79665443 2.46510565 -38 -2 C-37.24976563 -2.19335938 -36.49953125 -2.38671875 -35.7265625 -2.5859375 C-24.05024607 -4.35913169 -11.14067201 -3.91986608 0 0 Z " fill="#00FE98" transform="translate(2075,1285)"/>
<path d="M0 0 C0.97646484 -0.00773437 1.95292969 -0.01546875 2.95898438 -0.0234375 C9.05259191 -0.00713353 14.56346909 0.63829944 20.4375 2.25 C21.91089844 2.64058594 21.91089844 2.64058594 23.4140625 3.0390625 C36.1689567 7.06494356 47.43336578 13.37871032 57.4375 22.25 C58.37980469 23.04921875 59.32210938 23.8484375 60.29296875 24.671875 C95.43321295 55.03432923 112.07265503 103.3559528 115.97094727 148.4296875 C119.30101743 194.55050118 111.43383298 245.12988694 80.4375 281.25 C79.72207031 282.1265625 79.00664063 283.003125 78.26953125 283.90625 C64.32707033 300.36292518 43.7125811 311.99524164 22.16259766 314.51611328 C0.22866264 316.21133022 -21.69953677 308.41524442 -38.73828125 294.6796875 C-39.67027344 293.87789062 -40.60226562 293.07609375 -41.5625 292.25 C-42.08505371 291.80817383 -42.60760742 291.36634766 -43.14599609 290.91113281 C-60.7128761 275.9430886 -72.84204981 256.99227213 -82.5625 236.25 C-83.34753906 234.60837891 -83.34753906 234.60837891 -84.1484375 232.93359375 C-92.35259425 214.89747138 -96.75598689 195.7830096 -99.5625 176.25 C-99.73982666 175.09556396 -99.91715332 173.94112793 -100.09985352 172.75170898 C-101.39284182 163.89988921 -101.91504159 155.25435816 -101.875 146.3125 C-101.87284485 145.64702148 -101.8706897 144.98154297 -101.86846924 144.29589844 C-101.63350817 98.59664973 -87.77592878 54.46342878 -55.1015625 21.7890625 C-39.66612147 7.15286761 -21.10214396 -0.16781029 0 0 Z " fill="#00FE98" transform="translate(1506.5625,1285.75)"/>
<path d="M0 0 C8.62540776 6.40371182 14.12457437 15.98984656 16.0390625 26.51953125 C17.5077609 38.02433541 15.00209648 48.59889198 8.38671875 58.18359375 C-0.98075723 69.69372491 -14.3518073 73.04455387 -27.98046875 77.41186523 C-62.24456951 88.40132444 -95.00635621 103.08597799 -126.09912109 121.21923828 C-128.47991075 122.60626787 -130.86899173 123.97745297 -133.26171875 125.34375 C-177.8740412 150.97858314 -217.37751534 184.38215232 -253.6796875 220.59765625 C-254.31810577 221.23339569 -254.95652405 221.86913513 -255.61428833 222.5241394 C-262.1891336 229.07807091 -268.69939311 235.61332696 -274.6796875 242.72265625 C-275.7479581 243.94969735 -276.81828809 245.17494844 -277.890625 246.3984375 C-278.94556305 247.61045905 -280.00024641 248.82270233 -281.0546875 250.03515625 C-281.61776611 250.68033203 -282.18084473 251.32550781 -282.76098633 251.99023438 C-285.29627067 254.90919248 -287.80100394 257.83284698 -290.16796875 260.890625 C-297.6167423 270.48274014 -305.69132289 276.61899645 -317.6171875 279.41015625 C-329.56597273 280.62942005 -340.08477711 278.70514521 -350.13671875 271.80078125 C-358.32896076 265.10604584 -362.89222291 256.87251463 -365.4296875 246.72265625 C-366.65540354 232.01406376 -363.36957089 220.64861146 -353.8203125 209.25390625 C-351.04035332 206.00643749 -348.20189029 202.81257154 -345.35693359 199.62207031 C-343.30186424 197.29478653 -341.30146843 194.92490661 -339.30297852 192.54907227 C-327.48829453 178.54864161 -314.60807484 165.55960174 -301.6796875 152.59765625 C-301.09532928 152.0106192 -300.51097107 151.42358215 -299.90890503 150.8187561 C-293.67392902 144.56209399 -287.40734352 138.45376953 -280.6796875 132.72265625 C-278.90398529 131.10297808 -277.13260443 129.47853907 -275.3671875 127.84765625 C-269.96498609 122.92647278 -264.36738852 118.30763972 -258.6796875 113.72265625 C-257.44963734 112.71331531 -256.2205254 111.70283027 -254.9921875 110.69140625 C-222.89047179 84.31177266 -188.22577643 61.46201019 -151.6796875 41.72265625 C-150.84727539 41.26955078 -150.01486328 40.81644531 -149.15722656 40.34960938 C-34.33895983 -21.90588817 -34.33895983 -21.90588817 0 0 Z " fill="#000000" transform="translate(1334.6796875,483.27734375)"/>
<path d="M0 0 C21.78517733 15.94230817 42.6894917 33.0961234 62.41308594 51.52636719 C63.95550366 52.95868001 65.51008355 54.37619404 67.0703125 55.7890625 C73.66944244 61.78014534 80.06178992 67.95804218 86.375 74.25 C87.12418701 74.99459473 87.87337402 75.73918945 88.64526367 76.50634766 C92.7070912 80.57949199 96.59301317 84.74422359 100.34716797 89.10205078 C102.94210168 92.08181661 105.66417149 94.93859853 108.375 97.8125 C113.05792208 102.81771219 117.53308499 107.92305411 121.80859375 113.28515625 C123.79706253 115.74858906 125.85324631 118.13921703 127.92919922 120.52880859 C138.17588573 132.42708672 140.81460483 142.41369956 140.17919922 157.81201172 C139.33952021 168.0643323 133.43991603 175.98011693 126.125 182.75 C118.10586868 189.41742168 108.69684384 192.60629303 98.1875 192.24609375 C80.76538344 190.28610564 71.03501924 181.11182936 60.4921875 168.06640625 C47.55982326 152.15432799 33.46556304 137.39389933 19 122.875 C18.12802979 121.99835693 17.25605957 121.12171387 16.35766602 120.21850586 C11.951104 115.82293383 7.48167457 111.57103483 2.76025391 107.51513672 C0.35062283 105.44104927 -1.9773193 103.28222758 -4.3125 101.125 C-9.71480183 96.20504655 -15.28777177 91.55454998 -21 87 C-21.52432617 86.58137695 -22.04865234 86.16275391 -22.58886719 85.73144531 C-26.09504208 82.93768871 -29.62108547 80.17075652 -33.1640625 77.42382812 C-34.36130817 76.4953259 -35.55671442 75.56444553 -36.75 74.63085938 C-62.6655174 54.41328497 -90.97471681 37.32650702 -120 22 C-120.86254395 21.54270508 -121.72508789 21.08541016 -122.61376953 20.61425781 C-148.51986242 6.98153835 -176.02111107 -4.01182241 -203.8984375 -12.89453125 C-204.84315918 -13.1982666 -205.78788086 -13.50200195 -206.76123047 -13.81494141 C-208.50845504 -14.37159862 -210.25979684 -14.91560124 -212.01611328 -15.44287109 C-222.48370122 -18.75529065 -231.21824242 -25.0243228 -236.5078125 -34.78125 C-241.57025786 -45.54256242 -242.91027541 -56.73658196 -239.4375 -68.3125 C-235.38909645 -79.01796149 -227.63861816 -86.98337135 -217.375 -91.8125 C-171.71922449 -112.02401093 -37.07000108 -26.99009007 0 0 Z " fill="#000000" transform="translate(2418,571)"/>
<path d="M0 0 C0.8684204 0.00037972 1.73684079 0.00075944 2.63157696 0.00115067 C3.62981914 -0.00084038 4.62806132 -0.00283143 5.65655327 -0.00488281 C6.76645164 -0.00196997 7.87635001 0.00094287 9.01988167 0.00394398 C10.18863207 0.00308955 11.35738247 0.00223513 12.56154954 0.00135481 C15.82015493 -0.00001335 19.07872108 0.00313405 22.33732182 0.00813287 C25.84585783 0.01243412 29.35439186 0.01099118 32.86292976 0.0102306 C38.94653268 0.00970516 45.0301249 0.01285407 51.11372513 0.01846844 C59.90968945 0.0265807 68.70564858 0.02919838 77.50161623 0.03045643 C91.77100822 0.03264738 106.04039451 0.03930864 120.3097834 0.04875904 C134.17469196 0.05793205 148.03959898 0.06501343 161.90450996 0.06926686 C163.18553698 0.06966094 163.18553698 0.06966094 164.49244333 0.07006299 C168.77661707 0.07136798 173.06079081 0.0726317 177.34496456 0.07387489 C212.91063415 0.08424885 248.47629712 0.10186833 284.04196113 0.1241985 C285.00255948 2.6749189 285.96218568 5.22599806 286.92126411 7.77728993 C287.32625051 8.85221628 287.32625051 8.85221628 287.73941845 9.94885832 C289.81732623 15.47979792 291.77404821 21.04132204 293.62789863 26.65154225 C293.93106498 27.56104634 294.23423134 28.47055043 294.54658455 29.40761524 C295.50664697 32.29123522 296.46210815 35.17634977 297.41696113 38.0616985 C298.08184889 40.06457002 298.74680708 42.06741816 299.41183418 44.07024342 C302.93050581 54.68003536 306.43254601 65.2952557 309.85446113 75.9366985 C310.31441475 77.36260304 310.31441475 77.36260304 310.78366035 78.81731373 C312.39708266 83.88398476 313.8102693 88.95109278 315.04196113 94.1241985 C314.11971748 94.29548268 313.19747383 94.46676686 312.2472834 94.64324147 C308.78611069 95.28684706 305.32520768 95.93186788 301.8644709 96.57781178 C300.37401475 96.85571253 298.88345692 97.13306858 297.39279121 97.40984303 C295.23520535 97.81054788 293.07800757 98.21328963 290.92086738 98.616386 C289.62737373 98.85727955 288.33388008 99.09817311 287.00118965 99.34636647 C284.20180622 99.8798066 281.42850983 100.48901042 278.65206856 101.13079029 C273.93091113 102.19119256 269.19621932 102.89279736 264.40133613 103.52654225 C263.02053871 103.71138928 263.02053871 103.71138928 261.61184639 103.89997059 C259.65556944 104.1600631 257.69899827 104.41795114 255.74215645 104.67375904 C252.89540225 105.04809638 250.05078812 105.43624687 247.20602363 105.82537037 C214.81976377 110.15724862 182.68725809 111.60540522 150.03671211 111.4467693 C146.28432553 111.43330789 142.53205678 111.43862461 138.77965683 111.4436155 C107.90081803 111.47496279 77.46172875 110.14999757 46.79196113 106.3116985 C45.72453682 106.18069752 44.6571125 106.04969654 43.55734199 105.91472584 C18.00893053 102.77223513 -6.93116532 98.19846859 -31.95803887 92.1241985 C-31.36976881 87.09668699 -30.29054584 82.64985185 -28.65725762 77.83122975 C-28.42476815 77.13942112 -28.19227867 76.4476125 -27.95274407 75.73483998 C-27.18922817 73.46687584 -26.41737 71.20184477 -25.64553887 68.9366985 C-25.10844372 67.34576751 -24.57199598 65.75461782 -24.03616387 64.163261 C-22.91674106 60.84031265 -21.79450538 57.51833341 -20.67044121 54.1969524 C-18.16609984 46.78868413 -15.6996013 39.36781486 -13.23114067 31.94753224 C-12.47761666 29.68303389 -11.72327648 27.41880955 -10.96853691 25.15471607 C-10.73160622 24.44390385 -10.49467552 23.73309162 -10.25056511 23.00073963 C-9.79201731 21.62577711 -9.33313562 20.25092588 -8.87388664 18.8761974 C-7.82771151 15.74300901 -6.7891721 12.60766485 -5.76272637 9.4679485 C-5.40436699 8.3748235 -5.04600762 7.2816985 -4.67678887 6.1554485 C-4.36676934 5.20218678 -4.0567498 4.24892506 -3.73733574 3.26677662 C-2.60934576 0.16551092 -2.60934576 0.16551092 0 0 Z " fill="#1B5C98" transform="translate(1618.95803886652,1957.8758015036583)"/>
<path d="M0 0 C0.76570313 0.40089844 1.53140625 0.80179688 2.3203125 1.21484375 C10.66307668 6.09323975 16.99999503 14.34516139 19.53515625 23.70703125 C21.89992614 35.37190456 21.07348043 46.40176626 14.9375 56.875 C9.53373676 64.53033125 3.3776317 69.41026623 -5.5078125 72.4375 C-6.74184814 72.86337402 -7.97588379 73.28924805 -9.24731445 73.72802734 C-10.48570068 74.14777832 -11.72408691 74.5675293 -13 75 C-31.05066939 81.23179435 -48.69484305 87.90273847 -66 96 C-66.88091309 96.41217773 -67.76182617 96.82435547 -68.66943359 97.24902344 C-87.65222347 106.23191848 -105.79906977 116.95759275 -123 129 C-124.07459473 129.74999268 -124.07459473 129.74999268 -125.17089844 130.51513672 C-134.12323483 136.79322508 -142.78827179 143.26360013 -151.0390625 150.44140625 C-153.91371454 152.92543934 -156.84804052 155.31187151 -159.8125 157.6875 C-163.74117422 160.88168295 -167.37089272 164.21054268 -170.85546875 167.8828125 C-172.75857116 169.76164949 -174.71209551 171.48452143 -176.7421875 173.22265625 C-181.09311386 177.00152846 -185.02266061 181.08921004 -188.9375 185.3125 C-189.63480225 186.05798096 -190.33210449 186.80346191 -191.05053711 187.5715332 C-194.7753454 191.564226 -198.44499121 195.59760174 -202.0625 199.6875 C-210.23391504 208.76856313 -218.45847589 214.37636022 -231.046875 215.12109375 C-242.80838326 215.46582761 -253.16593162 211.92851609 -261.8125 203.8125 C-269.92544607 195.18353615 -273.59714099 184.73516296 -273.3046875 172.98828125 C-271.53748476 155.65610052 -260.11387449 144.75812696 -248.69580078 132.79736328 C-247.17613278 131.18668147 -245.68750491 129.55592416 -244.21484375 127.90234375 C-236.62694295 119.39885915 -228.3983735 111.69249517 -220 104 C-219.05640625 103.12988281 -218.1128125 102.25976562 -217.140625 101.36328125 C-211.2767534 96.01296529 -205.20943419 90.94304828 -199 86 C-198.36594238 85.49339844 -197.73188477 84.98679687 -197.07861328 84.46484375 C-159.72282143 54.71384361 -50.62367386 -28.73478997 0 0 Z " fill="#000000" transform="translate(1347,635)"/>
<path d="M0 0 C1.593244 0.55686973 3.18700155 1.11227218 4.78125 1.66625977 C16.79988594 5.87749599 28.67953131 10.37296633 40.3125 15.5625 C41.39402344 16.04299805 42.47554687 16.52349609 43.58984375 17.01855469 C85.97459908 35.97829056 125.9494307 60.26501074 161.08129883 90.77099609 C163.1781196 92.59062593 165.29110742 94.38726102 167.42431641 96.1640625 C175.97441929 103.31994142 183.95789185 110.92592964 191.80151367 118.84570312 C193.76744718 120.83011113 195.7414848 122.8061814 197.71679688 124.78125 C227.24401488 154.38891227 227.24401488 154.38891227 228.34375 171.9296875 C228.19630192 184.35218858 224.11117436 194.47751693 215.61328125 203.51953125 C207.26997041 210.92793799 197.08375422 214.16243994 186.046875 213.87109375 C169.69404928 212.02556056 160.0448189 202.93118609 149.89892578 190.8840332 C144.90843496 185.06179391 139.55411997 179.61797363 134.13476562 174.19946289 C132.57389673 172.63641266 131.02122112 171.06552635 129.46875 169.49414062 C123.07349113 163.06349147 116.41489836 157.21704049 109.3125 151.5625 C108.21064943 150.62774689 107.11430692 149.6863987 106.02734375 148.734375 C65.63205965 113.50923275 15.69808936 88.91081439 -35.07495117 72.73022461 C-46.20354826 69.05894409 -55.48510539 63.31406725 -61.1953125 52.78125 C-66.17677763 42.19207841 -67.62046246 31.27161379 -63.71875 20 C-59.04819492 8.96050618 -51.96293421 0.81645597 -40.73046875 -3.74609375 C-26.82173264 -8.45325683 -13.26638252 -4.80273889 0 0 Z " fill="#000000" transform="translate(2225.6875,636.4375)"/>
<path d="M0 0 C1.37671875 0.10441406 1.37671875 0.10441406 2.78125 0.2109375 C15.98092164 1.80767197 28.43178388 7.83395058 38 17 C38.76699219 17.71542969 39.53398438 18.43085938 40.32421875 19.16796875 C52.01677309 31.01933537 57.86876259 46.8363496 58.4375 63.3125 C57.99643555 81.15723254 51.39926964 96.64177941 38.8125 109.34375 C25.69406805 121.73338018 9.31870287 127.62380219 -8.6171875 127.2421875 C-26.42448966 125.96729982 -41.73709729 118.1225922 -53.8125 105.0625 C-59.48052704 98.23691814 -63.08330722 90.32976891 -66 82 C-66.53753906 80.47246094 -66.53753906 80.47246094 -67.0859375 78.9140625 C-71.24527079 63.89188651 -68.55639864 46.47893627 -61.390625 32.96484375 C-52.60778862 18.3200684 -39.28031858 6.40901035 -22.5 2.1015625 C-14.92924739 0.43782856 -7.74023965 -0.61466609 0 0 Z " fill="#00FD98" transform="translate(1793,490)"/>
<path d="M0 0 C2.1328125 1.9140625 2.1328125 1.9140625 4.125 4.625 C4.89328125 5.63046875 5.6615625 6.6359375 6.453125 7.671875 C7.06704102 8.48495117 7.06704102 8.48495117 7.69335938 9.31445312 C9.97760364 12.26109409 12.43249338 15.05943605 14.875 17.875 C15.90289692 19.06853424 16.93023907 20.26254647 17.95703125 21.45703125 C18.46443848 22.04693848 18.9718457 22.6368457 19.49462891 23.24462891 C23.23472525 27.60585055 26.93466636 32.00130273 30.64111328 36.39111328 C32.92546186 39.09572289 35.21289508 41.79772127 37.5 44.5 C38.41668126 45.58332099 39.33334793 46.66665432 40.25 47.75 C40.70375 48.28625 41.1575 48.8225 41.625 49.375 C43 51 44.375 52.625 45.75 54.25 C46.20407227 54.78657227 46.65814453 55.32314453 47.12597656 55.87597656 C48.03962168 56.95585704 48.9530344 58.03593419 49.86621094 59.11621094 C52.20220922 61.8790583 54.54254726 64.6380332 56.890625 67.390625 C58.75854927 69.58147855 60.61819709 71.77882908 62.46875 73.984375 C64.06028674 75.88046506 65.66291931 77.7673518 67.28125 79.640625 C68.25578125 80.80851562 68.25578125 80.80851562 69.25 82 C69.81203125 82.66 70.3740625 83.32 70.953125 84 C72 86 72 86 71.8984375 88.33203125 C70.76954933 91.68433828 69.12494129 94.6325454 67.375 97.6875 C61.07466467 109.08409389 56.32219762 121.40728901 53 134 C49.25938188 132.44064367 46.88534364 130.12945322 44.04296875 127.2734375 C43.57691727 126.8069278 43.11086578 126.34041809 42.63069153 125.85977173 C41.64586655 124.8719326 40.66346619 123.88167105 39.68334961 122.88916016 C38.20791957 121.39566953 36.7248426 119.9101425 35.24023438 118.42578125 C30.48813279 113.65574739 25.85190386 108.82519976 21.46899414 103.71191406 C19.41305051 101.31598973 17.26712616 99.00633354 15.125 96.6875 C11.10619407 92.27646827 7.27134676 87.76264642 3.52734375 83.1171875 C1.64952084 80.78762058 -0.26024117 78.48742603 -2.18359375 76.1953125 C-10.90461866 65.7750338 -19.07246648 55.03392657 -27 44 C-27.80896729 42.87730713 -27.80896729 42.87730713 -28.63427734 41.73193359 C-45.38648532 18.4305296 -45.38648532 18.4305296 -50 9 C-48.07414062 8.76216797 -48.07414062 8.76216797 -46.109375 8.51953125 C-32.01538109 6.6909906 -13.80232903 -1.58041935 0 0 Z " fill="#1B5C97" transform="translate(1191,1730)"/>
<path d="M0 0 C1.24265625 0.33257813 2.4853125 0.66515625 3.765625 1.0078125 C5.27830646 1.37120729 6.79135216 1.73308797 8.3046875 2.09375 C10.00005384 2.523225 11.69536375 2.95292283 13.390625 3.3828125 C24.09315737 6.02804883 34.83459391 7.64558674 45.765625 9.0078125 C44.48622982 12.453736 43.0039902 15.40214143 40.96484375 18.45703125 C40.40667969 19.29580811 39.84851562 20.13458496 39.2734375 20.9987793 C38.67273437 21.88863525 38.07203125 22.77849121 37.453125 23.6953125 C36.82792969 24.62577393 36.20273438 25.55623535 35.55859375 26.51489258 C22.77669038 45.43487984 9.15196718 63.76005911 -5.73828125 81.078125 C-8.04432561 83.78474983 -10.26885753 86.5395699 -12.484375 89.3203125 C-18.09754904 96.21879294 -24.26747855 102.5933959 -30.3828125 109.04296875 C-32.62915202 111.42674255 -34.84483503 113.83721742 -37.0559082 116.25366211 C-49.39909678 129.74082395 -49.39909678 129.74082395 -54.234375 134.0078125 C-54.894375 134.0078125 -55.554375 134.0078125 -56.234375 134.0078125 C-56.60046875 132.85410156 -56.9665625 131.70039062 -57.34375 130.51171875 C-61.14278391 118.94745471 -65.83981547 108.10783703 -71.32128906 97.23657227 C-71.82756836 96.22264404 -72.33384766 95.20871582 -72.85546875 94.1640625 C-73.3136499 93.26494141 -73.77183105 92.36582031 -74.24389648 91.43945312 C-75.234375 89.0078125 -75.234375 89.0078125 -75.234375 85.0078125 C-73.58203125 82.81640625 -73.58203125 82.81640625 -71.296875 80.4453125 C-68.03968762 76.96996459 -64.91229402 73.465713 -61.921875 69.7578125 C-58.46595467 65.49050217 -54.94059601 61.29469475 -51.359375 57.1328125 C-46.07441839 50.99076797 -40.82904773 44.81688972 -35.60205078 38.62548828 C-34.20978083 36.97872271 -32.81432027 35.33471183 -31.41796875 33.69140625 C-27.14809519 28.66336544 -22.90039198 23.62267321 -18.734375 18.5078125 C-18.01507812 17.63640625 -17.29578125 16.765 -16.5546875 15.8671875 C-14.82293522 13.73310893 -13.14201416 11.58297603 -11.4765625 9.3984375 C-10.52124259 8.18457363 -9.56551928 6.97102713 -8.609375 5.7578125 C-8.17818359 5.17193359 -7.74699219 4.58605469 -7.30273438 3.98242188 C-4.92845772 1.02084299 -3.864221 0.00933387 0 0 Z " fill="#1B5C97" transform="translate(2340.234375,1729.9921875)"/>
<path d="M0 0 C0.71808334 0.13987839 1.43616669 0.27975677 2.17601013 0.4238739 C4.53103746 0.88470543 6.88395237 1.35540523 9.23681641 1.82714844 C10.88671423 2.15414921 12.53666841 2.48086571 14.18667603 2.80731201 C17.63889683 3.49209492 21.09002456 4.1821028 24.54052734 4.87548828 C28.94155294 5.75918555 33.34552207 6.62710242 37.75052452 7.49072647 C41.15799082 8.16110443 44.56343911 8.84132021 47.96840286 9.52428436 C49.5902884 9.84812084 51.21283884 10.16864695 52.83607101 10.48566437 C73.44616092 14.52212408 73.44616092 14.52212408 79.02587891 20.37402344 C82.67121762 28.77415177 79.54783707 38.26400038 77.65087891 46.81152344 C77.38984375 48.04773438 77.12880859 49.28394531 76.85986328 50.55761719 C73.55705079 65.74239954 73.55705079 65.74239954 68.83837891 70.12402344 C60.71882925 73.8830742 51.26308231 70.90499888 42.87353516 69.20214844 C41.56202085 68.94199998 40.25036702 68.68255401 38.93858337 68.42376709 C36.19505865 67.88076427 33.45270656 67.3323066 30.71118164 66.77929688 C26.57252962 65.94447288 22.4311865 65.12357942 18.28955078 64.30371094 C11.80653659 63.01841175 5.33018032 61.70280585 -1.14422607 60.37475586 C-4.18603145 59.75764934 -7.23121731 59.16422611 -10.27929688 58.57910156 C-11.88736987 58.25634413 -13.49529584 57.93285268 -15.10302734 57.60839844 C-15.79210678 57.48354065 -16.48118622 57.35868286 -17.19114685 57.2300415 C-22.78294487 56.06158614 -26.46115779 53.42236143 -29.91162109 48.87402344 C-31.98373324 41.62163091 -29.78121731 33.95899662 -28.22412109 26.81152344 C-28.01078125 25.78671875 -27.79744141 24.76191406 -27.57763672 23.70605469 C-23.43368106 4.2356481 -23.43368106 4.2356481 -16.53662109 -0.31347656 C-11.54307813 -2.81024804 -5.23352543 -1.03239331 0 0 Z " fill="#003D8B" transform="translate(2151.53662109375,916.3134765625)"/>
<path d="M0 0 C6.56637124 3.36416017 9.1315389 9.42827637 12.19750977 15.83496094 C12.71700195 16.87587891 13.23649414 17.91679688 13.77172852 18.98925781 C15.14156725 21.741324 16.48471544 24.50473245 17.82250977 27.27246094 C18.19867432 27.98732666 18.57483887 28.70219238 18.96240234 29.4387207 C21.24840266 34.31245001 20.34225676 40.71321997 18.69750977 45.64746094 C14.93267815 50.9182252 10.03578119 53.91586806 4.31396484 56.76171875 C3.69367905 57.07295685 3.07339325 57.38419495 2.43431091 57.7048645 C0.40731044 58.71950944 -1.62513052 59.72267562 -3.65795898 60.72558594 C-5.07741344 61.43284826 -6.49654198 62.14076501 -7.9153595 62.8493042 C-10.87754834 64.326593 -13.84223268 65.79869543 -16.80908203 67.26660156 C-20.61227718 69.14834031 -24.41106196 71.03877345 -28.2082777 72.93254471 C-31.83593149 74.74138878 -35.46555447 76.54626378 -39.09545898 78.35058594 C-39.78703787 78.69467751 -40.47861675 79.03876907 -41.19115257 79.39328766 C-43.145408 80.36462949 -45.10102071 81.33317705 -47.05712891 82.30078125 C-48.72542 83.12754364 -48.72542 83.12754364 -50.42741394 83.9710083 C-54.00681691 85.66493346 -56.9337681 86.48700289 -60.86499023 86.64746094 C-61.67323242 86.69644531 -62.48147461 86.74542969 -63.31420898 86.79589844 C-68.4476446 85.85745318 -72.56604654 83.45382765 -75.68994141 79.22509766 C-77.05034057 76.86680316 -78.25796835 74.48076515 -79.42749023 72.02246094 C-79.83483398 71.21421875 -80.24217773 70.40597656 -80.66186523 69.57324219 C-81.86907883 67.15494571 -83.02942213 64.71932118 -84.17749023 62.27246094 C-84.56146973 61.47396729 -84.94544922 60.67547363 -85.34106445 59.8527832 C-87.24713363 55.77314875 -88.76053125 52.29048323 -88.80249023 47.70996094 C-88.83600586 46.86304688 -88.86952148 46.01613281 -88.90405273 45.14355469 C-87.54759247 39.78334882 -84.42228296 35.83578155 -79.89916992 32.68579102 C-77.22218338 31.16984794 -74.51001634 29.79825936 -71.73999023 28.45996094 C-70.72864014 27.95207031 -69.71729004 27.44417969 -68.67529297 26.92089844 C-65.52089499 25.34650737 -62.35271742 23.80436014 -59.17749023 22.27246094 C-58.2094043 21.80404785 -57.24131836 21.33563477 -56.24389648 20.85302734 C-52.4717213 19.03356081 -48.69666443 17.22154573 -44.90551758 15.44189453 C-39.79287178 13.03784279 -34.7473962 10.54910899 -29.74780273 7.91699219 C-28.68102295 7.36140625 -27.61424316 6.80582031 -26.51513672 6.23339844 C-24.47451781 5.16556469 -22.44209597 4.08185618 -20.41992188 2.97949219 C-13.5209748 -0.60803185 -7.6115657 -2.54316244 0 0 Z " fill="#003D8B" transform="translate(1392.177490234375,937.7275390625)"/>
<path d="M0 0 C4.75817891 3.38775529 8.07918668 7.44127643 11.25 12.3125 C11.68570313 12.94285156 12.12140625 13.57320312 12.5703125 14.22265625 C17.35841826 22.64369539 16.59599667 34.79748708 14.3671875 43.9296875 C10.23096937 54.69481151 3.42669411 61.17506921 -6.75 66.3125 C-16.79888179 70.6000229 -26.67255585 70.35300916 -36.85546875 66.640625 C-41.45241372 64.5313655 -45.06940751 61.75114119 -48.75 58.3125 C-49.31460938 57.80074219 -49.87921875 57.28898438 -50.4609375 56.76171875 C-57.27808615 49.78884843 -60.02251494 40.29647027 -60.375 30.75 C-59.92868081 19.62635255 -55.90193837 11.46350777 -48.21484375 3.5078125 C-33.82204722 -9.31112831 -16.1974338 -9.82243029 0 0 Z " fill="#00FC97" transform="translate(975.75,938.6875)"/>
<path d="M0 0 C9.04348335 7.10559406 15.56937756 15.96037218 17.08203125 27.5703125 C17.42456849 39.11508622 14.12021833 49.19979379 6.625 58.0625 C-2.23944558 66.45842309 -12.55084503 69.48268085 -24.5078125 69.2734375 C-35.5178041 68.6728925 -42.75796334 64.14890479 -50.125 56.1875 C-58.81437943 45.85150301 -59.33547338 35.05713986 -58.375 22.0625 C-56.66864514 12.83896023 -50.20820645 5.62846329 -42.8125 0.171875 C-28.96871665 -8.52269625 -14.0298854 -8.05419347 0 0 Z " fill="#00FD98" transform="translate(2593.375,942.9375)"/>
</svg>
