<?xml version="1.0" encoding="UTF-8"?>
<svg version="1.1" xmlns="http://www.w3.org/2000/svg" width="4096" height="1203">
<path d="M0 0 C2.72514028 0.59535154 5.45505515 1.09542514 8.20263672 1.57592773 C13.33505262 2.48662776 18.35051034 3.67361093 23.38623047 5.01342773 C24.18416016 5.21774414 24.98208984 5.42206055 25.80419922 5.63256836 C30.64585228 6.90857052 35.06607048 8.5371095 39.63623047 10.57592773 C40.66748047 10.84405273 41.69873047 11.11217773 42.76123047 11.38842773 C47.48398785 12.65345203 51.77669047 14.92147448 56.17919922 17.00952148 C59.43971662 18.48688587 62.70745398 19.73841056 66.07373047 20.95092773 C71.52608568 22.99391866 76.47381663 25.59961033 81.46484375 28.56152344 C85.2166333 30.78715243 89.00881258 32.76846671 92.94873047 34.63842773 C97.63929487 36.92772177 101.47798193 39.61800897 105.49560547 42.92749023 C107.61387296 44.55871082 109.70609003 45.77993674 112.07373047 47.01342773 C116.54964459 49.38394671 120.30128879 52.35654722 124.19482422 55.57983398 C127.11824372 57.97002177 130.15607449 60.16901896 133.23779297 62.34936523 C133.69927734 62.75413086 134.16076172 63.15889648 134.63623047 63.57592773 C134.63623047 64.23592773 134.63623047 64.89592773 134.63623047 65.57592773 C135.35810547 65.82342773 136.07998047 66.07092773 136.82373047 66.32592773 C142.05592223 68.65134629 145.63854045 72.57823771 149.63623047 76.57592773 C150.83940814 77.58212499 152.0479904 78.5818865 153.26123047 79.57592773 C155.47698252 81.43430042 156.69555084 82.67558597 158.19873047 85.20092773 C159.53413896 87.79091133 159.53413896 87.79091133 162.38623047 89.38842773 C166.52222772 92.17227203 169.69355183 95.55368652 172.63623047 99.57592773 C172.63623047 100.23592773 172.63623047 100.89592773 172.63623047 101.57592773 C173.23564453 101.82729492 173.83505859 102.07866211 174.45263672 102.33764648 C176.92985199 103.74243583 177.96583335 105.05898121 179.57373047 107.38842773 C181.33973121 109.85374707 182.97959596 111.91929323 185.13623047 114.07592773 C187.7507175 116.69041477 189.85313959 119.42359694 192.02685547 122.40405273 C193.71296475 124.67948176 195.48293125 126.87205264 197.26123047 129.07592773 C199.93017187 132.47488593 201.82253546 135.8006567 203.62451172 139.70874023 C204.68329078 141.66278036 205.84614087 142.98216209 207.38623047 144.57592773 C211.17361454 148.72766774 213.32729842 153.6643779 215.74243164 158.68164062 C217.39463538 162.10838958 219.03084143 165.37569359 221.19873047 168.51342773 C225.02733268 174.32723109 227.26064327 181.09945354 229.81933594 187.53833008 C230.90826803 190.25447689 232.05314926 192.94575936 233.19873047 195.63842773 C237.40437801 205.74869301 241.54912812 215.79256561 243.63623047 226.57592773 C243.95462891 227.5259668 244.27302734 228.47600586 244.60107422 229.45483398 C246.19977949 234.2750812 247.13019474 239.20942823 248.14599609 244.18041992 C248.50384809 245.92904732 248.86497674 247.67700508 249.22802734 249.42456055 C249.89102109 252.61962615 250.54569559 255.81631277 251.19873047 259.01342773 C251.40860596 260.02445557 251.61848145 261.0354834 251.8347168 262.07714844 C254.72373495 276.37156737 255.93310957 290.04588403 255.90365601 304.585495 C255.90740074 306.35942982 255.91200551 308.133363 255.91738665 309.90729362 C255.92952923 314.74153041 255.92936663 319.57569755 255.9269979 324.40994608 C255.92658753 329.63901035 255.93764935 334.86805294 255.94711304 340.09710693 C255.96367316 350.32404991 255.96922021 360.55096983 255.97033779 370.7779251 C255.97129012 379.09125507 255.97540957 387.40457747 255.98173904 395.71790504 C255.99933355 419.30829839 256.00858008 442.89867358 256.0070781 466.48907354 C256.00695823 468.3937546 256.00695823 468.3937546 256.00683594 470.33691406 C256.0067133 472.2439293 256.0067133 472.2439293 256.00658818 474.18947009 C256.00577456 494.81189368 256.02493605 515.43424436 256.05311267 536.05664685 C256.0818426 557.25169745 256.09565308 578.44671249 256.09392512 599.64178306 C256.09326152 611.53341844 256.09874127 623.42497726 256.12028122 635.31659508 C256.13849382 645.43558059 256.1428392 655.55445479 256.12926237 665.6734496 C256.12273477 670.8334724 256.12260852 675.99328162 256.13996887 681.15328407 C256.15571215 685.88127471 256.1528231 690.60888259 256.13540061 695.33686397 C256.13233365 697.04254148 256.1359516 698.74824766 256.14712076 700.45389136 C256.2586275 718.69738323 250.91125149 733.80726477 238.63623047 747.57592773 C236.43541431 749.77129632 234.09481908 751.67652939 231.63623047 753.57592773 C230.70294922 754.32229492 229.76966797 755.06866211 228.80810547 755.83764648 C214.51202676 766.99074306 200.61783746 767.88189306 182.94848633 768.26391602 C180.20771966 768.32572501 177.46816446 768.40899567 174.72802734 768.49389648 C165.46601114 768.74108809 156.72117182 768.67623481 147.63623047 766.57592773 C146.36650391 766.31553711 145.09677734 766.05514648 143.78857422 765.78686523 C135.3221822 763.58539757 129.31195049 760.17727407 122.63623047 754.57592773 C121.65654297 753.79475586 120.67685547 753.01358398 119.66748047 752.20874023 C107.3448836 741.86571655 101.39733231 728.17557679 98.63623047 712.57592773 C98.52769478 710.72793995 98.46530488 708.8769239 98.43785095 707.0259552 C98.41930243 705.90987444 98.4007539 704.79379368 98.3816433 703.64389229 C98.36631868 702.41723791 98.35099407 701.19058353 98.33520508 699.92675781 C98.30579803 697.95355466 98.30579803 697.95355466 98.27579689 695.94048882 C98.22190295 692.25650632 98.17507478 688.57246403 98.13012433 684.88836265 C98.10078846 682.50978954 98.06981098 680.1312425 98.0384655 677.75269508 C97.64655786 647.71944377 97.49943626 617.68556129 97.39013672 587.65014648 C97.38594585 586.51491877 97.38175498 585.37969106 97.37743711 584.2100625 C97.29924249 562.99685536 97.22694167 541.78362415 97.16912484 520.57035106 C97.02199271 466.59772621 96.7287441 412.66335265 95.01196575 358.71490097 C94.4788863 341.90175803 94.07055001 325.08528647 93.66485882 308.26864719 C93.63367867 306.99411654 93.60249853 305.7195859 93.57037354 304.40643311 C93.5295056 302.71316957 93.5295056 302.71316957 93.48781204 300.9856987 C93.02742227 284.91558389 91.8285739 267.85061084 85.56591797 252.84936523 C84.5626042 250.39588365 83.88280691 247.94794971 83.19873047 245.38842773 C82.01774076 241.34385546 80.36979259 238.24347903 78.01513672 234.77124023 C76.35847621 232.13372406 75.08564142 229.39427425 73.76123047 226.57592773 C71.4529999 221.86476995 68.92592698 218.22044378 65.33544922 214.41967773 C63.69197135 212.63640979 62.33622748 210.81155395 60.94873047 208.82592773 C54.8412717 200.53488828 47.11363769 193.35597811 38.63623047 187.57592773 C38.63623047 186.91592773 38.63623047 186.25592773 38.63623047 185.57592773 C37.75451172 185.32584961 36.87279297 185.07577148 35.96435547 184.81811523 C32.50062166 183.52531318 30.26955262 181.98859351 27.38623047 179.70092773 C22.31896715 175.90560905 17.55337638 173.68667083 11.63623047 171.57592773 C9.52755629 170.71184696 7.42346434 169.83651231 5.32373047 168.95092773 C3.42900606 168.15661069 1.53323597 167.36478151 -0.36376953 166.57592773 C-1.52924316 166.08419067 -1.52924316 166.08419067 -2.71826172 165.58251953 C-5.29156681 164.60340022 -7.76956627 163.9251186 -10.45361328 163.32202148 C-11.40300781 163.10739258 -12.35240234 162.89276367 -13.33056641 162.67163086 C-14.31089844 162.45442383 -15.29123047 162.2372168 -16.30126953 162.01342773 C-17.27773437 161.79235352 -18.25419922 161.5712793 -19.26025391 161.34350586 C-21.95882155 160.73792898 -24.65510922 160.13471348 -27.36376953 159.57592773 C-28.24822754 159.39199463 -29.13268555 159.20806152 -30.04394531 159.01855469 C-34.60321367 158.41067459 -39.10846295 158.39335844 -43.70361328 158.37280273 C-45.20233727 158.36425262 -45.20233727 158.36425262 -46.7313385 158.35552979 C-48.84521434 158.34610345 -50.95910472 158.33955523 -53.07299805 158.33569336 C-56.25938694 158.32605443 -59.44511172 158.29503575 -62.63134766 158.26342773 C-73.97115568 158.20454977 -84.36163357 158.73846384 -95.36376953 161.57592773 C-96.83042058 161.89858196 -98.29773302 162.21826797 -99.76611328 162.53295898 C-108.62768291 164.67736092 -117.01701791 167.48905294 -125.48828125 170.84985352 C-127.25685532 171.5345371 -129.04632078 172.16453678 -130.83642578 172.79077148 C-137.81868161 175.26244011 -143.58040706 178.39839183 -149.60986328 182.70874023 C-152.42891401 184.62009662 -155.31557049 186.06646291 -158.36376953 187.57592773 C-161.25625204 189.83206409 -163.91005131 192.09471144 -166.42626953 194.76342773 C-168.36376953 196.57592773 -168.36376953 196.57592773 -170.98876953 197.57592773 C-173.98103155 198.83582753 -173.97342104 199.72101286 -175.36376953 202.57592773 C-176.63995476 204.29105565 -177.95571892 205.97716134 -179.30126953 207.63842773 C-179.99091797 208.4956543 -180.68056641 209.35288086 -181.39111328 210.23608398 C-183.36376953 212.57592773 -183.36376953 212.57592773 -184.97314453 214.12670898 C-186.62326144 215.84635329 -187.57510202 217.58941065 -188.67626953 219.70092773 C-190.3626309 222.86159305 -192.16665469 225.7036973 -194.30126953 228.57592773 C-198.02996812 234.04468567 -199.86530992 240.11325226 -201.92626953 246.34545898 C-203.07960371 249.82781894 -204.45803435 253.15025153 -205.92626953 256.51342773 C-214.85130417 280.47328612 -214.0867376 305.50639295 -213.99932253 330.66047478 C-213.98578411 336.16812462 -214.00148865 341.6757069 -214.01348877 347.18334961 C-214.03041068 356.69821613 -214.0295836 366.21294306 -214.01648521 375.72781372 C-213.99773574 389.49511121 -214.00869218 403.26226566 -214.02696178 417.02955806 C-214.05602284 439.38746947 -214.06453116 461.7453463 -214.05834961 484.10327148 C-214.05798362 485.45118233 -214.05761846 486.79909317 -214.05725411 488.14700401 C-214.05707352 488.81486617 -214.05689293 489.48272832 -214.05670686 490.17082873 C-214.05580037 493.55000235 -214.05492228 496.92917597 -214.05407715 500.30834961 C-214.05382408 501.31353509 -214.05382408 501.31353509 -214.0535659 502.33902735 C-214.04979742 517.93752746 -214.05388861 533.53602259 -214.06030273 549.13452148 C-214.06057303 549.80358444 -214.06084333 550.4726474 -214.06112182 551.161985 C-214.0673449 566.44290773 -214.076271 581.72382681 -214.0892992 597.00474548 C-214.09039169 598.2882702 -214.09148417 599.57179492 -214.09260977 600.89421433 C-214.0970289 606.02492324 -214.10150295 611.15563206 -214.10633538 616.28634059 C-214.12044271 631.2906066 -214.12649221 646.29482212 -214.1177995 661.29909313 C-214.11261713 670.6984022 -214.11398647 680.09769451 -214.12050255 689.49700272 C-214.12394901 694.91805458 -214.12400391 700.33905428 -214.11527443 705.76010132 C-214.1073017 710.72368507 -214.10847802 715.68718012 -214.11684034 720.65076244 C-214.1182172 722.44423014 -214.11621121 724.23770438 -214.11044224 726.03116333 C-214.08412687 734.73092886 -214.10249773 743.1046711 -216.36376953 751.57592773 C-216.71955078 753.20594727 -216.71955078 753.20594727 -217.08251953 754.86889648 C-220.69938788 768.2693937 -228.98443407 780.50097623 -240.36376953 788.57592773 C-241.02376953 788.57592773 -241.68376953 788.57592773 -242.36376953 788.57592773 C-242.69376953 789.56592773 -243.02376953 790.55592773 -243.36376953 791.57592773 C-266.89891448 805.42013064 -302.14611033 806.32924739 -328.36376953 800.57592773 C-329.20939453 800.39288086 -330.05501953 800.20983398 -330.92626953 800.02124023 C-338.55274289 798.04129042 -345.42781018 794.22380261 -352.36376953 790.57592773 C-352.36376953 789.91592773 -352.36376953 789.25592773 -352.36376953 788.57592773 C-352.92064453 788.32842773 -353.47751953 788.08092773 -354.05126953 787.82592773 C-359.22638499 785.02856803 -362.89046887 781.24007434 -366.36376953 776.57592773 C-366.36376953 775.58592773 -366.36376953 774.59592773 -366.36376953 773.57592773 C-367.02376953 773.57592773 -367.68376953 773.57592773 -368.36376953 773.57592773 C-369.47976813 771.31029771 -370.58133255 769.03922231 -371.67626953 766.76342773 C-371.985 766.14016602 -372.29373047 765.5169043 -372.61181641 764.87475586 C-377.06330858 755.55005121 -378.81327882 746.53236841 -378.7490387 736.24142456 C-378.75427439 735.15262532 -378.75951009 734.06382609 -378.76490444 732.94203293 C-378.77879745 729.31581387 -378.771579 725.68995454 -378.7644043 722.0637207 C-378.77015456 719.44697762 -378.77724049 716.83023718 -378.78555298 714.21350098 C-378.8015259 708.5636212 -378.80680246 702.91381307 -378.8050251 697.2639122 C-378.80260509 688.94616284 -378.81886577 680.62852294 -378.83947765 672.31080247 C-378.8730811 658.61549432 -378.8946577 644.92019605 -378.9074707 631.22485352 C-378.90824019 630.40571351 -378.90900968 629.5865735 -378.90980249 628.74261107 C-378.91289574 625.43656804 -378.91597862 622.13052501 -378.91904253 618.82448196 C-378.94522075 591.07233288 -378.9907828 563.3202015 -379.05517578 535.56811523 C-379.05697501 534.78612491 -379.05877424 534.00413459 -379.060628 533.19844759 C-379.17159259 485.41187786 -379.47465833 437.62993936 -380.11494074 389.8473373 C-380.18424768 384.64593781 -380.24725949 379.44448811 -380.30755806 374.24297714 C-380.38846648 367.29898452 -380.48495851 360.35534762 -380.59193921 353.41170835 C-380.62889696 350.89587781 -380.66163915 348.37998068 -380.68952441 345.86403322 C-380.82848708 333.68945016 -381.24420141 321.64783698 -382.68971252 309.55026245 C-382.80050107 308.59761918 -382.91128961 307.64497591 -383.02543539 306.66346467 C-384.47379171 295.74683239 -388.58523484 285.94340306 -392.95751953 275.92358398 C-394.36376953 272.57592773 -394.36376953 272.57592773 -395.18408203 269.73217773 C-396.90980458 265.11501278 -399.5649092 261.19893059 -402.23876953 257.07592773 C-402.76857422 256.24706055 -403.29837891 255.41819336 -403.84423828 254.56420898 C-405.34090045 252.22822759 -406.8496379 249.90061282 -408.36376953 247.57592773 C-408.75604736 246.96813477 -409.1483252 246.3603418 -409.55249023 245.73413086 C-411.8354355 242.23721727 -414.37428044 239.49250246 -417.36376953 236.57592773 C-418.06501953 235.66842773 -418.76626953 234.76092773 -419.48876953 233.82592773 C-423.41715908 229.02319443 -428.52952966 225.4122146 -433.36376953 221.57592773 C-434.71341797 220.46217773 -434.71341797 220.46217773 -436.09033203 219.32592773 C-440.34287384 215.83139187 -444.27535731 212.71841709 -449.36376953 210.57592773 C-449.36376953 209.91592773 -449.36376953 209.25592773 -449.36376953 208.57592773 C-450.51876953 208.34905273 -451.67376953 208.12217773 -452.86376953 207.88842773 C-456.06680189 207.09748629 -458.44339715 206.03981702 -461.17626953 204.20092773 C-469.90637519 198.44277294 -480.34701683 196.4100241 -490.39892578 194.04174805 C-492.24427305 193.60425767 -494.08545036 193.14928314 -495.92626953 192.69311523 C-497.01939453 192.42756836 -498.11251953 192.16202148 -499.23876953 191.88842773 C-500.18494141 191.65768555 -501.13111328 191.42694336 -502.10595703 191.18920898 C-526.31791059 186.63132324 -552.2289461 188.86410278 -575.75830078 195.62280273 C-579.42687561 196.59261016 -583.05775629 197.21569987 -586.80126953 197.82592773 C-594.22330483 199.22439544 -600.23521086 202.17047488 -606.80517578 205.73608398 C-609.04780126 206.94627579 -610.99056565 207.78379786 -613.43798828 208.59545898 C-616.8214552 209.72930437 -619.57143677 211.34342306 -622.61376953 213.20092773 C-628.15152463 216.57592773 -628.15152463 216.57592773 -630.36376953 216.57592773 C-630.36376953 217.23592773 -630.36376953 217.89592773 -630.36376953 218.57592773 C-632.09925122 220.0211951 -633.90352916 221.38464994 -635.73876953 222.70092773 C-636.73650391 223.42538086 -637.73423828 224.14983398 -638.76220703 224.89624023 C-641.36376953 226.57592773 -641.36376953 226.57592773 -643.36376953 226.57592773 C-643.69376953 227.56592773 -644.02376953 228.55592773 -644.36376953 229.57592773 C-646.05286722 231.16342556 -647.84778896 232.54984691 -649.67236328 233.97827148 C-651.50563995 235.70993466 -652.26432701 237.33457496 -653.36376953 239.57592773 C-655.48876953 240.32592773 -655.48876953 240.32592773 -657.36376953 240.57592773 C-657.48598877 241.16889648 -657.60820801 241.76186523 -657.73413086 242.37280273 C-658.73537865 245.87619942 -660.98365253 248.62309818 -663.05126953 251.57592773 C-670.27882329 262.19540479 -675.34876086 273.25712746 -679.58194399 285.35625863 C-680.13600797 286.92929333 -680.71325518 288.49424967 -681.30644941 290.05294967 C-684.34794907 298.43246443 -685.65395046 306.77465559 -686.58361816 315.59063721 C-686.66755186 316.36056032 -686.75148555 317.13048344 -686.83796269 317.92373756 C-688.91120466 337.35735116 -688.92060148 356.77353653 -688.85393882 376.29594588 C-688.84050352 381.57584155 -688.85078893 386.85570439 -688.85804749 392.13560486 C-688.86763182 401.24156828 -688.8633832 410.34743525 -688.84962463 419.45339203 C-688.83008193 432.63574922 -688.83678302 445.81800038 -688.85019845 459.00036064 C-688.8716746 480.42187659 -688.87851677 501.84336721 -688.87304688 523.26489258 C-688.87256593 525.17943618 -688.87256593 525.17943618 -688.87207526 527.13265744 C-688.86970094 536.197081 -688.86679453 545.26150437 -688.86376953 554.32592773 C-688.86030586 564.71541333 -688.85708977 575.10489892 -688.85449219 585.49438477 C-688.85416668 586.77522335 -688.85384117 588.05606193 -688.85350579 589.3757138 C-688.84855941 610.75226068 -688.85925056 632.12877248 -688.88106394 653.50530839 C-688.89372707 666.65442555 -688.89237084 679.80339755 -688.87261307 692.95250675 C-688.85998382 701.95044238 -688.86148746 710.94830441 -688.8739866 719.94623998 C-688.88067934 725.12918288 -688.88087628 730.31191052 -688.86340523 735.49483299 C-688.84748696 740.24748071 -688.85025356 744.9997539 -688.86725527 749.75239447 C-688.8701504 751.46222677 -688.86641391 753.17208744 -688.8549971 754.88188407 C-688.76314699 769.5710076 -691.09183808 782.84961709 -697.30126953 796.32592773 C-697.62289062 797.07874023 -697.94451172 797.83155273 -698.27587891 798.60717773 C-700.31420194 803.14214495 -702.24072382 805.63375434 -706.36376953 808.57592773 C-707.82853839 810.43868769 -707.82853839 810.43868769 -709.05126953 812.38842773 C-712.6662793 817.3717788 -717.21745117 820.31147206 -722.36376953 823.57592773 C-723.12431641 824.1134668 -723.88486328 824.65100586 -724.66845703 825.20483398 C-735.57812565 832.53304573 -749.92978223 834.70710297 -762.84033203 834.77905273 C-763.64683197 834.78475281 -764.45333191 834.79045288 -765.28427124 834.79632568 C-766.98702703 834.80573737 -768.68980072 834.81229436 -770.39257812 834.81616211 C-772.96013381 834.82582002 -775.52687161 834.85685973 -778.09423828 834.88842773 C-787.27206991 834.94739992 -795.5644928 834.51461411 -804.36376953 831.57592773 C-805.68393066 831.14074829 -805.68393066 831.14074829 -807.03076172 830.69677734 C-814.21141173 828.20879783 -820.25611263 824.0209447 -826.36376953 819.57592773 C-827.08564453 819.06545898 -827.80751953 818.55499023 -828.55126953 818.02905273 C-835.45968686 812.62488756 -839.86175265 804.97485923 -844.36376953 797.57592773 C-844.91677734 796.67229492 -845.46978516 795.76866211 -846.03955078 794.83764648 C-851.60446614 784.80766629 -851.66375325 773.19342141 -851.61100769 761.97869873 C-851.61462931 760.17953849 -851.61462931 760.17953849 -851.6183241 758.34403157 C-851.62294638 755.05224702 -851.6187231 751.7606186 -851.61055982 748.46884561 C-851.6039229 744.89966238 -851.60894567 741.33049182 -851.61244202 737.76130676 C-851.61747065 730.76483659 -851.61185049 723.76841395 -851.60259172 716.77194968 C-851.59210475 708.54168786 -851.59228101 700.3114358 -851.5927643 692.08116856 C-851.59326496 677.29897562 -851.58412237 662.51680426 -851.56958008 647.73461914 C-851.55566713 633.58389891 -851.54844918 619.43319786 -851.54907227 605.2824707 C-851.55407258 458.63356873 -851.55407258 458.63356873 -850.47926331 395.53703308 C-850.34967779 387.91682489 -850.24908548 380.29633131 -850.15952492 372.67555428 C-849.80814206 344.32105808 -846.63162482 316.75440746 -840.82617188 289.00048828 C-839.23656099 281.36943592 -837.95708592 273.81613026 -837.06854248 266.07067871 C-836.46921669 261.00995204 -835.47727993 256.25388333 -833.98876953 251.38842773 C-833.7718042 250.64286621 -833.55483887 249.89730469 -833.33129883 249.12915039 C-832.68997347 246.94004932 -832.03105992 244.75723832 -831.36376953 242.57592773 C-830.98607422 241.3397168 -830.60837891 240.10350586 -830.21923828 238.82983398 C-829.54885487 236.6579926 -828.87468938 234.48731306 -828.19580078 232.31811523 C-827.51596579 230.07753229 -826.9068528 227.85215499 -826.36376953 225.57592773 C-824.26522418 216.92627125 -821.69879852 208.78529638 -817.52001953 200.91186523 C-816.04910481 197.94021996 -815.09813099 194.90766982 -814.11767578 191.74780273 C-813.08899062 188.78433667 -811.69965292 186.06910342 -810.23095703 183.30249023 C-809.22904612 181.41044293 -809.22904612 181.41044293 -808.36376953 178.57592773 C-807.70376953 178.57592773 -807.04376953 178.57592773 -806.36376953 178.57592773 C-806.12013672 177.56014648 -805.87650391 176.54436523 -805.62548828 175.49780273 C-804.4802859 171.50314413 -802.50039981 168.24110536 -800.17626953 164.82592773 C-799.36724321 163.60616245 -798.55865501 162.38610647 -797.75048828 161.16577148 C-797.34878418 160.56490723 -796.94708008 159.96404297 -796.53320312 159.3449707 C-794.23763171 155.8723798 -792.06670853 152.31955168 -789.87158203 148.78295898 C-788.49797353 146.77236623 -787.22717237 145.13894596 -785.36376953 143.57592773 C-784.70376953 143.57592773 -784.04376953 143.57592773 -783.36376953 143.57592773 C-783.17814453 142.75092773 -782.99251953 141.92592773 -782.80126953 141.07592773 C-780.79447341 136.18981544 -777.21375965 131.0009228 -772.36376953 128.57592773 C-771.97189453 127.87467773 -771.58001953 127.17342773 -771.17626953 126.45092773 C-768.77692454 122.64507017 -765.81785427 119.46404196 -762.36376953 116.57592773 C-761.70376953 116.57592773 -761.04376953 116.57592773 -760.36376953 116.57592773 C-760.13689453 116.01905273 -759.91001953 115.46217773 -759.67626953 114.88842773 C-756.28459677 108.91262334 -749.63774934 103.52472524 -743.73876953 100.01342773 C-741.21203958 98.61323838 -741.21203958 98.61323838 -738.98876953 96.20092773 C-736.05924301 93.27140121 -732.99749899 90.59945006 -729.36376953 88.57592773 C-728.37376953 88.57592773 -727.38376953 88.57592773 -726.36376953 88.57592773 C-726.11248291 87.9692627 -725.86119629 87.36259766 -725.60229492 86.73754883 C-724.17464985 84.24585368 -723.00637202 83.42919878 -720.54736328 81.98999023 C-719.7875415 81.53712646 -719.02771973 81.0842627 -718.24487305 80.61767578 C-717.43848389 80.15014893 -716.63209473 79.68262207 -715.80126953 79.20092773 C-714.15200364 78.22185308 -712.50355508 77.2414002 -710.85595703 76.25952148 C-710.0705957 75.79400879 -709.28523437 75.32849609 -708.47607422 74.84887695 C-706.06926311 73.39844779 -703.7384747 71.85995035 -701.42626953 70.26342773 C-692.14354713 63.95407735 -681.73581355 58.71678152 -671.36376953 54.44311523 C-669.7838255 53.75806138 -668.22543639 53.0233067 -666.67626953 52.27124023 C-659.65859357 48.88521158 -652.66045938 46.22270487 -645.25390625 43.83544922 C-639.3468505 41.92839276 -633.53986616 39.82486785 -627.75317383 37.57983398 C-621.75678893 35.27396084 -615.9353143 33.52482757 -609.55126953 32.76342773 C-601.45558109 31.68342661 -593.47831528 30.08190169 -585.48168945 28.42822266 C-570.14528577 25.3581025 -554.91893944 24.18848 -539.30126953 24.26342773 C-538.50250397 24.26525055 -537.7037384 24.26707336 -536.88076782 24.26895142 C-516.29164515 24.34745485 -496.70637425 27.01305575 -476.61376953 31.46264648 C-472.62310885 32.33718655 -468.67464322 32.97957632 -464.61376953 33.45092773 C-454.34587846 34.87625493 -444.09912128 39.02171335 -434.64111328 43.18920898 C-431.54623899 44.49872075 -428.53849345 45.44039035 -425.30126953 46.32592773 C-418.99305068 48.21038988 -413.45475821 50.84190676 -407.65283203 53.89233398 C-404.27948304 55.61907201 -400.85409323 57.10250389 -397.36376953 58.57592773 C-387.48630033 63.18541336 -378.33582031 68.89235099 -369.18017578 74.77905273 C-367.24121667 76.01611403 -365.28982838 77.23383763 -363.32861328 78.43530273 C-362.35021484 79.03858398 -361.37181641 79.64186523 -360.36376953 80.26342773 C-359.47689453 80.80354492 -358.59001953 81.34366211 -357.67626953 81.90014648 C-355.33482965 83.59689937 -354.07390713 85.27999715 -352.36376953 87.57592773 C-350.44978553 88.46692029 -348.5353937 89.35706302 -346.61767578 90.23999023 C-343.00620497 92.38058472 -340.36906199 95.38737485 -337.53955078 98.45483398 C-335.29851671 100.63954045 -333.06477679 102.01986463 -330.36376953 103.57592773 C-328.67614102 105.22136554 -327.00973464 106.8888135 -325.36376953 108.57592773 C-324.43564453 109.29780273 -323.50751953 110.01967773 -322.55126953 110.76342773 C-321.82939453 111.36155273 -321.10751953 111.95967773 -320.36376953 112.57592773 C-320.36376953 113.23592773 -320.36376953 113.89592773 -320.36376953 114.57592773 C-318.38376953 115.23592773 -316.40376953 115.89592773 -314.36376953 116.57592773 C-313.47625 115.36356445 -313.47625 115.36356445 -312.57080078 114.12670898 C-311.77284335 113.04711952 -310.97465381 111.96770157 -310.17626953 110.88842773 C-309.39896484 109.83268555 -308.62166016 108.77694336 -307.82080078 107.68920898 C-305.49880472 104.74702956 -303.02502784 102.20733218 -300.36376953 99.57592773 C-299.06972538 97.96934997 -297.79824336 96.34430798 -296.55126953 94.70092773 C-293.3752109 90.65100098 -290.05577413 87.33970827 -286.02783203 84.14624023 C-284.26025539 82.67131305 -284.26025539 82.67131305 -283.43798828 80.59545898 C-281.98472461 77.86332328 -280.13207397 76.81382252 -277.55126953 75.13842773 C-273.70989255 72.5519371 -270.60255665 69.89568453 -267.36376953 66.57592773 C-257.9705111 58.57592773 -257.9705111 58.57592773 -255.36376953 58.57592773 C-255.36376953 57.91592773 -255.36376953 57.25592773 -255.36376953 56.57592773 C-253.72338029 55.53338233 -252.0504688 54.54175553 -250.36376953 53.57592773 C-248.62404046 52.29852298 -246.89529201 51.00606445 -245.17626953 49.70092773 C-240.79478366 46.47246446 -236.42887996 43.9746685 -231.51611328 41.66186523 C-228.81707837 40.30010171 -226.65297272 38.53810189 -224.36376953 36.57592773 C-221.67382376 34.80622657 -219.11255099 33.47069576 -216.13720703 32.22436523 C-212.41028568 30.64452745 -208.89783643 28.72981148 -205.36376953 26.76342773 C-199.02669304 23.3063347 -192.58924469 20.52796762 -185.85595703 17.94702148 C-182.74594699 16.72597727 -179.75302391 15.38815917 -176.73876953 13.95092773 C-171.94651877 11.74073888 -167.1211655 10.1294173 -162.05517578 8.66186523 C-159.47105485 7.90166881 -156.93837008 7.10514236 -154.39111328 6.23999023 C-104.75863806 -10.1972771 -50.74386662 -11.70976117 0 0 Z " fill="#0DAF99" transform="translate(1086.36376953125,91.424072265625)"/>
<path d="M0 0 C12.69124396 -0.0463278 25.38246783 -0.08187152 38.07377911 -0.10362434 C43.96677829 -0.11406426 49.85971965 -0.12822739 55.75268555 -0.15087891 C61.43905519 -0.17259967 67.12536919 -0.18456706 72.81177711 -0.18975449 C74.98191008 -0.1934516 77.15203998 -0.20067106 79.32214928 -0.21146011 C82.36025973 -0.2259647 85.39813983 -0.22797835 88.4362793 -0.22705078 C89.33467529 -0.23424133 90.23307129 -0.24143188 91.15869141 -0.24884033 C95.59684848 -0.23416501 98.944734 -0.00163038 103 2 C104.10730469 2.2990625 105.21460937 2.598125 106.35546875 2.90625 C110.27068421 4.08123428 113.68985947 5.64004063 117.3125 7.5 C117.93189453 7.80808594 118.55128906 8.11617187 119.18945312 8.43359375 C121.80867808 9.75884764 123.91103543 10.91103543 126 13 C127.03125 13.350625 128.0625 13.70125 129.125 14.0625 C133.61728882 15.8781334 136.11034683 19.22186746 139.15625 22.87109375 C140.98671191 25.13129819 140.98671191 25.13129819 143.625 27 C157.30351692 38.51875109 161.30714078 61.20715166 163 78 C163.2439073 82.59934631 163.27249838 87.18208034 163.2561264 91.78716755 C163.25952327 93.09558822 163.26292014 94.4040089 163.26641995 95.75207868 C163.27549618 99.35215207 163.27235627 102.95212246 163.26706887 106.55219947 C163.2635337 110.48164704 163.27167131 114.41107411 163.27829123 118.34051532 C163.28830293 125.21816657 163.29101514 132.09579004 163.28886986 138.9734478 C163.2857258 149.20326087 163.29408001 159.43304228 163.30482496 169.66284906 C163.32263402 186.88856743 163.33149431 204.11427926 163.33552551 221.34000587 C163.34116302 244.91451111 163.35985573 268.48899343 163.38196605 292.06348833 C163.39226824 303.0669029 163.40193329 314.07031803 163.41143036 325.07373333 C163.41238187 326.17535731 163.41333338 327.2769813 163.41431372 328.41198783 C163.43680883 354.62841552 163.45305193 380.84484651 163.46826172 407.0612793 C163.46892927 408.20795506 163.46959682 409.35463083 163.4702846 410.53605435 C163.47974547 426.79966333 163.48893381 443.06327247 163.49804676 459.32688165 C163.50906851 478.99550911 163.52022224 498.66413649 163.53173828 518.33276367 C163.53240316 519.47226644 163.53306804 520.6117692 163.53375306 521.78580236 C163.54900737 547.87192482 163.56606146 573.95804449 163.58856964 600.0441618 C163.5895189 601.14517821 163.59046816 602.24619463 163.59144618 603.38057518 C163.60097234 614.38364662 163.6108038 625.38671775 163.62109014 636.38978851 C163.64300824 659.90822746 163.65967439 683.42665261 163.66521569 706.94510147 C163.66934706 724.12714451 163.68037477 741.30917187 163.69819343 758.49120627 C163.70760253 767.76814796 163.71397162 777.04506521 163.71113014 786.32201195 C159.22882472 861.84730094 159.22882472 861.84730094 169.125 935 C169.34019287 935.64461182 169.55538574 936.28922363 169.77709961 936.95336914 C171.94963749 943.2605158 174.60632037 949.36865099 177.375 955.43359375 C178.66755452 958.27037807 179.87632144 961.11857459 181.0625 964 C182.75642663 967.85920675 185.12857636 970.91634302 187.73828125 974.203125 C189.28266907 976.40256276 189.83275239 978.32403829 190 981 C190.66 981 191.32 981 192 981 C193.67961679 983.03040402 195.25764503 985.06474513 196.8125 987.1875 C199.96045269 991.45938133 203.15491551 995.31053445 207 999 C207.7425 999.78375 208.485 1000.5675 209.25 1001.375 C212.37887351 1004.36165199 215.72622986 1006.88830288 219.20703125 1009.44921875 C219.79871094 1009.96097656 220.39039063 1010.47273437 221 1011 C221 1011.66 221 1012.32 221 1013 C221.56847656 1013.10570312 222.13695312 1013.21140625 222.72265625 1013.3203125 C225.36858804 1014.11000741 227.17491181 1015.29863873 229.4375 1016.875 C230.62859375 1017.68710938 230.62859375 1017.68710938 231.84375 1018.515625 C232.5553125 1019.00546875 233.266875 1019.4953125 234 1020 C237.82727262 1022.55151508 241.77440522 1024.16671057 246.04296875 1025.82421875 C250.64238307 1027.65304796 255.16751511 1029.65233126 259.703125 1031.6328125 C265.48022144 1034.02852785 270.8671147 1035.40879576 277.08203125 1036.0703125 C277.85447678 1036.15626678 278.6269223 1036.24222107 279.42277527 1036.33078003 C281.05711832 1036.5105069 282.69184203 1036.6868016 284.3269043 1036.85986328 C286.76819847 1037.12027439 289.20720049 1037.39724625 291.64648438 1037.67578125 C307.56501041 1039.43466465 322.92837149 1039.3557021 338.83935547 1037.56567383 C341.12962181 1037.31198806 343.42158696 1037.08616201 345.71484375 1036.86132812 C359.72231963 1035.38471202 371.86472888 1031.10168561 384.71875 1025.3984375 C387.70070897 1024.12755499 390.67288779 1023.07379811 393.75 1022.0625 C398.70220607 1020.33141912 402.56071644 1017.7645349 406.7109375 1014.5859375 C409 1013 409 1013 411.46484375 1012.04296875 C416.68130667 1009.89690465 420.75356477 1005.63407867 425 1002 C425.85335938 1001.29488281 426.70671875 1000.58976563 427.5859375 999.86328125 C436.72308574 992.06644025 443.77530724 982.6658221 449.703125 972.2421875 C450.89668607 970.17862108 452.20285769 968.26803493 453.5625 966.3125 C456.5768391 961.53578373 458.06380775 956.20419274 459.74609375 950.859375 C460.85648629 947.35543106 462.17732562 943.96824984 463.5625 940.5625 C467.50414826 930.35400403 470.12517587 920.37014569 470.59477234 909.43229675 C470.63336135 908.6166913 470.67195035 907.80108584 470.71170872 906.96076506 C471.1628903 896.5477053 471.18980372 886.12930106 471.23364258 875.70825195 C471.2465711 873.43586989 471.25994583 871.16349033 471.27372742 868.89111328 C471.30259346 864.03725902 471.32907755 859.18339987 471.35386086 854.32952309 C471.39387646 846.64062438 471.44389093 838.95181023 471.49601746 831.26298523 C471.51383019 828.61939338 471.53163811 825.9758015 471.54944134 823.33220959 C471.55389489 822.67197382 471.55834845 822.01173805 471.56293697 821.33149514 C471.61331772 813.85341068 471.66235465 806.37531788 471.71020508 798.8972168 C471.71457156 798.21534505 471.71893805 797.5334733 471.72343685 796.83093878 C471.79391078 785.76906885 471.85317659 774.7071616 471.90913514 763.64521001 C471.96719798 752.23580823 472.04050916 740.8265895 472.12625045 729.4173581 C472.17366186 723.03210416 472.21404409 716.64698249 472.23725319 710.26159096 C472.2591376 704.25875698 472.29931236 698.2563156 472.35305977 692.253685 C472.3694858 690.06251443 472.37936244 687.87128248 472.38188553 685.6800518 C472.40313427 671.35703782 472.6315081 656.64845148 479.9609375 643.8359375 C481.06434953 641.96416029 481.06434953 641.96416029 481.9765625 639.7265625 C485.45967562 631.78305991 490.9628425 626.05433291 497 620 C497.64839844 619.32839844 498.29679687 618.65679688 498.96484375 617.96484375 C516.04296441 601.5593843 538.9013523 600.4188886 561.25390625 600.7578125 C575.2789561 601.14949784 586.61643994 604.50574796 599 611 C599 611.66 599 612.32 599 613 C599.886875 613.226875 600.77375 613.45375 601.6875 613.6875 C605.4641247 615.18389846 607.38617976 616.92491737 610 620 C610 620.66 610 621.32 610 622 C610.556875 622.226875 611.11375 622.45375 611.6875 622.6875 C620.32152135 627.5878905 624.50511461 637.71358212 628.75 646.25 C629.32234375 647.38953125 629.8946875 648.5290625 630.484375 649.703125 C635.95649188 663.49763089 634.27400804 679.95837299 634.23046875 694.4765625 C634.22973805 697.09832754 634.22979638 699.72009289 634.23059082 702.34185791 C634.23061486 708.60990608 634.21939264 714.87788255 634.20333564 721.14590836 C634.19045707 726.19494681 634.18119448 731.24397984 634.17422485 736.29302979 C634.14639118 755.86216105 634.0863353 775.43104106 634 795 C633.99508545 796.137789 633.9901709 797.275578 633.98510742 798.44784546 C633.92907756 811.16626716 633.84439472 823.88396038 633.70996475 836.60179901 C633.68797207 838.82723174 633.67049682 841.05265484 633.65438843 843.27813721 C633.43478004 871.93416826 630.95992031 900.03260782 626.23828125 928.296875 C625.42093704 933.23677245 624.7030884 938.16942206 624.10546875 943.140625 C622.05074176 960.00310818 617.96688582 975.56705627 612.97314453 991.734375 C611.78883803 995.70860576 610.83250968 999.70320609 609.9375 1003.75 C608.11284815 1011.39177587 605.08574458 1018.38005621 601.9296875 1025.546875 C600.3527594 1029.12929347 598.98519484 1032.74333221 597.6875 1036.4375 C588.92658351 1059.70027484 572.59536584 1084.58094043 555 1102 C554.00767072 1103.13445317 553.0276594 1104.27984343 552.0625 1105.4375 C546.93239233 1111.46091 541.20851601 1117.0844166 535 1122 C534.34 1122 533.68 1122 533 1122 C532.61328125 1122.88945312 532.61328125 1122.88945312 532.21875 1123.796875 C530.90230105 1126.17660965 529.57419218 1127.50978792 527.5 1129.25 C526.8915625 1129.77078125 526.283125 1130.2915625 525.65625 1130.828125 C524 1132 524 1132 522 1132 C522 1132.66 522 1133.32 522 1134 C520.1015625 1135.40234375 520.1015625 1135.40234375 517.625 1136.9375 C514.51789754 1138.86587629 513.06851285 1139.89723073 511 1143 C508.94140625 1144.38671875 508.94140625 1144.38671875 506.5625 1145.6875 C505.38880859 1146.34298828 505.38880859 1146.34298828 504.19140625 1147.01171875 C502 1148 502 1148 499 1148 C498.67 1148.99 498.34 1149.98 498 1151 C496.22265625 1152.16796875 496.22265625 1152.16796875 494.0625 1153.1875 C492.99708984 1153.70376953 492.99708984 1153.70376953 491.91015625 1154.23046875 C490 1155 490 1155 488 1155 C488 1155.66 488 1156.32 488 1157 C482.73481134 1159.91287053 477.47148293 1162.79897174 472.0625 1165.4375 C468.24048436 1167.30913682 464.63398062 1169.41119571 461 1171.625 C456.58712403 1174.24128524 452.62189467 1175.85679993 447.68359375 1177.12890625 C444.30827531 1178.22453363 441.33158724 1179.79423672 438.1875 1181.4375 C431.64194528 1184.83868213 425.09637442 1187.03853022 418 1189 C415.91358733 1189.61113016 413.82998591 1190.23132155 411.74633789 1190.85180664 C409.56859553 1191.49819076 407.38827248 1192.13506421 405.20703125 1192.76953125 C402.55284974 1193.54212979 399.90672709 1194.33243722 397.26171875 1195.13671875 C390.74324525 1197.08718524 384.38791485 1198.57283216 377.64134216 1199.46559143 C374.46660481 1199.93152041 371.33347475 1200.50634345 368.18550014 1201.12393284 C359.043332 1202.87965423 350.25295668 1203.48913993 340.93359375 1203.50390625 C339.44271089 1203.51361155 337.95183054 1203.52370799 336.46095276 1203.53416443 C333.35419139 1203.55194608 330.24767764 1203.55770551 327.14086914 1203.5559082 C324.03160432 1203.55566654 320.92368571 1203.57617937 317.81469727 1203.61743164 C290.7737576 1203.97055058 265.09972265 1201.38636759 239.375 1192.4296875 C234.57752756 1190.79339112 229.68523033 1189.69742615 224.75 1188.5625 C214.75438468 1186.21110259 206.19840015 1182.31147405 197.1484375 1177.4765625 C194.64648869 1176.30319197 192.38237313 1175.46264953 189.76171875 1174.65625 C184.39898869 1172.93046886 179.69002536 1170.28399252 174.8125 1167.5 C173.09039476 1166.53027083 171.36775179 1165.56149589 169.64453125 1164.59375 C168.83918945 1164.13991943 168.03384766 1163.68608887 167.20410156 1163.21850586 C164.50946904 1161.72881701 161.75914416 1160.36571698 159 1159 C157.19586256 1158.00137181 155.40326818 1156.98149829 153.625 1155.9375 C152.75101563 1155.43089844 151.87703125 1154.92429687 150.9765625 1154.40234375 C150.32429687 1153.93957031 149.67203125 1153.47679687 149 1153 C149 1152.34 149 1151.68 149 1151 C147.948125 1150.62875 147.948125 1150.62875 146.875 1150.25 C143.60485452 1148.82819762 140.858878 1147.12753712 138 1145 C138 1144.34 138 1143.68 138 1143 C137.42636719 1142.89945313 136.85273438 1142.79890625 136.26171875 1142.6953125 C133.56744925 1141.8670224 131.99736087 1140.64995073 129.8125 1138.875 C126.68555982 1136.35493308 123.53043415 1133.90257921 120.3125 1131.5 C116.86303294 1128.83641152 114.11225813 1126.04952618 111.484375 1122.578125 C110.02572892 1120.87029688 110.02572892 1120.87029688 107.796875 1119.7578125 C103.81052023 1117.25242193 100.77484037 1113.98414319 97.5 1110.625 C96.84902344 1109.965 96.19804688 1109.305 95.52734375 1108.625 C94.2568475 1107.33653714 92.98878298 1106.04567107 91.72338867 1104.75219727 C90.25410886 1103.2583566 88.76391418 1101.78513453 87.26953125 1100.31640625 C85.07588179 1098.07744906 83.11331155 1095.78374837 81.1875 1093.3125 C80.58292969 1092.54550781 79.97835937 1091.77851562 79.35546875 1090.98828125 C78 1089 78 1089 78 1087 C77.4225 1086.773125 76.845 1086.54625 76.25 1086.3125 C72.73109764 1084.25980696 70.7432202 1081.28581655 68.7265625 1077.796875 C66.08905467 1073.524351 62.9992783 1069.59260816 59.93945312 1065.61523438 C57.1219689 1061.8598596 55.20625627 1058.61803435 54 1054 C53.34 1054 52.68 1054 52 1054 C49.42366661 1050.47901103 47.26471134 1046.79066892 45.13671875 1042.98046875 C44.29189832 1041.50856511 43.41411885 1040.0554792 42.51953125 1038.61328125 C39.74034178 1034.13226712 37.47321327 1029.920855 35.77734375 1024.93359375 C34.61028794 1022.03061572 32.89254811 1019.54277628 31.1953125 1016.92578125 C28.51132387 1012.60157735 26.9636613 1007.98036107 25.5625 1003.125 C24.61321797 999.85415776 23.54020112 996.78502855 22.125 993.6875 C17.33193706 983.16837332 14.19536535 973.01129948 11.96875 961.70703125 C11.13318746 957.5130847 10.08586077 953.43180926 8.9375 949.3125 C5.28760271 935.98652838 3.47768965 922.67256463 2.375 908.9375 C2.1936064 906.76295931 2.00987596 904.58863771 1.82437134 902.41444397 C1.65919258 900.4666669 1.5000404 898.51838141 1.34130859 896.57006836 C1.12125674 894.26833857 0.84055709 891.97121948 0.48643062 889.68627369 C0.02892033 886.21916435 -0.12469188 882.94322601 -0.1241985 879.4495526 C-0.12644579 878.1638139 -0.12869308 876.87807521 -0.13100848 875.55337474 C-0.12844311 874.13614128 -0.1257862 872.71890798 -0.12304783 871.30167484 C-0.12378781 869.7825069 -0.12496676 868.26333913 -0.12654433 866.74417183 C-0.12961423 862.55877223 -0.12643748 858.37339691 -0.12226619 854.18799913 C-0.11883321 849.63879493 -0.12120256 845.08959321 -0.12284368 840.54038852 C-0.12491845 832.56390513 -0.12327188 824.58742919 -0.11920547 816.61094666 C-0.11317564 804.75016892 -0.11286919 792.8893959 -0.11374746 781.02861691 C-0.11506209 761.07784384 -0.11171721 741.12707407 -0.10573006 721.17630196 C-0.09981597 701.41840155 -0.0959647 681.66050253 -0.09487724 661.90260124 C-0.0948085 660.67477917 -0.09473976 659.4469571 -0.09466894 658.1819283 C-0.09433061 651.94661122 -0.09402923 645.71129414 -0.09374207 639.47597706 C-0.09164085 595.29461202 -0.08490201 551.11324878 -0.07543945 506.93188477 C-0.07314779 496.22239177 -0.07087243 485.51289877 -0.06866455 474.80340576 C-0.06845913 473.80710112 -0.06845913 473.80710112 -0.06824955 472.79066912 C-0.06190556 441.91396491 -0.05817991 411.03726055 -0.05512976 380.16055587 C-0.05493169 378.15603517 -0.0547325 376.15151447 -0.05453308 374.14699378 C-0.0532133 360.86293879 -0.05193876 347.57888379 -0.05069422 334.29482879 C-0.04815791 307.23292437 -0.04533665 280.17101998 -0.04234314 253.1091156 C-0.04220585 251.86481344 -0.04206856 250.62051129 -0.04192711 249.33850301 C-0.0327242 166.22566792 -0.01687873 83.11283384 0 0 Z " fill="#0AC198" transform="translate(0,0)"/>
<path d="M0 0 C24.14463694 -0.70284046 49.30555312 6.21134085 67.453125 22.72265625 C69.29175717 24.78938941 70.95327047 26.89702626 72.59375 29.12109375 C73.955 30.45140625 73.955 30.45140625 75.34375 31.80859375 C77.87929751 34.41457313 79.66409711 37.04794285 81.59375 40.12109375 C84.3363885 37.45681635 86.86366752 34.82224033 89.21875 31.80859375 C90.0025 30.92171875 90.78625 30.03484375 91.59375 29.12109375 C92.58375 29.12109375 93.57375 29.12109375 94.59375 29.12109375 C94.69816406 28.52425781 94.80257812 27.92742188 94.91015625 27.3125 C97.55234925 18.84238416 111.68942974 12.38785414 119.05273438 8.36767578 C140.99326141 -2.39599937 170.03033462 -3.10704551 192.96875 4.62109375 C204.11901996 8.62431387 215.44380506 14.41143735 223.59375 23.12109375 C224.84865234 24.30638672 224.84865234 24.30638672 226.12890625 25.515625 C230.54757306 29.74306666 234.32366065 33.46600178 236.734375 39.12890625 C238.01039104 42.08694344 239.69844771 44.7915873 241.34765625 47.5546875 C244.53121348 54.11141823 246.13501925 60.75544302 246.7668457 67.98608398 C246.84662564 68.87158904 246.92640558 69.7570941 247.0086031 70.66943264 C248.1107652 84.67774171 247.86571612 98.76990076 247.82946944 112.81186223 C247.82055719 117.00327076 247.82244874 121.19467706 247.8228302 125.38609314 C247.82190087 132.39974872 247.81330766 139.41336038 247.79956055 146.42700195 C247.78373819 154.52928668 247.77856642 162.63152382 247.7792961 170.73382288 C247.77997091 179.39888883 247.77304603 188.06393655 247.7638495 196.72899699 C247.76172103 199.21608662 247.76100878 201.7031733 247.76061058 204.19026375 C247.75960703 208.08679509 247.75350951 211.98328646 247.74344444 215.87980461 C247.74052372 217.30847809 247.73929321 218.73715617 247.73987198 220.16583252 C247.74036269 222.11418585 247.73408874 224.06253739 247.72746277 226.01087952 C247.72578692 227.10081742 247.72411108 228.19075533 247.72238445 229.31372166 C247.59375 232.12109375 247.59375 232.12109375 246.59375 236.12109375 C219.86375 236.12109375 193.13375 236.12109375 165.59375 236.12109375 C165.57957031 226.40542969 165.56539062 216.68976563 165.55078125 206.6796875 C165.53071148 200.50453104 165.50938468 194.32942073 165.48242188 188.15429688 C165.43990847 178.36464167 165.402355 168.5751571 165.39819336 158.78540039 C165.39513786 151.65344144 165.37443626 144.52178017 165.33322543 137.38993603 C165.31203624 133.61946543 165.29922124 129.84941648 165.30759621 126.07888603 C165.7777308 99.24727954 165.7777308 99.24727954 153.55859375 76.07421875 C146.41761168 68.97582703 137.40569717 67.82791842 127.59375 67.74609375 C119.60950798 67.83153748 110.67343396 68.31884178 104.15625 73.43359375 C103.310625 74.32046875 102.465 75.20734375 101.59375 76.12109375 C100.7275 76.90484375 99.86125 77.68859375 98.96875 78.49609375 C92.11494955 87.12095549 92.00582935 101.17649085 92.04785156 111.58374023 C92.03908537 112.95540521 92.0285892 114.32706002 92.01652527 115.69869995 C91.98901628 119.36926598 91.98525267 123.03949263 91.98624516 126.71014667 C91.98308535 130.56587728 91.95740439 134.42146173 91.93426514 138.27711487 C91.89393392 145.55459483 91.87341872 152.83198571 91.86029124 160.10956007 C91.84135221 169.96049925 91.79125754 179.81127907 91.74304771 189.66211033 C91.66806747 205.14842973 91.63424297 220.63455677 91.59375 236.12109375 C64.53375 236.12109375 37.47375 236.12109375 9.59375 236.12109375 C9.55507812 221.7815625 9.55507812 221.7815625 9.515625 207.15234375 C9.49043961 201.07289656 9.46425461 194.99348047 9.43359375 188.9140625 C9.38518016 179.27816021 9.34068723 169.64236135 9.32275391 160.00634766 C9.30966988 152.98610731 9.28253529 145.9660793 9.23913693 138.94595861 C9.21667232 135.23531837 9.20083017 131.52493851 9.20186615 127.81422424 C9.99781057 100.10703756 9.99781057 100.10703756 -2.1875 76.2578125 C-9.7816618 68.94442076 -19.32870398 67.54947372 -29.6328125 66.9921875 C-33.90893243 67.13826613 -37.81475087 67.76382266 -41.96875 68.74609375 C-42.96878052 68.97437866 -42.96878052 68.97437866 -43.98901367 69.20727539 C-51.40325487 71.19627821 -55.08248424 76.56889705 -59.05078125 82.73046875 C-64.92494734 93.09066946 -64.5565584 104.77362557 -64.61157227 116.35180664 C-64.62147186 117.65034576 -64.63137146 118.94888489 -64.64157104 120.28677368 C-64.66841171 123.82123285 -64.68953293 127.35570509 -64.70957303 130.89020848 C-64.73156244 134.59377578 -64.75888725 138.29730376 -64.78562927 142.00083923 C-64.83538213 149.00225465 -64.88038493 156.00369209 -64.92365164 163.00515026 C-64.98244652 172.4745327 -65.04863898 181.9438633 -65.11440182 191.41319942 C-65.21770393 206.31579585 -65.31117401 221.21843732 -65.40625 236.12109375 C-91.47625 236.12109375 -117.54625 236.12109375 -144.40625 236.12109375 C-144.40625 160.88109375 -144.40625 85.64109375 -144.40625 8.12109375 C-118.33625 8.12109375 -92.26625 8.12109375 -65.40625 8.12109375 C-64.41625 17.52609375 -64.41625 17.52609375 -63.40625 27.12109375 C-62.74625 27.12109375 -62.08625 27.12109375 -61.40625 27.12109375 C-61.40625 26.46109375 -61.40625 25.80109375 -61.40625 25.12109375 C-59.43618211 23.59248924 -57.47614559 22.18994091 -55.40625 20.80859375 C-54.81191162 20.40487549 -54.21757324 20.00115723 -53.60522461 19.58520508 C-49.82439583 17.03023001 -46.00495536 14.54653831 -42.10546875 12.17578125 C-40.45929799 11.15402009 -38.86850504 10.04467227 -37.28125 8.93359375 C-34.32432082 7.06944274 -31.72808571 6.17564477 -28.40625 5.12109375 C-27.42527344 4.77949219 -26.44429687 4.43789063 -25.43359375 4.0859375 C-16.84848404 1.23146992 -8.9700858 0.45141666 0 0 Z " fill="#000000" transform="translate(2768.40625,606.87890625)"/>
<path d="M0 0 C21.35185615 -0.37254084 40.56679093 2.06888178 59.1796875 13.11328125 C61.1150377 14.13818445 63.05254151 15.15903134 64.9921875 16.17578125 C69.18471982 18.45224221 72.67139197 20.88944212 76.1796875 24.11328125 C76.31246094 23.11425781 76.44523437 22.11523438 76.58203125 21.0859375 C76.75863281 19.79558594 76.93523437 18.50523437 77.1171875 17.17578125 C77.29121094 15.88800781 77.46523437 14.60023438 77.64453125 13.2734375 C78.1796875 10.11328125 78.1796875 10.11328125 79.1796875 9.11328125 C83.94262717 8.2650766 88.53691426 7.98703239 93.3684082 7.98388672 C94.04896774 7.9821344 94.72952728 7.98038208 95.43070984 7.97857666 C97.65565624 7.97421396 99.8805217 7.97707462 102.10546875 7.98046875 C103.66009028 7.9797945 105.21471171 7.97882346 106.76933289 7.97756958 C110.01460787 7.97610052 113.2598552 7.97822311 116.50512695 7.98291016 C120.66927676 7.98863084 124.83336245 7.98530872 128.99750996 7.97933769 C132.20159899 7.97573096 135.40567271 7.97687077 138.60976219 7.97946548 C140.14599808 7.98013321 141.68223535 7.9793117 143.21846962 7.97698593 C145.35833069 7.97445501 147.49808627 7.97830512 149.63793945 7.98388672 C151.46492119 7.98508011 151.46492119 7.98508011 153.32881165 7.98629761 C156.1796875 8.11328125 156.1796875 8.11328125 158.1796875 9.11328125 C158.1796875 84.02328125 158.1796875 158.93328125 158.1796875 236.11328125 C124.29136584 237.28184407 124.29136584 237.28184407 113.5546875 237.23828125 C111.71076416 237.23538086 111.71076416 237.23538086 109.82958984 237.23242188 C99.92343342 237.18571308 90.06042924 236.81015976 80.1796875 236.11328125 C78.81977012 229.78900526 77.80288871 223.55302706 77.1796875 217.11328125 C74.71738753 217.83073481 74.71738753 217.83073481 72.1796875 219.11328125 C71.72722656 220.056875 71.72722656 220.056875 71.265625 221.01953125 C69.94169905 223.57213668 68.63063284 224.40352704 66.1796875 225.86328125 C65.4784375 226.29125 64.7771875 226.71921875 64.0546875 227.16015625 C62.1796875 228.11328125 62.1796875 228.11328125 60.1796875 228.11328125 C60.1796875 228.77328125 60.1796875 229.43328125 60.1796875 230.11328125 C58.203125 231.55078125 58.203125 231.55078125 55.5546875 233.11328125 C54.69617187 233.62890625 53.83765625 234.14453125 52.953125 234.67578125 C50.07175527 236.16922359 47.27298997 237.14121292 44.1796875 238.11328125 C43.138125 238.50386719 42.0965625 238.89445313 41.0234375 239.296875 C15.923986 248.70916931 -9.58287038 248.88559778 -34.70703125 239.296875 C-37.31380431 238.30584334 -39.89909064 237.46638807 -42.5703125 236.67578125 C-47.79494319 234.94385947 -52.22032132 232.08776235 -56.8203125 229.11328125 C-57.78195312 228.51386719 -58.74359375 227.91445313 -59.734375 227.296875 C-74.97587136 217.5494064 -86.58902512 205.20531575 -94.8203125 189.11328125 C-95.39652344 188.08203125 -95.97273438 187.05078125 -96.56640625 185.98828125 C-99.6326541 180.48050965 -102.44926086 175.18025066 -104.21484375 169.11328125 C-104.80833454 167.03533614 -104.80833454 167.03533614 -105.77758789 164.796875 C-117.2278333 135.32810948 -114.06692 99.6160667 -101.67236328 71.02246094 C-96.69056682 59.85981098 -91.43375489 48.71474276 -82.6640625 39.9609375 C-80.71771049 38.18586082 -80.71771049 38.18586082 -79.5703125 35.80078125 C-77.01172918 31.8715283 -73.58807361 28.88910525 -69.8203125 26.11328125 C-69.1603125 26.11328125 -68.5003125 26.11328125 -67.8203125 26.11328125 C-67.3253125 24.62828125 -67.3253125 24.62828125 -66.8203125 23.11328125 C-61.84199217 18.26596935 -55.9668888 15.26226615 -49.8203125 12.11328125 C-49.09827637 11.72172852 -48.37624023 11.33017578 -47.63232422 10.92675781 C-41.40316178 7.64096425 -35.26900317 5.5569761 -28.4453125 3.86328125 C-27.4258252 3.60659668 -26.40633789 3.34991211 -25.35595703 3.08544922 C-16.7746574 0.98853059 -8.80282855 0.20734353 0 0 Z M-0.8203125 78.11328125 C-1.66722656 78.64050781 -2.51414062 79.16773438 -3.38671875 79.7109375 C-14.23152709 86.80612507 -20.70022091 97.65744249 -24.3918457 110.02856445 C-27.40880927 124.70768233 -24.89693747 138.78841464 -17.3203125 151.48828125 C-16.49719898 152.70359933 -15.66399484 153.91215095 -14.8203125 155.11328125 C-14.18416016 156.10521484 -14.18416016 156.10521484 -13.53515625 157.1171875 C-11.34384795 160.77252068 -11.34384795 160.77252068 -7.73046875 162.6171875 C-7.10011719 162.78089844 -6.46976563 162.94460938 -5.8203125 163.11328125 C-5.4903125 164.10328125 -5.1603125 165.09328125 -4.8203125 166.11328125 C-2.68149054 167.44892946 -0.6414287 168.58295916 1.6171875 169.67578125 C2.2568042 169.98588135 2.8964209 170.29598145 3.55541992 170.61547852 C16.31896376 176.60064314 31.84364415 177.05917595 45.375 173.1796875 C50.25427852 171.32447436 54.72769535 168.82128435 59.1796875 166.11328125 C59.1796875 165.45328125 59.1796875 164.79328125 59.1796875 164.11328125 C60.324375 163.71109375 60.324375 163.71109375 61.4921875 163.30078125 C64.06957368 162.1619362 65.44923614 161.29911454 67.1796875 159.11328125 C67.1796875 158.45328125 67.1796875 157.79328125 67.1796875 157.11328125 C67.8396875 157.11328125 68.4996875 157.11328125 69.1796875 157.11328125 C70.47642352 154.57409119 71.76716587 152.03213887 73.0546875 149.48828125 C73.41949219 148.77542969 73.78429688 148.06257813 74.16015625 147.328125 C81.22245682 133.33192933 82.0446313 119.03244223 77.1796875 104.11328125 C73.17402772 94.24153785 68.49796531 85.73941125 59.1796875 80.11328125 C58.40109375 79.62730469 57.6225 79.14132812 56.8203125 78.640625 C38.80920491 67.53377532 17.35580172 66.32595938 -0.8203125 78.11328125 Z " fill="#000000" transform="translate(1892.8203125,606.88671875)"/>
<path d="M0 0 C1.20527344 0.31582031 2.41054687 0.63164063 3.65234375 0.95703125 C18.3022198 4.98408156 34.39205164 10.95458419 45.0625 22.08984375 C46.95789802 24.10981583 46.95789802 24.10981583 49.51171875 25.5 C52.14900661 27.08982502 53.8145124 28.73369092 55.8125 31.0625 C56.41707031 31.75472656 57.02164063 32.44695313 57.64453125 33.16015625 C59 35 59 35 59 37 C59.5775 37.226875 60.155 37.45375 60.75 37.6875 C66.61240982 41.10723906 69.65484755 47.97178959 72.12890625 54.03515625 C72.97404333 56.02612639 72.97404333 56.02612639 74.08984375 57.93359375 C84.07687517 75.83367243 86.02279672 96.77729363 86.3125 116.875 C86.33038574 117.71361572 86.34827148 118.55223145 86.36669922 119.41625977 C86.36004635 124.06518977 86.11353449 127.28125857 83 131 C79.63501605 132.12166132 77.11236294 132.12303239 73.5650177 132.12025452 C72.58112022 132.12153615 72.58112022 132.12153615 71.57734603 132.12284368 C69.375511 132.12449315 67.17375186 132.11898584 64.97192383 132.11352539 C63.39514671 132.11324338 61.81836945 132.11340153 60.24159241 132.1139679 C55.95677128 132.11425532 51.67197804 132.10836743 47.3871634 132.10139394 C42.91083558 132.09515129 38.43450716 132.09455588 33.95817566 132.09336853 C25.47968682 132.09025791 17.00121084 132.08204813 8.52272767 132.07201904 C-1.12890983 132.06084957 -10.78054794 132.05534535 -20.4321903 132.05032361 C-40.28813405 132.03986531 -60.14406622 132.02227105 -80 132 C-79.58797623 134.71399903 -79.1585086 137.4232872 -78.71875 140.1328125 C-78.60499023 140.89440674 -78.49123047 141.65600098 -78.37402344 142.44067383 C-77.12513036 149.9705259 -73.81557616 155.37520265 -68.28125 160.6328125 C-67 162 -67 162 -67 164 C-66.30261719 164.26941406 -65.60523437 164.53882813 -64.88671875 164.81640625 C-61.80201723 166.08117562 -58.81948475 167.49810291 -55.8125 168.9375 C-40.79146856 175.78655447 -25.69034442 177.89981523 -9.78515625 172.12890625 C-8.86605469 171.75636719 -7.94695313 171.38382813 -7 171 C-5.79150391 170.54947266 -5.79150391 170.54947266 -4.55859375 170.08984375 C0.7745318 167.94731853 5.22945481 164.90292794 9.8359375 161.48828125 C12 160 12 160 15 159 C15.309375 158.360625 15.61875 157.72125 15.9375 157.0625 C17.28207538 154.4524419 18.30747973 154.08593196 21 153 C28.6282628 151.77592606 34.00426322 153.89475456 40.5 157.6875 C42.16117338 158.60988838 43.82262886 159.5317689 45.484375 160.453125 C46.26619141 160.89591797 47.04800781 161.33871094 47.85351562 161.79492188 C52.90803298 164.63262634 58.09093945 167.20166559 63.4375 169.4375 C70.23413349 172.4184796 76.65918851 176.15430928 83 180 C82.40849224 183.36420039 81.31578312 185.080538 79 187.5625 C76.04912011 190.79040127 73.32113893 194.11901028 70.625 197.5625 C67.15072846 201.83898025 63.61279985 205.17542618 59.16015625 208.3984375 C57.07805017 209.94213279 55.25602893 211.59553851 53.375 213.375 C48.08619597 218.07264031 41.94518393 221.45787017 35.82910156 224.95410156 C34.16869134 225.90354062 32.51738815 226.86886231 30.8671875 227.8359375 C26.40958102 230.38136738 22.40566521 232.43647735 17.3203125 233.4453125 C14.16283505 234.20013034 11.18024492 235.34124439 8.125 236.4375 C-19.95949868 245.95032945 -51.21835142 244.04926917 -79.203125 235.1796875 C-82.37615423 234.19382862 -85.51815474 233.38158805 -88.75 232.625 C-95.35726382 230.88410306 -101.12979036 227.40640146 -107 224 C-107 223.34 -107 222.68 -107 222 C-107.886875 221.731875 -108.77375 221.46375 -109.6875 221.1875 C-112.7909666 220.0749365 -115.31110685 218.89804222 -118 217 C-118 216.34 -118 215.68 -118 215 C-118.639375 214.731875 -119.27875 214.46375 -119.9375 214.1875 C-122 213 -122 213 -123 210 C-123.86625 209.814375 -123.86625 209.814375 -124.75 209.625 C-131.04114837 207.87745878 -136.49719062 199.12818247 -140 194 C-140 193.01 -140 192.02 -140 191 C-140.66 191 -141.32 191 -142 191 C-148.2832483 184.10334751 -151.65995089 175.49825691 -155.15478516 167.00195312 C-155.94823391 165.12261177 -156.80606793 163.27082384 -157.66796875 161.421875 C-168.8038368 137.33540485 -168.63301284 103.86438876 -159.625 79 C-157.7655971 74.50035732 -155.64962246 70.25329022 -153.11328125 66.09765625 C-151.8791609 63.9294908 -151.8791609 63.9294908 -151.09765625 61.08984375 C-149.8886563 57.68657343 -148.30791815 55.36662459 -146.125 52.5 C-142.84438644 48.14849797 -142.84438644 48.14849797 -139.8125 43.625 C-137.80370639 40.7157127 -135.50538942 38.4945279 -133 36 C-130.44878638 33.15789299 -127.922512 30.29543354 -125.40234375 27.42578125 C-123.23605031 25.23835324 -121.75125957 24.21690327 -119 23 C-118.278125 22.2575 -117.55625 21.515 -116.8125 20.75 C-111.40660247 15.46423352 -105.23111974 11.86549655 -98.2734375 8.9921875 C-95.99379762 8.04375678 -95.99379762 8.04375678 -93.9140625 6.8203125 C-68.52515486 -7.52219322 -27.27385005 -7.93116866 0 0 Z M-65 58 C-66.26935937 60.05642717 -66.26935937 60.05642717 -67 62 C-67.66 62 -68.32 62 -69 62 C-74.07882024 68.0863036 -77 74.02396981 -77 82 C-50.27 82 -23.54 82 4 82 C2.58712856 73.52277136 0.66746891 66.73712441 -6 61 C-6.70298218 60.18136475 -6.70298218 60.18136475 -7.42016602 59.34619141 C-12.18518985 53.90905461 -16.65141886 52.42498539 -23.625 51.0625 C-24.553125 50.85560547 -25.48125 50.64871094 -26.4375 50.43554688 C-38.91861951 47.74441724 -54.4562045 50.21659731 -65 58 Z " fill="#000000" transform="translate(3569,611)"/>
<path d="M0 0 C1.22881393 -0.00855011 1.22881393 -0.00855011 2.48245239 -0.01727295 C4.21550217 -0.02669002 5.94856958 -0.03324379 7.68164062 -0.03710938 C10.27768214 -0.04671723 12.87289718 -0.07773032 15.46875 -0.109375 C39.74711841 -0.26340642 71.61418014 5.4951105 90.4453125 22.203125 C90.4453125 22.863125 90.4453125 23.523125 90.4453125 24.203125 C91.2496875 24.574375 91.2496875 24.574375 92.0703125 24.953125 C98.48128371 28.32732038 102.53846514 32.28927961 107.296875 37.765625 C109.39230155 40.2078197 109.39230155 40.2078197 111.63671875 42.32421875 C113.64263882 44.40812275 114.43301449 46.4286455 115.46875 49.09765625 C116.69392242 51.73912798 118.26164945 54.03517756 119.8828125 56.453125 C131.47652182 74.51208942 134.38412297 99.82586234 134.8203125 120.890625 C134.84649658 121.64569336 134.87268066 122.40076172 134.8996582 123.17871094 C134.91090361 126.86553864 134.57002152 129.00226388 132.609375 132.16015625 C128.9939003 135.57332099 125.81897766 135.32713892 121.04829407 135.32337952 C120.39644597 135.32423394 119.74459787 135.32508837 119.0729968 135.32596868 C116.88498113 135.32761808 114.69704183 135.32211095 112.5090332 135.31665039 C110.94210817 135.31636838 109.37518301 135.31652653 107.80825806 135.3170929 C103.55029551 135.31738031 99.29236101 135.31149252 95.03440499 135.30451894 C90.5861044 135.2982762 86.1378032 135.29768087 81.6894989 135.29649353 C73.26413397 135.29338294 64.83878199 135.2851732 56.41342276 135.27514404 C46.82224361 135.26397448 37.23106385 135.25847032 27.63987982 135.25344861 C7.90835015 135.24299037 -11.82316786 135.22539617 -31.5546875 135.203125 C-31.42338827 137.11976398 -31.28395719 139.03584699 -31.14111328 140.95166016 C-31.06434357 142.01873199 -30.98757385 143.08580383 -30.90847778 144.18521118 C-30.03840798 151.60710996 -25.7850677 159.67371826 -20.2421875 164.703125 C-19.04142717 165.57689256 -17.80941622 166.40880077 -16.5546875 167.203125 C-15.7915625 167.71101562 -15.0284375 168.21890625 -14.2421875 168.7421875 C-0.3514828 177.55410329 14.96451199 180.71228594 31.1953125 177.44921875 C34.3509472 176.50029558 37.38771755 175.42954621 40.4453125 174.203125 C41.26386719 173.89117188 42.08242187 173.57921875 42.92578125 173.2578125 C50.79888757 170.03268461 57.59551908 165.23552785 63.83984375 159.5 C67.92124216 156.20310396 71.54812769 155.64583976 76.69140625 155.765625 C80.78572599 156.41607012 83.78692918 158.23331819 87.3125 160.34765625 C91.02457587 162.54620493 94.83240081 164.4738655 98.6953125 166.390625 C99.3567627 166.72320313 100.01821289 167.05578125 100.69970703 167.3984375 C104.89002108 169.48991973 109.12487574 171.39548112 113.4453125 173.203125 C113.4453125 173.863125 113.4453125 174.523125 113.4453125 175.203125 C114.651875 175.5434375 114.651875 175.5434375 115.8828125 175.890625 C120.35816989 177.53944088 124.33252568 179.80856912 128.4453125 182.203125 C127.95697625 187.07930612 126.64020547 189.8741593 123.6953125 193.765625 C122.97730469 194.71566406 122.25929688 195.66570312 121.51953125 196.64453125 C119.91622895 198.62223936 118.33521879 200.44002626 116.5078125 202.203125 C114.21836412 204.11577101 114.21836412 204.11577101 113.4453125 207.203125 C111.5546875 208.8515625 111.5546875 208.8515625 109.1953125 210.578125 C106.5835578 212.53183196 104.35356356 214.30231304 102.1328125 216.703125 C98.68294939 219.91229999 94.91357395 222.00848717 90.8125 224.3046875 C88.54047498 225.5856668 86.29539654 226.91548593 84.078125 228.2890625 C75.81466114 233.38179943 67.96233723 236.02724499 58.4453125 238.203125 C55.90174952 238.90461836 53.36005551 239.61292502 50.8203125 240.328125 C39.82239321 243.24944731 28.79477589 244.60270178 17.4453125 245.203125 C16.27162109 245.26693359 16.27162109 245.26693359 15.07421875 245.33203125 C-1.53145884 245.76372131 -17.77117916 242.53050593 -33.33203125 236.9140625 C-35.78586965 236.09049858 -35.78586965 236.09049858 -39.31640625 235.3828125 C-43.80525082 234.27788214 -47.47422768 232.29828611 -51.4296875 229.953125 C-52.1309375 229.54400879 -52.8321875 229.13489258 -53.5546875 228.71337891 C-54.94174186 227.90309092 -56.32691185 227.0895666 -57.70996094 226.27246094 C-59.20015603 225.40863689 -60.72107833 224.59795411 -62.25 223.8046875 C-72.36791707 218.41989774 -90.78239173 204.17784522 -94.24609375 192.96484375 C-94.34792969 192.38347656 -94.44976563 191.80210937 -94.5546875 191.203125 C-95.2146875 191.203125 -95.8746875 191.203125 -96.5546875 191.203125 C-98.140625 189.11328125 -98.140625 189.11328125 -99.9296875 186.265625 C-100.51492188 185.34910156 -101.10015625 184.43257812 -101.703125 183.48828125 C-105.61184039 176.55319762 -108.43089717 169.1589147 -111.1796875 161.703125 C-111.62828125 160.51783203 -111.62828125 160.51783203 -112.0859375 159.30859375 C-112.37726563 158.52097656 -112.66859375 157.73335937 -112.96875 156.921875 C-113.2260791 156.23029297 -113.4834082 155.53871094 -113.74853516 154.82617188 C-115.92625491 147.74033873 -116.87065397 141.06861547 -116.890625 133.6640625 C-116.8972818 132.78013824 -116.9039386 131.89621399 -116.91079712 130.98550415 C-116.92085921 129.1249599 -116.92561615 127.26438003 -116.92529297 125.40380859 C-116.92964444 122.60581571 -116.96597283 119.80943135 -117.00390625 117.01171875 C-117.07434263 106.0496771 -116.16401423 96.64511422 -112.5546875 86.203125 C-112.22098145 85.22134277 -111.88727539 84.23956055 -111.54345703 83.22802734 C-110.57120437 80.52086818 -109.52723546 77.86176769 -108.4296875 75.203125 C-108.04570801 74.26960205 -107.66172852 73.3360791 -107.26611328 72.37426758 C-103.6498748 63.89920968 -99.06349011 56.55733081 -93.5546875 49.203125 C-92.89082031 48.29949219 -92.22695312 47.39585937 -91.54296875 46.46484375 C-88.47040805 42.39253445 -85.21359379 38.76574428 -81.5546875 35.203125 C-80.7503125 34.1925 -79.9459375 33.181875 -79.1171875 32.140625 C-76.44136123 29.0732144 -73.97185325 27.39526907 -70.5546875 25.203125 C-69.595625 24.35814453 -69.595625 24.35814453 -68.6171875 23.49609375 C-63.19876978 18.72675732 -57.53688899 15.46320495 -51.0546875 12.390625 C-50.27198486 12.01784424 -49.48928223 11.64506348 -48.68286133 11.26098633 C-40.35924606 7.43989882 -31.70562702 5.12714423 -22.8046875 3.078125 C-22.08925781 2.90925781 -21.37382813 2.74039063 -20.63671875 2.56640625 C-13.70165011 0.95034438 -7.12156567 0.03920861 0 0 Z M-18.5546875 63.203125 C-19.93174514 64.83385116 -21.28190861 66.4897688 -22.5546875 68.203125 C-23.5446875 68.698125 -23.5446875 68.698125 -24.5546875 69.203125 C-25.69626312 71.59996027 -25.69626312 71.59996027 -26.6796875 74.453125 C-27.03289062 75.40703125 -27.38609375 76.3609375 -27.75 77.34375 C-28.78043575 80.51022413 -28.78043575 80.51022413 -28.5546875 85.203125 C-2.1546875 85.203125 24.2453125 85.203125 51.4453125 85.203125 C50.14833155 74.82727738 46.47128167 67.07906037 38.79296875 59.859375 C34.45036481 56.79570766 29.56133341 55.45213976 24.4453125 54.203125 C23.27548828 53.91695312 23.27548828 53.91695312 22.08203125 53.625 C7.85727273 51.34903864 -7.77666864 52.82429203 -18.5546875 63.203125 Z " fill="#000000" transform="translate(1629.5546875,607.796875)"/>
<path d="M0 0 C2.13059067 1.90114244 3.76893284 4.11141591 5.5234375 6.359375 C6.86367881 7.52146562 8.21933932 8.66589719 9.5859375 9.796875 C12.99828288 12.71814484 14.73623227 15.18922947 16.5234375 19.359375 C17.72532156 21.34388124 18.97783444 23.28921644 20.2421875 25.234375 C27.92643396 37.97897889 29.1227969 51.7096462 29.08520508 66.19873047 C29.0956099 67.81360001 29.10772672 69.42845926 29.12139893 71.04330444 C29.15317961 75.37298745 29.16102807 79.70239996 29.16387391 84.03218603 C29.17078501 88.57964197 29.19937067 93.1269667 29.2252655 97.67434692 C29.2656163 105.2911914 29.29157588 112.90796905 29.30737305 120.52490234 C29.32771912 130.30847829 29.37096129 140.09181232 29.42166615 149.87527275 C29.46527725 158.29948675 29.49990233 166.72373375 29.53233123 175.14799738 C29.54297681 177.8536106 29.55459462 180.55921861 29.56623268 183.26482773 C29.58376682 187.50188725 29.59574005 191.73892834 29.60331726 195.976017 C29.60683708 197.53292575 29.61206787 199.08983167 29.61910057 200.64672852 C29.62832493 202.76466011 29.63133926 204.88250865 29.63264465 207.00045776 C29.63574552 208.18722548 29.63884638 209.37399319 29.64204121 210.59672356 C29.5234375 213.359375 29.5234375 213.359375 28.5234375 215.359375 C24.31965818 216.78184607 19.97184262 216.50705454 15.5859375 216.484375 C14.63533447 216.48171631 13.68473145 216.47905762 12.70532227 216.47631836 C2.1476341 216.41340387 -8.40868514 216.20215802 -18.96414185 215.98504639 C-21.00958854 215.94302459 -23.05506035 215.90220706 -25.10055542 215.86260986 C-28.01898231 215.8050395 -30.93721123 215.741324 -33.85546875 215.67578125 C-34.73594879 215.65905869 -35.61642883 215.64233612 -36.52359009 215.62510681 C-40.93600966 215.5187391 -45.13226273 215.22911929 -49.4765625 214.359375 C-51.4112251 208.6604328 -51.77557033 203.59204834 -51.77954102 197.59814453 C-51.78798035 196.64241547 -51.79641968 195.6866864 -51.80511475 194.70199585 C-51.83084706 191.54872098 -51.84303906 188.39554042 -51.85546875 185.2421875 C-51.87167321 183.02521045 -51.88885621 180.80824037 -51.90696716 178.59127808 C-51.95263661 172.74508964 -51.9874059 166.89889101 -52.01916504 161.0526123 C-52.07097147 151.76209899 -52.13744623 142.47169313 -52.20738029 133.18130112 C-52.22971445 129.97545987 -52.24631921 126.76963047 -52.26210022 123.56375122 C-52.32432928 113.06372145 -52.50200932 102.57179429 -52.86694336 92.07763672 C-52.91182436 90.58173099 -52.91182436 90.58173099 -52.95761204 89.05560493 C-53.52831358 74.39240784 -56.10459181 61.24974093 -67.3203125 50.82421875 C-75.17936938 45.48518554 -85.9660667 42.24498304 -95.4765625 43.359375 C-110.13949754 46.937057 -122.36456051 52.10409902 -130.4765625 65.359375 C-133.9045358 73.29923089 -136.58023475 81.11565052 -136.62805176 89.80656433 C-136.63639542 90.88755905 -136.64473907 91.96855377 -136.65333557 93.08230591 C-136.65751999 94.25808197 -136.66170441 95.43385803 -136.66601562 96.64526367 C-136.67430893 97.89123825 -136.68260223 99.13721283 -136.69114685 100.42094421 C-136.70853548 103.12463227 -136.72418994 105.8282652 -136.73692322 108.53197289 C-136.75718458 112.80498978 -136.78482891 117.07793946 -136.81359863 121.35090637 C-136.87871205 131.18811227 -136.93426299 141.02536776 -136.98958588 150.86263275 C-137.0404201 159.88789425 -137.09326476 168.91313114 -137.15411139 177.93833143 C-137.18248458 182.18862176 -137.20607071 186.43890398 -137.22603607 190.68924177 C-137.24253475 193.94674263 -137.26533554 197.20420069 -137.28710938 200.46166992 C-137.29129379 201.64351868 -137.29547821 202.82536743 -137.29978943 204.04302979 C-137.30813309 205.11556503 -137.31647675 206.18810028 -137.32507324 207.2931366 C-137.33022697 208.22871493 -137.33538071 209.16429327 -137.34069061 210.12822247 C-137.4765625 212.359375 -137.4765625 212.359375 -138.4765625 214.359375 C-162.93428268 224.14246307 -191.1347917 216.359375 -217.4765625 216.359375 C-217.4765625 140.789375 -217.4765625 65.219375 -217.4765625 -12.640625 C-212.45156416 -13.64562467 -207.76359822 -13.98865854 -202.6640625 -14.203125 C-201.1805127 -14.2657251 -201.1805127 -14.2657251 -199.66699219 -14.32958984 C-181.83292476 -14.99748139 -163.86480748 -15.10803836 -146.0390625 -14.203125 C-145.2646582 -14.16396973 -144.49025391 -14.12481445 -143.69238281 -14.08447266 C-138.61004762 -13.77411012 -138.61004762 -13.77411012 -137.4765625 -12.640625 C-137.0761795 -9.78533893 -136.7247398 -6.94326013 -136.4140625 -4.078125 C-136.27774414 -2.86866211 -136.27774414 -2.86866211 -136.13867188 -1.63476562 C-135.91408801 0.36284877 -135.69483014 2.3610606 -135.4765625 4.359375 C-134.95884277 3.97587891 -134.44112305 3.59238281 -133.90771484 3.19726562 C-128.7265625 -0.640625 -128.7265625 -0.640625 -126.4765625 -0.640625 C-125.9815625 -2.125625 -125.9815625 -2.125625 -125.4765625 -3.640625 C-123.47265625 -5.0703125 -123.47265625 -5.0703125 -120.9140625 -6.515625 C-117.76263029 -8.31580842 -114.7157878 -10.14762734 -111.7265625 -12.203125 C-79.45984534 -32.28883247 -28.48317869 -22.35388707 0 0 Z " fill="#000000" transform="translate(2545.4765625,628.640625)"/>
<path d="M0 0 C0.77730469 0.31839844 1.55460938 0.63679688 2.35546875 0.96484375 C7.80488887 3.21212674 12.60599019 6.16672945 17.51953125 9.4140625 C19.89613092 11.00564048 19.89613092 11.00564048 22.1796875 12.0390625 C24.60172781 13.31765031 25.91748784 15.24714709 27.5859375 17.37109375 C29.0771516 19.08887353 30.65503513 20.40301786 32.4375 21.8125 C35.99260559 24.74159787 38.22419607 28.08781288 40.65625 31.96875 C41.98928455 34.14108405 41.98928455 34.14108405 44.1875 36.125 C46.70831527 38.73273994 47.65131686 41.65761134 49 45 C49.70769531 46.13115234 49.70769531 46.13115234 50.4296875 47.28515625 C52.25413295 50.4393592 53.39598809 53.54800236 54.5625 57 C54.97628906 58.19625 55.39007812 59.3925 55.81640625 60.625 C58.77548723 70.64007284 59.36497178 80.92908418 59.3125 91.3125 C59.30686035 92.49166992 59.3012207 93.67083984 59.29541016 94.88574219 C58.93799378 120.65510921 49.49117448 142.16826106 32 161 C27.41694915 165 27.41694915 165 25 165 C24.74943848 165.60521484 24.49887695 166.21042969 24.24072266 166.83398438 C22.80793413 169.33530271 21.60450799 170.18683542 19.1484375 171.65625 C18.37886719 172.12160156 17.60929688 172.58695313 16.81640625 173.06640625 C16.01074219 173.53949219 15.20507812 174.01257813 14.375 174.5 C13.59253906 174.97308594 12.81007813 175.44617188 12.00390625 175.93359375 C4.11160888 180.65850146 -3.00006813 184.36578978 -12.0625 186.1875 C-12.82626953 186.35185547 -13.59003906 186.51621094 -14.37695312 186.68554688 C-37.40838113 191.55189651 -65.05289546 191.13142392 -85.875 178.8984375 C-87.28077967 177.97765181 -88.64378973 176.99234897 -90 176 C-90.763125 175.566875 -91.52625 175.13375 -92.3125 174.6875 C-98.98635138 170.49694216 -105.19185623 165.31383366 -111 160 C-111 159.34 -111 158.68 -111 158 C-111.66 158 -112.32 158 -113 158 C-115.36091355 155.40121103 -117.3259516 152.47290648 -119.375 149.625 C-120.24125 148.46291016 -120.24125 148.46291016 -121.125 147.27734375 C-125.10689051 141.77724384 -127.68294868 136.35806623 -130 130 C-130.85066868 128.08177827 -131.70422532 126.16483064 -132.5625 124.25 C-141.35584139 102.7008856 -140.61277951 77.69946701 -131.72436523 56.32885742 C-130.96555571 54.56520797 -130.17474872 52.81543121 -129.3828125 51.06640625 C-128.2449301 48.54313596 -127.2378649 46.04313275 -126.3125 43.4375 C-124.11458354 37.68105212 -121.32197145 34.32197145 -117 30 C-115.98311663 28.65846522 -114.98393988 27.30338055 -114 25.9375 C-111.6343305 22.70663679 -109.22924082 20.40123035 -106 18 C-104.7315625 16.7315625 -104.7315625 16.7315625 -103.4375 15.4375 C-101.3737282 13.3737282 -99.43651702 11.59633874 -97 10 C-96.34 10 -95.68 10 -95 10 C-95 9.34 -95 8.68 -95 8 C-85.16499222 2.88666631 -75.19695415 -1.41481465 -64.625 -4.75 C-63.95903809 -4.96076172 -63.29307617 -5.17152344 -62.60693359 -5.38867188 C-42.1876933 -11.64940903 -19.12707239 -8.83000882 0 0 Z " fill="#0DAE99" transform="translate(598,368)"/>
<path d="M0 0 C0.66905365 -0.00175232 1.3381073 -0.00350464 2.0274353 -0.00531006 C4.22054704 -0.00968178 6.41357701 -0.00680819 8.60668945 -0.00341797 C10.13792435 -0.00409211 11.66915914 -0.00506307 13.20039368 -0.00631714 C16.40037053 -0.00778756 19.60031938 -0.00565976 22.80029297 -0.00097656 C26.90271818 0.00473485 31.00507818 0.00142867 35.10750103 -0.00454903 C38.26530958 -0.00815999 41.42310262 -0.00701383 44.58091164 -0.00442123 C46.09399231 -0.0037542 47.6070744 -0.00457259 49.12015343 -0.00690079 C51.23118204 -0.00943765 53.34210431 -0.00557276 55.453125 0 C57.25465279 0.00119339 57.25465279 0.00119339 59.09257507 0.00241089 C62.0324707 0.12939453 62.0324707 0.12939453 65.0324707 1.12939453 C65.0324707 127.18939453 65.0324707 253.24939453 65.0324707 383.12939453 C39.2924707 383.12939453 13.5524707 383.12939453 -12.9675293 383.12939453 C-13.75990182 309.25193749 -14.13091589 235.38703296 -14.09609771 161.50514781 C-14.0917037 151.06965046 -14.09490402 140.63416494 -14.0997268 130.1986683 C-14.1048506 118.62763388 -14.10426328 107.05660585 -14.10134506 95.48557091 C-14.10025518 90.67836947 -14.10112953 85.87117514 -14.10382462 81.06397438 C-14.11682797 54.40163313 -13.92539967 27.77624093 -12.9675293 1.12939453 C-8.57487624 0.35535504 -4.4651409 0.00295199 0 0 Z " fill="#000000" transform="translate(1410.967529296875,459.87060546875)"/>
<path d="M0 0 C0.95834747 -0.03220139 1.91669495 -0.06440277 2.90408325 -0.09757996 C7.31095266 -0.20813934 11.7176695 -0.29068039 16.12548828 -0.35253906 C18.44786997 -0.39418378 20.76998639 -0.45553615 23.09130859 -0.53710938 C26.43924202 -0.65289287 29.78270053 -0.70281442 33.13232422 -0.73950195 C34.68114792 -0.81221565 34.68114792 -0.81221565 36.26126099 -0.88639832 C40.76119039 -0.8750139 43.41159918 -0.81419336 46.68727112 2.45695496 C48.4778709 4.99423094 50.01920416 7.54472765 51.49951172 10.2722168 C52.52625 11.82489258 52.52625 11.82489258 53.57373047 13.40893555 C54.10611328 14.25069336 54.63849609 15.09245117 55.18701172 15.9597168 C55.9971875 17.23395508 55.9971875 17.23395508 56.82373047 18.53393555 C58.41561313 21.13512377 59.92563404 23.77457719 61.43041992 26.42675781 C63.28857907 29.63429949 65.27242372 32.76209251 67.24951172 35.8972168 C70.47137857 41.0229412 73.66205203 46.16447936 76.81201172 51.3347168 C78.88022294 54.71223916 80.96935658 58.01645474 83.31201172 61.2097168 C85.49951172 64.2722168 85.49951172 64.2722168 86.84326172 67.00268555 C88.72939663 70.72602262 90.90401497 74.15900167 93.18701172 77.6472168 C93.60273438 78.28788086 94.01845703 78.92854492 94.44677734 79.58862305 C95.46156815 81.15163418 96.48014796 82.7121842 97.49951172 84.2722168 C100.18195381 82.93099575 100.44822693 81.54482276 101.68701172 78.8347168 C103.95203767 74.15189189 106.646427 70.09642022 109.68701172 65.8894043 C112.23025425 62.21704978 114.39620215 58.3584524 116.61279297 54.4831543 C118.67390504 50.97542319 120.84667837 47.55865467 123.06201172 44.1472168 C126.12883153 39.42179116 129.10758046 34.65907493 131.98388672 29.81518555 C137.93731901 19.82630817 144.21060837 10.05495535 150.49951172 0.2722168 C166.99951172 0.2722168 183.49951172 0.2722168 200.49951172 0.2722168 C200.49951172 68.5822168 200.49951172 136.8922168 200.49951172 207.2722168 C185.31951172 207.2722168 170.13951172 207.2722168 154.49951172 207.2722168 C154.16951172 164.7022168 153.83951172 122.1322168 153.49951172 78.2722168 C149.53951172 84.2122168 145.57951172 90.1522168 141.49951172 96.2722168 C139.78763672 98.8297168 138.07576172 101.3872168 136.31201172 104.0222168 C132.78352737 109.31212954 129.32068087 114.63847869 125.89770508 119.99707031 C122.69569356 124.99779049 119.40262915 129.93477404 116.09594727 134.86669922 C113.61525832 138.5743956 111.18899823 142.30919012 108.81201172 146.0847168 C106.49396627 149.73440538 104.158327 153.36912366 101.74951172 156.9597168 C100.92193359 158.20301758 100.92193359 158.20301758 100.07763672 159.47143555 C99.55685547 160.06569336 99.03607422 160.65995117 98.49951172 161.2722168 C97.50951172 161.2722168 96.51951172 161.2722168 95.49951172 161.2722168 C93.88969102 159.32174115 92.50721753 157.43758791 91.12451172 155.3347168 C90.72240479 154.73933105 90.32029785 154.14394531 89.90600586 153.53051758 C87.30087182 149.62676769 84.99154867 145.63075059 82.78857422 141.48706055 C81.29303463 138.91745162 79.58963825 136.5928695 77.81201172 134.2097168 C73.92442744 128.98945684 70.47690735 123.56874009 67.08862305 118.01806641 C65.09305943 114.76227561 63.0476573 111.58816976 60.81201172 108.4909668 C58.89426054 105.82166448 57.31205219 103.15287944 55.72607422 100.28393555 C53.58059245 96.76507213 51.06746167 93.50898502 48.59716797 90.21362305 C46.07302017 86.67417557 43.8035757 82.95871917 41.49951172 79.2722168 C41.16951172 121.5122168 40.83951172 163.7522168 40.49951172 207.2722168 C25.31951172 207.2722168 10.13951172 207.2722168 -5.50048828 207.2722168 C-5.52303246 180.43042259 -5.54146579 153.58863601 -5.55230045 126.74683475 C-5.55746413 114.28467025 -5.56450819 101.82251203 -5.57592773 89.36035156 C-5.58587239 78.50259902 -5.59234119 67.64485103 -5.59457678 56.78709406 C-5.59588426 51.0341593 -5.59897245 45.28123756 -5.60621834 39.52830696 C-5.61297511 34.12020704 -5.61510595 28.71212558 -5.61359596 23.30402184 C-5.61387245 21.31293259 -5.61587959 19.32184276 -5.61969376 17.33075714 C-5.62462565 14.62482427 -5.62348845 11.91896227 -5.6207428 9.21302795 C-5.62365564 8.41440545 -5.62656848 7.61578294 -5.62956959 6.79295975 C-5.61128561 0.18507723 -5.61128561 0.18507723 0 0 Z " fill="#000000" transform="translate(3871.50048828125,386.727783203125)"/>
<path d="M0 0 C1.27399658 0.00612305 2.54799316 0.01224609 3.8605957 0.01855469 C13.41346268 0.17684577 21.74462833 1.2173301 30.75 4.4375 C31.68199219 4.74945312 32.61398438 5.06140625 33.57421875 5.3828125 C39.7449913 7.63188427 45.22817662 10.91293189 50.75 14.4375 C49.6416631 18.53834653 47.94230155 22.00707679 45.875 25.6875 C43.96175454 29.11386506 42.26144711 32.45462886 40.875 36.125 C38.34317323 42.74750557 35.04890547 48.98586442 31.83642578 55.296875 C30.01952435 58.87678326 28.22984984 62.47025536 26.4375 66.0625 C25.79570013 67.34641777 25.15377918 68.63027501 24.51171875 69.9140625 C23.63966797 71.65816406 23.63966797 71.65816406 22.75 73.4375 C21.75 75.4375 20.75 77.4375 19.75 79.4375 C12.44924761 78.82719677 5.64067946 77.29349758 -1.4375 75.4375 C-3.53459542 74.89366608 -5.63223674 74.35193205 -7.73046875 73.8125 C-8.64723389 73.57273437 -9.56399902 73.33296875 -10.50854492 73.0859375 C-23.10093999 70.1074531 -35.36488754 70.67421589 -46.6875 77.4375 C-48.21376737 78.42918641 -49.73473885 79.42907664 -51.25 80.4375 C-52.095625 80.89769531 -52.94125 81.35789062 -53.8125 81.83203125 C-60.89757706 86.49864451 -65.62927275 96.57531826 -68.25 104.4375 C-69.2117024 112.84812379 -69.40925749 121.28830375 -69.45532227 129.74536133 C-69.46522186 130.898181 -69.47512146 132.05100067 -69.48532104 133.23875427 C-69.51657413 136.99899333 -69.54154828 140.75924496 -69.56640625 144.51953125 C-69.58700715 147.14654341 -69.60800437 149.77355249 -69.62937927 152.40055847 C-69.67897032 158.5766467 -69.72403137 164.75275904 -69.76740164 170.92889374 C-69.82195008 178.66161223 -69.88265813 186.39428091 -69.94335938 194.12695312 C-70.05142779 207.89709687 -70.15029272 221.66728754 -70.25 235.4375 C-96.32 235.4375 -122.39 235.4375 -149.25 235.4375 C-150.32960645 231.11907419 -150.47615046 227.08514728 -150.56201172 222.66821289 C-150.59274717 221.31940568 -150.59274717 221.31940568 -150.62410355 219.94334984 C-150.69035816 216.91154443 -150.74823982 213.87965943 -150.8046875 210.84765625 C-150.82562344 209.78300707 -150.84655937 208.71835789 -150.86812973 207.62144661 C-151.41601836 179.2095053 -151.40224657 150.79533033 -151.37856936 122.37942469 C-151.37478231 117.30624711 -151.37617541 112.23308899 -151.38037109 107.15991211 C-151.42482569 51.89778662 -151.42482569 51.89778662 -150.8046875 26.53515625 C-150.78527225 25.70119261 -150.76585701 24.86722897 -150.74585342 24.0079937 C-150.69070979 21.73175198 -150.6283039 19.45587295 -150.56201172 17.17993164 C-150.5261496 15.93635391 -150.49028748 14.69277618 -150.45333862 13.41151428 C-150.25 10.4375 -150.25 10.4375 -149.25 7.4375 C-139.09733849 7.41437608 -128.9446832 7.39658466 -118.79200077 7.38568783 C-114.07820267 7.38045911 -109.36442253 7.37336166 -104.65063477 7.36206055 C-100.10544596 7.35123127 -95.56027448 7.34522308 -91.01507378 7.34262276 C-89.27705042 7.34076858 -87.53902806 7.33714811 -85.80101204 7.33176994 C-83.37521405 7.32455897 -80.94948854 7.32350908 -78.52368164 7.32397461 C-77.79791931 7.32037933 -77.07215698 7.31678406 -76.32440186 7.31307983 C-71.36405216 7.32344784 -71.36405216 7.32344784 -70.25 8.4375 C-70.03674414 11.33718736 -69.87278997 14.22124454 -69.75 17.125 C-69.52559753 22.30703477 -69.24002492 27.33062145 -68.25 32.4375 C-62.30824781 27.26307862 -62.30824781 27.26307862 -56.6875 21.75 C-53.15244126 18.39622633 -48.92546782 14.99269547 -44.06640625 13.984375 C-43.46699219 13.80390625 -42.86757812 13.6234375 -42.25 13.4375 C-41.92 12.4475 -41.59 11.4575 -41.25 10.4375 C-38.98610308 9.12162861 -36.81275725 8.01140703 -34.4375 6.9375 C-33.82712891 6.64230469 -33.21675781 6.34710937 -32.58789062 6.04296875 C-22.02467585 1.16433242 -11.54349779 -0.09458757 0 0 Z " fill="#000000" transform="translate(3349.25,607.5625)"/>
<path d="M0 0 C3.22238405 0.99066799 6.47593628 1.64037508 9.77978516 2.31152344 C14.27098857 3.23711103 18.64989391 4.26834281 23.02978516 5.62402344 C21.3651342 13.40445723 17.05964135 20.63820241 13.47900391 27.68652344 C12.32346824 30.02874129 11.20748356 32.37873909 10.11181641 34.74902344 C3.92416256 48.1307038 3.92416256 48.1307038 0.04150391 53.94824219 C-1.39852206 56.33345894 -2.23911976 58.84598508 -3.16552734 61.46386719 C-4.12832583 64.04846701 -5.19653539 66.5536922 -6.34521484 69.06152344 C-6.72419922 69.90585937 -7.10318359 70.75019531 -7.49365234 71.62011719 C-8.97021484 73.62402344 -8.97021484 73.62402344 -11.13452148 74.33666992 C-14.66709705 74.69464163 -17.36860456 74.06798106 -20.81787109 73.22558594 C-21.47041367 73.07117035 -22.12295624 72.91675476 -22.79527283 72.75765991 C-24.87689095 72.26449367 -26.95497232 71.75825274 -29.03271484 71.24902344 C-52.37545489 65.38923709 -52.37545489 65.38923709 -75.04052734 71.44433594 C-75.99572266 72.02828125 -75.99572266 72.02828125 -76.97021484 72.62402344 C-77.71013672 73.03394531 -78.45005859 73.44386719 -79.21240234 73.86621094 C-88.93194329 79.65866463 -94.6852574 89.2499263 -97.49883652 100.10373688 C-99.3165134 109.82218673 -98.7025332 120.03898928 -98.67911363 129.8904624 C-98.67595762 133.44058634 -98.70111233 136.99051643 -98.72306824 140.54055786 C-98.76030594 147.24082914 -98.7726441 153.94089757 -98.77569264 160.64126217 C-98.78040568 168.27878114 -98.81340037 175.91609966 -98.84859049 183.5535295 C-98.92025999 199.24367986 -98.95699911 214.93370821 -98.97021484 230.62402344 C-109.57717284 231.28174297 -120.13563563 231.77616795 -130.76708984 231.75683594 C-131.97036926 231.75779266 -133.17364868 231.75874939 -134.41339111 231.75973511 C-136.91703342 231.76040709 -139.42067758 231.75862255 -141.92431641 231.75439453 C-145.75475921 231.74897456 -149.58508781 231.75440202 -153.41552734 231.76074219 C-155.86604843 231.76008234 -158.31656945 231.75880311 -160.76708984 231.75683594 C-161.90458679 231.75886017 -163.04208374 231.7608844 -164.21405029 231.76296997 C-165.27666077 231.75981781 -166.33927124 231.75666565 -167.43408203 231.75341797 C-168.36130066 231.75262238 -169.28851929 231.75182678 -170.24383545 231.75100708 C-172.97021484 231.62402344 -172.97021484 231.62402344 -178.97021484 230.62402344 C-178.97021484 155.38402344 -178.97021484 80.14402344 -178.97021484 2.62402344 C-152.90021484 2.62402344 -126.83021484 2.62402344 -99.97021484 2.62402344 C-98.84521484 10.49902344 -98.84521484 10.49902344 -98.65380859 14.24511719 C-98.61191406 15.03466797 -98.57001953 15.82421875 -98.52685547 16.63769531 C-98.48753906 17.43755859 -98.44822266 18.23742187 -98.40771484 19.06152344 C-98.36453125 19.88845703 -98.32134766 20.71539063 -98.27685547 21.56738281 C-98.17183451 23.58611893 -98.07062925 25.60505294 -97.97021484 27.62402344 C-97.18646484 26.98078125 -96.40271484 26.33753906 -95.59521484 25.67480469 C-92.97021484 23.62402344 -92.97021484 23.62402344 -90.97021484 22.81152344 C-88.64747938 21.63483975 -88.64747938 21.63483975 -86.97021484 18.49902344 C-83.87464724 13.88451272 -79.51329326 11.39220632 -74.87646484 8.47167969 C-72.63754988 7.04828348 -70.64335033 5.60324594 -68.59521484 3.93652344 C-50.14420042 -9.53637076 -20.32993781 -6.64165299 0 0 Z " fill="#000000" transform="translate(2284.97021484375,612.3759765625)"/>
<path d="M0 0 C3.07320968 0.00541969 6.1462768 -0.00001366 9.21948242 -0.00634766 C11.20450878 -0.00568768 13.18953505 -0.0044082 15.17456055 -0.00244141 C16.07783585 -0.00446564 16.98111115 -0.00648987 17.91175842 -0.00857544 C23.5102089 0.01189278 28.92859078 0.4220262 34.4831543 1.13037109 C35.52806042 4.26508947 35.68313574 6.64192148 35.79489136 9.93634033 C35.85682773 11.75821428 35.85682773 11.75821428 35.92001534 13.61689377 C35.95977283 14.96934918 35.99886175 16.32182438 36.03735352 17.67431641 C36.05831581 18.37275115 36.0792781 19.07118588 36.10087562 19.79078531 C36.64811426 38.36719931 36.63027171 56.94614181 36.6174798 75.52896404 C36.6148959 80.4786401 36.61730938 85.42831457 36.61886597 90.37799072 C36.62066706 98.65759624 36.61833266 106.93719274 36.61352539 115.21679688 C36.60805055 124.75571428 36.60987692 134.29461041 36.6153518 143.83352733 C36.61989919 152.09161839 36.62052659 160.34970309 36.61791313 168.607795 C36.61636391 173.51161247 36.61611981 178.41541995 36.61944962 183.31923676 C36.6223534 187.9127699 36.62030691 192.50627562 36.61455536 197.09980583 C36.61324271 198.77507672 36.61359618 200.45034996 36.61581802 202.12561989 C36.61858804 204.42750658 36.61507867 206.7293076 36.61013794 209.03118896 C36.6095724 210.95438776 36.6095724 210.95438776 36.60899544 212.91643906 C36.4472794 218.33168237 35.93306626 223.73142754 35.4831543 229.13037109 C9.7431543 229.13037109 -15.9968457 229.13037109 -42.5168457 229.13037109 C-42.5168457 154.22037109 -42.5168457 79.31037109 -42.5168457 2.13037109 C-38.54506035 1.13742475 -34.80190314 0.79003819 -30.73950195 0.57568359 C-29.95656265 0.533638 -29.17362335 0.49159241 -28.36695862 0.44827271 C-18.91476926 -0.0104513 -9.46134711 -0.01986875 0 0 Z " fill="#000000" transform="translate(3106.516845703125,613.86962890625)"/>
<path d="M0 0 C56.1 0 112.2 0 170 0 C170 14.19 170 28.38 170 43 C149.87 43 129.74 43 109 43 C109 97.12 109 151.24 109 207 C93.49 207 77.98 207 62 207 C62 152.88 62 98.76 62 43 C41.54 43 21.08 43 0 43 C0 28.81 0 14.62 0 0 Z " fill="#000000" transform="translate(3663,387)"/>
<path d="M0 0 C0 0.66 0 1.32 0 2 C1.010625 2.185625 2.02125 2.37125 3.0625 2.5625 C7.98713018 3.98230265 10.74078529 7.19883734 14 11 C14.52722656 11.59941406 15.05445312 12.19882812 15.59765625 12.81640625 C24.54995473 23.78354429 26.83088213 36.20735663 26 50 C23.15641707 65.96436716 13.14799608 77.68756916 0.25 86.8125 C-10.63278321 93.26155672 -26.76173134 91.97930094 -38.76953125 89.9609375 C-44.5427674 88.24362663 -49.56439024 85.05322961 -54 81 C-54.71875 78.796875 -54.71875 78.796875 -55 77 C-55.5775 76.71125 -56.155 76.4225 -56.75 76.125 C-63.4892951 72.75535245 -66.55040775 64.70811417 -69 58 C-72.29473712 43.18391505 -70.32658084 28.14310303 -63 15 C-62.34 15 -61.68 15 -61 15 C-60.6596875 14.195625 -60.6596875 14.195625 -60.3125 13.375 C-55.87854163 5.35164676 -50.15211022 2.74556416 -42 -1 C-40.45119141 -1.79857422 -40.45119141 -1.79857422 -38.87109375 -2.61328125 C-27.0959537 -8.30059379 -11.24101596 -5.62050798 0 0 Z " fill="#000000" transform="translate(3127,477)"/>
<path d="M0 0 C24.09 0 48.18 0 73 0 C69.10726762 2.91954928 66.96402774 3.75208596 62.375 4.9375 C43.30674741 10.16843886 26.09023319 20.54118203 15.33984375 37.640625 C12.12150148 43.62907245 9.38847809 49.63796291 7 56 C6.65324219 56.83660156 6.30648438 57.67320313 5.94921875 58.53515625 C4.86926582 61.33947845 4.25900312 64.09906236 3.66015625 67.03515625 C3 69 3 69 0 73 C0 48.91 0 24.82 0 0 Z " fill="#FBFEFD" transform="translate(0,0)"/>
</svg>
